<svg width="152" height="49" viewBox="0 0 152 49" fill="none" xmlns="http://www.w3.org/2000/svg">
<g id="Group 1254">
<g id="Group">
<g id="Group_2">
<path id="Vector" d="M24.1632 0H25.4969C29.5145 0.127919 33.5025 1.23299 36.9788 3.25719C41 5.57513 44.3318 9.06565 46.459 13.1898C48.5957 17.3046 49.5113 22.0423 49.0624 26.6569C48.7201 30.28 47.5428 33.8215 45.6489 36.9294C43.6886 40.1558 40.968 42.9168 37.7676 44.9208C34.5922 46.9178 30.9441 48.1614 27.2072 48.5085C26.6316 48.5558 26.056 48.6198 25.4803 48.6802H24.5115C21.9649 48.5215 19.4125 48.1638 16.9974 47.311C12.7998 45.8778 9.02264 43.2579 6.19184 39.8455C3.71046 36.8655 1.95513 33.2826 1.13787 29.4912C0.0647709 24.5675 0.556311 19.311 2.56274 14.6858C4.5597 10.0321 8.05733 6.04535 12.403 3.44789C15.9409 1.30998 20.0355 0.137394 24.1632 0ZM22.9966 1.39526C19.7891 1.65584 16.6397 2.60457 13.8243 4.1621C9.87661 6.33435 6.59574 9.69459 4.52179 13.6932C2.48931 17.5782 1.62822 22.0541 2.03567 26.4164C2.37797 30.2303 3.70572 33.9482 5.84954 37.1201C8.37238 40.8724 12.024 43.856 16.2133 45.5628C19.9656 47.1037 24.1348 47.6178 28.1489 47.022C31.9248 46.4783 35.5551 44.9646 38.6062 42.6739C41.2712 40.6794 43.4991 38.102 45.0839 35.1741C47.0986 31.4668 48.0604 27.1946 47.8223 22.9816C47.6245 19.3643 46.5502 15.798 44.7132 12.6758C42.4533 8.81218 39.0397 5.63435 35.0198 3.66345C31.3172 1.82995 27.1113 1.05178 22.9966 1.39526Z" fill="white"/>
</g>
<path id="Vector_2" d="M99.3736 0H99.961C100.132 0.0307953 100.302 0.0627752 100.474 0.0983082C100.416 0.317428 100.359 0.536548 100.301 0.755668C100.132 0.543655 100.038 0.13621 99.691 0.187141C99.3167 0.158714 98.9922 0.550761 99.1379 0.90846C99.3368 1.25195 99.7644 1.38579 99.9788 1.72098C100.184 2.09645 100.032 2.62115 99.6495 2.81895C99.2042 3.07124 98.6783 2.92792 98.2022 2.87225C98.2543 2.64247 98.3111 2.41387 98.3692 2.18528C98.4935 2.3665 98.5753 2.58917 98.7529 2.72775C99.113 2.89357 99.6555 2.68748 99.6626 2.24687C99.7005 1.60609 98.7861 1.54213 98.7055 0.943993C98.6155 0.493909 98.9874 0.144501 99.3736 0Z" fill="white"/>
<path id="Vector_3" d="M110.505 0H110.665C110.48 0.7 110.343 1.41184 110.17 2.1154C110.135 2.30254 110.067 2.49915 110.12 2.68985C110.301 2.73604 110.485 2.77868 110.671 2.81658C110.157 3.0132 109.587 2.86751 109.052 2.91134C109.049 2.88054 109.047 2.81777 109.046 2.78697C109.228 2.75381 109.419 2.73841 109.596 2.67208C109.731 2.48849 109.753 2.25042 109.813 2.03486C109.92 1.51489 110.075 1.00203 110.112 0.469035C109.863 0.549577 109.617 0.639594 109.365 0.708291C109.619 0.318613 110.131 0.239256 110.505 0Z" fill="white"/>
<g id="Group_3">
<path id="Vector_4" d="M112.415 0H112.791C113.07 0.0888325 113.311 0.30203 113.366 0.599323C113.544 1.51134 113.005 2.52758 112.123 2.84856C111.882 2.93384 111.59 3.02504 111.377 2.8225C111.689 2.70761 112.03 2.64484 112.315 2.46007C112.626 2.25516 112.77 1.89391 112.941 1.58003C112.554 1.73401 111.99 1.91641 111.696 1.50186C111.345 0.925042 111.754 0.106599 112.415 0ZM112.526 0.185956C112.032 0.252284 111.867 0.872928 111.971 1.29222C112.088 1.64636 112.588 1.60728 112.841 1.42606C113.093 1.27445 113.037 0.94044 113.027 0.694078C113.022 0.42758 112.817 0.140948 112.526 0.185956Z" fill="white"/>
</g>
<g id="Group_4">
<path id="Vector_5" d="M114.915 0H115.393C115.63 0.105415 115.804 0.323351 115.803 0.589848C115.837 1.27208 115.671 1.98985 115.253 2.54179C114.981 2.90778 114.421 3.11743 114.018 2.84027C113.712 2.57496 113.787 2.11895 113.826 1.76125C113.934 1.06954 114.213 0.290186 114.915 0ZM115.028 0.202538C114.712 0.341117 114.57 0.690525 114.451 0.991371C114.297 1.49476 114.123 2.0242 114.197 2.55719C114.245 2.88646 114.687 2.81066 114.83 2.59272C115.258 2.0242 115.404 1.28274 115.443 0.586294C115.485 0.347039 115.277 0.0852791 115.028 0.202538Z" fill="white"/>
</g>
<g id="Group_5">
<path id="Vector_6" d="M117.994 0H118.098C118.124 0.0473773 118.175 0.142132 118.2 0.189509C117.506 0.260575 116.953 0.743824 116.694 1.37513C117.018 1.278 117.383 1.10152 117.713 1.27919C118.082 1.47225 118.094 1.96497 117.97 2.31201C117.787 2.87817 117.013 3.16007 116.519 2.82724C116.098 2.46125 116.184 1.81929 116.339 1.34433C116.572 0.61709 117.272 0.14687 117.994 0ZM117.018 1.47107C116.431 1.56464 116.358 2.60931 116.907 2.79289C117.48 2.90186 117.752 2.17225 117.619 1.71624C117.552 1.45567 117.236 1.42132 117.018 1.47107Z" fill="white"/>
</g>
<path id="Vector_7" d="M101.118 0.0733783C101.214 0.0721938 101.406 0.0710087 101.502 0.0698242C101.482 0.169317 101.442 0.367117 101.42 0.465425C101.285 0.471348 101.151 0.47727 101.019 0.482007C101.051 0.345798 101.084 0.209588 101.118 0.0733783Z" fill="white"/>
<path id="Vector_8" d="M102.293 1.49225C102.557 1.21628 102.862 0.793435 103.304 0.889374C103.596 0.950965 103.63 1.30511 103.584 1.54673C103.508 1.94826 103.371 2.33438 103.313 2.73946C103.417 2.80579 103.524 2.8733 103.63 2.94081C103.375 2.93607 103.12 2.93252 102.866 2.93015C102.962 2.34623 103.305 1.75638 103.142 1.16061C103.078 1.1535 102.951 1.13811 102.887 1.12981C102.214 1.46619 102.19 2.29648 102.037 2.93844C101.909 2.93252 101.784 2.92778 101.658 2.92186C101.779 2.32609 101.979 1.74098 102.023 1.13337C101.965 1.08007 101.848 0.975838 101.789 0.923723C101.997 0.921354 102.207 0.92017 102.418 0.918985C102.387 1.0623 102.325 1.34893 102.293 1.49225Z" fill="white"/>
<path id="Vector_9" d="M104.733 1.01997C105.071 0.82572 105.477 0.860068 105.846 0.922843C105.767 1.10761 105.803 1.42267 105.537 1.44873C105.49 1.25212 105.414 0.926396 105.131 1.04721C104.602 1.22132 104.452 1.88342 104.45 2.37851C104.419 2.74213 104.9 2.79662 105.13 2.62487C105.278 2.57868 105.465 2.31218 105.589 2.55855C105.319 2.76701 105.021 3.00271 104.657 2.96599C104.335 2.97665 104.079 2.69239 104.076 2.38088C104.062 1.86447 104.264 1.28883 104.733 1.01997Z" fill="white"/>
<g id="Group_6">
<path id="Vector_10" d="M106.005 2.58069C105.741 1.75041 106.46 0.691523 107.382 0.86445C107.796 0.903536 107.827 1.47443 107.554 1.7054C107.21 1.97189 106.748 1.98611 106.332 2.01453C106.362 2.24195 106.289 2.59609 106.576 2.68492C106.937 2.77968 107.231 2.50844 107.525 2.35091C107.424 2.99406 106.268 3.23805 106.005 2.58069ZM106.369 1.84042C106.666 1.82858 107.013 1.85108 107.251 1.63552C107.457 1.45903 107.371 0.963942 107.033 1.05633C106.664 1.14634 106.497 1.52181 106.369 1.84042Z" fill="white"/>
</g>
<path id="Vector_11" d="M100.599 0.925075C100.829 0.922706 101.06 0.920338 101.292 0.917969C101.166 1.52914 101.008 2.13557 100.916 2.75384C100.997 2.80359 101.162 2.90071 101.245 2.94927C100.987 2.95283 100.732 2.95283 100.476 2.95401C100.589 2.34284 100.803 1.74589 100.843 1.12524C100.782 1.07431 100.661 0.974821 100.599 0.925075Z" fill="white"/>
<path id="Vector_12" d="M15.9468 4.96029C16.3436 4.73051 16.7475 4.51613 17.1478 4.29346C17.1443 13.8175 17.1526 23.3427 17.1431 32.8667C18.1819 31.7877 19.7216 31.4383 21.1607 31.3151C29.2374 31.295 37.3152 31.2997 45.3918 31.2796C45.2426 31.7072 45.0756 32.1288 44.9216 32.5552C36.9231 32.5659 28.9258 32.5564 20.9274 32.56C19.435 32.5564 17.9462 33.3334 17.1407 34.596C17.0934 35.2865 17.1407 35.9818 17.1194 36.6735C18.1629 35.5921 19.7133 35.2427 21.1583 35.1278C28.6736 35.1183 36.19 35.0899 43.7064 35.0875C43.4055 35.4997 43.1983 35.9995 42.8441 36.3596C35.8536 36.3833 28.8607 36.3632 21.869 36.3703C21.2851 36.3786 20.694 36.3312 20.1172 36.4425C18.9245 36.6581 17.8123 37.3652 17.1502 38.3838C17.0839 39.0127 17.1419 39.6488 17.1242 40.2813C18.1736 39.2153 19.7098 38.8682 21.1489 38.7462C27.79 38.7415 34.4311 38.7095 41.0722 38.7143C40.6577 39.1347 40.2917 39.6109 39.8404 39.9899C33.4942 40.0112 27.1468 39.9887 20.8006 40.0006C19.236 40.0337 17.682 40.954 16.9868 42.3682C16.8162 42.9818 16.4206 43.5657 16.4822 44.2195C16.2714 43.1831 15.9954 42.1053 15.2729 41.2963C14.4272 40.3204 13.0758 39.8786 11.8084 39.9698C11.2529 39.984 10.6974 40.01 10.1407 40.016C9.97611 40.0539 9.8778 39.8999 9.77475 39.8063C9.42534 39.4391 9.06883 39.0779 8.71587 38.7119C9.90267 38.732 11.0895 38.7557 12.2763 38.7782C13.1978 38.7936 14.1572 38.9701 14.9199 39.5173C15.338 39.8075 15.6555 40.2126 15.9231 40.6402C15.9006 40.0077 15.9456 39.3728 15.903 38.7415C15.3913 37.3119 13.9096 36.3182 12.3971 36.3312C10.5766 36.349 8.75495 36.3821 6.93448 36.4023C6.6893 36.0126 6.43583 35.6288 6.20842 35.2297C8.19116 35.2344 10.1739 35.2486 12.1566 35.2605C13.5697 35.3528 15.0869 35.8207 15.9421 37.0276C15.9326 36.4105 15.9409 35.7935 15.9397 35.1775C15.967 34.8234 15.7668 34.5155 15.5939 34.2264C14.9223 33.1451 13.6763 32.4498 12.4018 32.4593C9.91333 32.477 7.42484 32.5067 4.93634 32.5256C4.75039 32.098 4.56562 31.6716 4.38084 31.2452C6.9712 31.2476 9.56155 31.2393 12.1519 31.2488C13.5638 31.3814 15.0893 31.8517 15.9231 33.0847C15.9184 23.7099 15.9516 14.3351 15.9468 4.96029Z" fill="white"/>
<path id="Vector_13" d="M53.7279 5.2553C55.4773 5.2624 57.2267 5.2399 58.9761 5.26714C60.4957 10.4265 62.0485 15.5776 63.5812 20.7335C63.7683 21.3292 63.914 21.9392 64.1402 22.5231C65.9074 16.7739 67.6154 11.0057 69.3707 5.25293C71.113 5.25767 72.8553 5.25293 74.5988 5.25648C72.0629 13.4125 69.4951 21.5578 66.9604 29.715C65.0475 29.7292 63.1346 29.7186 61.2206 29.7198C58.725 21.5638 56.2235 13.4101 53.7279 5.2553Z" fill="white"/>
<path id="Vector_14" d="M76.0746 5.26262C77.7565 5.24841 79.4384 5.25315 81.1203 5.26025C83.6313 9.55027 86.1553 13.8332 88.6722 18.1208C89.3852 19.3171 90.0663 20.5347 90.8018 21.718C90.8421 16.2305 90.8054 10.7418 90.8208 5.25433C92.4044 5.26499 93.9903 5.23893 95.5739 5.26736C95.5585 13.4186 95.5727 21.5699 95.5668 29.7212C93.8719 29.72 92.1758 29.7259 90.4808 29.7188C87.9177 25.3281 85.344 20.9457 82.7773 16.5586C82.1282 15.4713 81.5171 14.3603 80.8419 13.2883C80.8076 18.7652 80.8372 24.2432 80.8277 29.7212C79.2441 29.7212 77.6617 29.7212 76.0793 29.7212C76.0758 21.5687 76.0841 13.4151 76.0746 5.26262Z" fill="white"/>
<path id="Vector_15" d="M97.9854 5.26359C99.6815 5.24464 101.376 5.26003 103.073 5.2553C103.074 10.0961 103.074 14.9369 103.073 19.7776C103.061 21.1184 103.137 22.5705 103.957 23.6957C104.682 24.7037 105.953 25.1242 107.146 25.2035C108.347 25.2746 109.615 25.2094 110.703 24.6445C111.423 24.2761 111.951 23.601 112.215 22.8441C112.638 21.6763 112.604 20.4125 112.605 19.1878C112.606 14.5436 112.601 9.89828 112.607 5.25293C114.294 5.25767 115.981 5.25411 117.667 5.2553C117.668 9.97882 117.667 14.7035 117.668 19.4282C117.71 21.6834 117.455 24.0617 116.215 26.0054C115.224 27.5949 113.556 28.6668 111.769 29.1524C109.772 29.6996 107.661 29.7482 105.614 29.503C103.527 29.2448 101.404 28.4347 100.018 26.7918C98.5054 25.0282 98.0233 22.6309 97.9937 20.3663C97.983 15.3313 97.9996 10.2974 97.9854 5.26359Z" fill="white"/>
<path id="Vector_16" d="M32.8132 26.9992C32.7753 25.951 33.5605 24.8755 34.649 24.8033C35.5989 24.6528 36.6353 25.3055 36.7325 26.3004C36.4352 26.3028 36.1379 26.3028 35.8406 26.3004C35.6854 25.4973 34.5602 25.3493 34.0912 25.951C33.6387 26.5764 33.6316 27.5358 34.122 28.1422C34.6727 28.764 35.9176 28.4916 35.9531 27.5831C35.6226 27.5808 35.2945 27.5808 34.9653 27.5796C34.9665 27.3391 34.9688 27.0987 34.9712 26.8583C35.5634 26.8571 36.1556 26.8654 36.7467 26.85C36.7798 27.6234 36.755 28.3968 36.7609 29.1703C36.5666 29.1691 36.3736 29.1679 36.1805 29.1667C36.1521 29.0127 36.1248 28.8576 36.0976 28.7036C35.6878 29.194 35.015 29.3823 34.4015 29.2224C33.403 29.0198 32.7504 27.9858 32.8132 26.9992Z" fill="white"/>
<g id="Group_7">
<path id="Vector_17" d="M19.9277 24.9015C20.6419 24.9098 21.3561 24.8825 22.0704 24.9121C22.8201 24.9702 23.4455 25.56 23.6279 26.2766C23.9193 27.3308 23.5592 28.7592 22.3949 29.0932C21.5859 29.2531 20.7521 29.1287 19.9325 29.1714C19.9218 28.5507 19.9301 27.9301 19.9265 27.3106C19.827 27.3094 19.6304 27.3094 19.5309 27.3083C19.5309 27.0773 19.5309 26.8451 19.5309 26.6142C19.6304 26.6142 19.8282 26.613 19.9277 26.6118C19.9277 26.0421 19.9277 25.4712 19.9277 24.9015ZM20.8954 25.6927C20.8942 25.9995 20.8942 26.3062 20.8942 26.613C21.2187 26.613 21.5421 26.6142 21.8654 26.6189C21.8631 26.8499 21.8607 27.0808 21.8572 27.3118C21.5362 27.3094 21.2152 27.3083 20.8954 27.3106C20.8942 27.6636 20.8942 28.0189 20.8954 28.3731C21.2578 28.3695 21.6226 28.3991 21.9827 28.3506C22.4849 28.2558 22.7656 27.7287 22.781 27.2538C22.8094 26.7847 22.7419 26.2328 22.3522 25.9189C21.9401 25.5861 21.3822 25.7081 20.8954 25.6927Z" fill="white"/>
</g>
<path id="Vector_18" d="M24.2237 24.9004C24.5352 24.9004 24.8478 24.9004 25.1605 24.9016C25.1605 25.4464 25.1594 25.9901 25.1617 26.5349C25.7362 26.5361 26.3106 26.5361 26.8851 26.5361C26.8874 25.9901 26.8863 25.4464 26.8874 24.9016C27.2096 24.9004 27.5318 24.9004 27.8539 24.9016C27.8504 26.3241 27.861 27.7478 27.848 29.1703C27.5306 29.1679 27.2132 29.1691 26.8969 29.1738C26.8756 28.5579 26.891 27.942 26.8851 27.3261C26.3106 27.3249 25.7362 27.3249 25.1617 27.3261C25.1582 27.9408 25.1641 28.5556 25.157 29.1703C24.8443 29.1691 24.5328 29.1691 24.2225 29.1667C24.2225 27.7454 24.2201 26.3229 24.2237 24.9004Z" fill="white"/>
<g id="Group_8">
<path id="Vector_19" d="M28.9827 25.3503C29.8154 24.5722 31.2758 24.6409 32.0077 25.5209C32.7042 26.408 32.6651 27.7701 31.9485 28.6348C32.125 28.7923 32.3015 28.951 32.4768 29.1109C32.3358 29.2637 32.1937 29.4165 32.0528 29.5693C31.8538 29.394 31.656 29.2175 31.4582 29.0422C30.7475 29.3739 29.8473 29.3916 29.1947 28.919C28.079 28.1207 28.0115 26.286 28.9827 25.3503ZM29.4861 26.0977C29.1473 26.7195 29.1533 27.5735 29.6069 28.1373C29.8947 28.4832 30.3792 28.5045 30.7925 28.4535C30.6705 28.328 30.5414 28.2107 30.4289 28.0757C30.5035 27.8815 30.6907 27.7476 30.8174 27.5854C30.9891 27.7334 31.1597 27.8838 31.3314 28.0343C31.6548 27.4112 31.6856 26.5999 31.2805 26.0065C30.8494 25.4285 29.8544 25.4723 29.4861 26.0977Z" fill="white"/>
</g>
<path id="Vector_20" d="M40.0891 24.8989C40.3995 24.9001 40.711 24.9013 41.0225 24.9013C41.013 26.3262 41.0426 27.7522 41.0083 29.1783C40.6932 29.1688 40.3781 29.1664 40.0643 29.1688C40.056 28.5541 40.0619 27.9394 40.0595 27.3246C39.4839 27.3246 38.9094 27.3246 38.3338 27.3258C38.3326 27.9394 38.335 28.5541 38.3338 29.1676C38.0104 29.1688 37.6883 29.1688 37.3673 29.1676C37.3732 27.7451 37.3827 26.3238 37.3898 24.9013C37.7132 24.9001 38.0353 24.9001 38.3587 24.9013C38.3575 25.4461 38.3575 25.9898 38.3575 26.5346C38.9331 26.5346 39.5088 26.5346 40.0832 26.5346C40.0844 25.9886 40.0797 25.4438 40.0891 24.8989Z" fill="white"/>
<path id="Vector_21" d="M41.6893 24.9017C42.0067 24.8981 42.3242 24.8993 42.6416 24.9111C43.2149 25.8646 43.8083 26.8062 44.404 27.7467C44.4123 26.7979 44.4052 25.8492 44.4076 24.9017C44.7001 24.9005 44.9939 24.9005 45.2876 24.9005C45.29 26.3206 45.2817 27.7408 45.2923 29.1609C44.9761 29.168 44.6599 29.1704 44.3448 29.1704C43.7455 28.2465 43.2089 27.2824 42.5788 26.3787C42.5528 27.3049 42.5658 28.2323 42.5705 29.1597C42.2756 29.1692 41.9819 29.1704 41.6869 29.1644C41.6929 27.7431 41.6881 26.3218 41.6893 24.9017Z" fill="white"/>
<path id="Vector_22" d="M95.2174 32.9771C95.5206 32.9782 95.825 32.9782 96.1306 32.9782C95.8179 33.2791 95.5017 33.5764 95.1878 33.876C95.0243 33.8772 94.8621 33.8784 94.7022 33.8796C94.8715 33.5776 95.0421 33.2755 95.2174 32.9771Z" fill="white"/>
<path id="Vector_23" d="M121.464 33.5951C121.751 33.5903 122.039 33.5939 122.327 33.5974C122.498 33.8995 122.674 34.1991 122.844 34.5023C122.65 34.4692 122.405 34.5592 122.257 34.3945C121.98 34.1411 121.688 33.8983 121.464 33.5951Z" fill="white"/>
<path id="Vector_24" d="M93.5627 33.633C93.8577 33.6211 94.155 33.6188 94.4534 33.6247C94.6631 33.9255 94.8786 34.2228 95.0859 34.5261C94.6299 34.6516 94.3148 34.3531 94.0472 34.0369C93.8825 34.2015 93.7191 34.365 93.5544 34.5261C93.3519 34.5237 93.1505 34.5213 92.9492 34.5201C93.1577 34.2264 93.3649 33.9338 93.5627 33.633Z" fill="white"/>
<path id="Vector_25" d="M133.219 33.6237C133.496 33.6225 133.775 33.6213 134.055 33.6201C134.261 33.9186 134.466 34.2194 134.672 34.5191C134.492 34.5215 134.313 34.525 134.135 34.5298C133.965 34.3687 133.798 34.204 133.633 34.0394C133.466 34.2029 133.299 34.3663 133.131 34.5286C132.998 34.5262 132.732 34.5215 132.598 34.5191C132.802 34.2183 133.009 33.921 133.219 33.6237Z" fill="white"/>
<g id="Group_9">
<path id="Vector_26" d="M72.4952 34.8874C73.3504 34.6635 74.3536 34.981 74.857 35.7236C75.5629 36.7801 75.422 38.4502 74.324 39.1893C73.4357 39.8028 72.115 39.6571 71.3996 38.8434C70.715 38.0392 70.6558 36.7991 71.1592 35.8882C71.4316 35.3801 71.9445 35.0331 72.4952 34.8874ZM72.7238 35.7165C72.2761 35.8515 71.9942 36.2791 71.9137 36.7209C71.8213 37.2527 71.8319 37.8532 72.1541 38.3116C72.5841 38.9062 73.6074 38.8896 74.0231 38.2867C74.3927 37.7383 74.4081 37.0004 74.1795 36.394C73.9852 35.8195 73.2864 35.5116 72.7238 35.7165Z" fill="white"/>
</g>
<path id="Vector_27" d="M76.1883 35.7167C76.8788 34.6673 78.5619 34.5299 79.4336 35.4206C79.7143 35.7001 79.8482 36.085 79.9252 36.4664C79.6148 36.4629 79.3045 36.4558 78.9954 36.4498C78.8201 35.6397 77.6937 35.3803 77.1465 35.9713C76.6478 36.5553 76.6111 37.4602 76.9404 38.1365C77.2104 38.7287 78.023 38.9194 78.5619 38.5889C78.858 38.4065 78.9362 38.0476 79.012 37.735C79.3365 37.7267 79.661 37.7255 79.9868 37.7302C79.9169 38.2407 79.725 38.7548 79.3282 39.1018C78.595 39.7367 77.4154 39.7189 76.649 39.148C75.6245 38.3639 75.4883 36.7566 76.1883 35.7167Z" fill="white"/>
<g id="Group_10">
<path id="Vector_28" d="M82.8235 35.4845C83.6857 34.5666 85.325 34.6068 86.1257 35.5852C86.8754 36.5197 86.8411 37.9683 86.0842 38.8897C86.2678 39.0603 86.4538 39.2309 86.6409 39.4002C86.4869 39.5613 86.3329 39.7236 86.1813 39.8847C85.9717 39.694 85.7632 39.5033 85.5548 39.3126C84.7683 39.694 83.7533 39.6892 83.0556 39.1231C81.9884 38.262 81.9162 36.4853 82.8235 35.4845ZM83.4465 36.239C83.0959 36.9177 83.1172 37.8427 83.636 38.4314C83.9522 38.7772 84.4497 38.7808 84.8808 38.7275C84.7375 38.5842 84.5918 38.442 84.4461 38.3023C84.5918 38.1293 84.7387 37.9564 84.8856 37.7835C85.0597 37.9469 85.2326 38.1104 85.4091 38.2727C85.7703 37.6141 85.7869 36.7459 85.37 36.1099C84.9081 35.4738 83.8125 35.5378 83.4465 36.239Z" fill="white"/>
</g>
<path id="Vector_29" d="M90.1788 34.9195C90.4939 34.9218 90.8113 34.9029 91.1264 34.9384C91.1512 35.8078 91.1406 36.6795 91.1571 37.5501C91.1678 38.0665 91.111 38.6327 90.7497 39.0342C90.3802 39.4499 89.7939 39.566 89.2632 39.5719C88.7468 39.5743 88.1878 39.489 87.7922 39.1313C87.4167 38.7949 87.2923 38.2726 87.29 37.787C87.2817 36.8347 87.2959 35.8836 87.2841 34.9313C87.6169 34.9183 87.9509 34.9171 88.2861 34.9242C88.2908 35.9144 88.2731 36.9069 88.292 37.8971C88.2778 38.2726 88.5407 38.6492 88.9221 38.7108C89.2727 38.7428 89.6837 38.7357 89.9526 38.4692C90.1125 38.2809 90.1705 38.0274 90.167 37.7846C90.1741 36.8288 90.148 35.8741 90.1788 34.9195Z" fill="white"/>
<g id="Group_11">
<path id="Vector_30" d="M93.4597 34.89C94.3137 34.6626 95.3145 34.9777 95.8226 35.7156C96.5096 36.7271 96.4066 38.2917 95.4341 39.0865C94.5695 39.7924 93.1873 39.7107 92.4209 38.897C91.6783 38.0809 91.6143 36.7685 92.1651 35.834C92.4411 35.3555 92.9338 35.031 93.4597 34.89ZM93.7013 35.712C93.2725 35.8376 92.9859 36.2296 92.8983 36.6536C92.7893 37.1807 92.794 37.7682 93.0771 38.242C93.4703 38.897 94.547 38.9147 94.9852 38.2976C95.3607 37.7481 95.3796 37.0054 95.1487 36.3954C94.9544 35.8234 94.2639 35.5166 93.7013 35.712Z" fill="white"/>
</g>
<path id="Vector_31" d="M97.3553 35.4584C98.0813 34.7016 99.3819 34.6246 100.22 35.2369C100.62 35.5247 100.836 35.9926 100.915 36.4687C100.597 36.4628 100.282 36.4557 99.9658 36.4486C99.7905 35.6396 98.6641 35.3791 98.1181 35.9736C97.6028 36.5801 97.5697 37.53 97.957 38.2122C98.2566 38.7535 99.0277 38.9016 99.5394 38.5865C99.8355 38.3994 99.9089 38.0357 99.9989 37.7242C100.319 37.7278 100.639 37.7278 100.96 37.7313C100.887 38.2975 100.646 38.8708 100.167 39.2095C99.4198 39.7295 98.3336 39.6916 97.6052 39.1539C96.4907 38.3022 96.4184 36.4664 97.3553 35.4584Z" fill="white"/>
<path id="Vector_32" d="M104.494 35C105.605 34.4884 107.207 35.1268 107.302 36.4439C106.987 36.4415 106.673 36.4415 106.361 36.4427C106.26 36.2105 106.165 35.95 105.933 35.8173C105.402 35.4987 104.604 35.6977 104.335 36.2721C104.03 36.894 104.028 37.6899 104.4 38.2857C104.698 38.7583 105.337 38.8637 105.843 38.7298C106.267 38.5995 106.491 38.166 106.516 37.7467C106.175 37.742 105.836 37.7432 105.496 37.7491C105.492 37.5004 105.492 37.2528 105.496 37.0053C106.125 37.0124 106.753 37.0112 107.383 37.0053C107.402 37.8237 107.387 38.6422 107.391 39.4606C107.179 39.4618 106.968 39.4618 106.759 39.463C106.721 39.2972 106.683 39.1313 106.65 38.9655C105.877 39.9273 104.277 39.6833 103.627 38.7085C102.786 37.5525 103.1 35.5769 104.494 35Z" fill="white"/>
<g id="Group_12">
<path id="Vector_33" d="M133.017 34.8956C133.986 34.6196 135.151 35.0721 135.576 36.0101C136.054 37.0122 135.901 38.3956 134.991 39.1062C134.12 39.7944 132.75 39.702 131.992 38.8883C131.279 38.0947 131.205 36.8416 131.697 35.9166C131.96 35.4013 132.467 35.0472 133.017 34.8956ZM133.248 35.7117C132.821 35.8372 132.537 36.2293 132.446 36.6509C132.323 37.2218 132.359 37.8898 132.75 38.3553C133.207 38.8753 134.118 38.8421 134.535 38.2854C134.924 37.7205 134.933 36.9423 134.665 36.3252C134.442 35.7958 133.784 35.5269 133.248 35.7117Z" fill="white"/>
</g>
<g id="Group_13">
<path id="Vector_34" d="M53.7125 34.9218C54.3876 34.9241 55.0627 34.9135 55.7367 34.9229C56.3526 34.9241 56.978 35.2262 57.3096 35.7544C57.749 36.4153 57.7775 37.2764 57.5796 38.0238C57.3807 38.7546 56.7541 39.3693 55.9854 39.4427C55.2238 39.4877 54.4599 39.4487 53.6983 39.4605C53.6995 38.8031 53.7054 38.1446 53.7066 37.4872C53.6035 37.4872 53.3998 37.4872 53.2979 37.4872C53.2967 37.2397 53.2956 36.9921 53.2967 36.7458C53.3998 36.747 53.6059 36.7482 53.7089 36.7493C53.7148 36.1394 53.7101 35.5306 53.7125 34.9218ZM54.705 35.7592C54.7027 36.0872 54.7027 36.4165 54.705 36.7446C55.0414 36.7446 55.379 36.7446 55.7165 36.7458C55.7142 36.9957 55.7118 37.2456 55.7059 37.4967C55.3719 37.4908 55.0379 37.4896 54.705 37.4908C54.7027 37.8663 54.7027 38.2429 54.7027 38.6196C55.0888 38.6184 55.4797 38.6527 55.8646 38.5959C56.3964 38.4928 56.6996 37.9338 56.7162 37.428C56.7423 36.9199 56.6712 36.3099 56.2306 35.9854C55.7912 35.6549 55.2132 35.7781 54.705 35.7592Z" fill="white"/>
</g>
<g id="Group_14">
<path id="Vector_35" d="M57.9149 39.4619C58.4869 37.9482 59.059 36.4345 59.6323 34.9219C59.9675 34.9219 60.3027 34.9208 60.639 34.916C61.2242 36.4238 61.7702 37.947 62.3399 39.4619C61.9952 39.4619 61.6506 39.4619 61.3071 39.4583C61.1945 39.1231 61.0808 38.7879 60.9683 38.4527C60.4033 38.448 59.8396 38.4504 59.2758 38.4515C59.1573 38.7856 59.0401 39.1219 58.9275 39.4583C58.59 39.4619 58.2524 39.4619 57.9149 39.4619ZM59.5375 37.7089C59.926 37.7089 60.3145 37.7089 60.7042 37.7089C60.5194 37.17 60.3465 36.6275 60.1511 36.0933C59.8964 36.6121 59.7436 37.1712 59.5375 37.7089Z" fill="white"/>
</g>
<path id="Vector_36" d="M62.7272 34.9233C63.0577 34.9221 63.3893 34.9221 63.7221 34.9233C63.7233 36.4358 63.7233 37.9483 63.7221 39.4608C63.3893 39.4608 63.0577 39.4608 62.7272 39.4608C62.726 37.9483 62.7248 36.4358 62.7272 34.9233Z" fill="white"/>
<path id="Vector_37" d="M66.3539 34.9231C66.6856 34.9219 67.0172 34.9219 67.3489 34.9219C67.3524 35.5034 67.3429 36.0862 67.3583 36.6677C67.9624 36.6606 68.5676 36.6654 69.1717 36.6642C69.1729 36.0826 69.1717 35.5022 69.1741 34.9219C69.5045 34.9207 69.8373 34.9219 70.169 34.9231C70.169 36.4344 70.1678 37.9457 70.1702 39.4571C69.8362 39.4642 69.5022 39.463 69.1693 39.4523C69.1752 38.8104 69.1717 38.1684 69.1717 37.5264C68.5641 37.5253 67.9576 37.5253 67.35 37.5264C67.3488 38.1708 67.35 38.8151 67.35 39.4606C67.0172 39.4606 66.6856 39.4606 66.3539 39.4606C66.3516 37.9481 66.3516 36.4356 66.3539 34.9231Z" fill="white"/>
<path id="Vector_38" d="M108.176 34.9233C108.506 34.9221 108.835 34.9221 109.166 34.9233C109.166 36.4358 109.166 37.9483 109.166 39.4608C108.835 39.4608 108.504 39.4608 108.176 39.4608C108.174 37.9483 108.174 36.4358 108.176 34.9233Z" fill="white"/>
<g id="Group_15">
<path id="Vector_39" d="M109.563 39.4616C110.134 37.9479 110.703 36.4342 111.277 34.9217C111.613 34.943 111.981 34.8612 112.302 34.9655C112.878 36.4567 113.421 37.9633 113.981 39.4616C113.638 39.4616 113.295 39.4616 112.954 39.4604C112.838 39.1252 112.723 38.7888 112.611 38.4524C112.047 38.4489 111.484 38.4501 110.922 38.4513C110.803 38.7876 110.685 39.124 110.569 39.4604C110.232 39.4616 109.897 39.4616 109.563 39.4616ZM111.18 37.7086C111.568 37.7086 111.957 37.7074 112.347 37.7086C112.162 37.1685 111.989 36.6261 111.792 36.0907C111.544 36.6118 111.386 37.1697 111.18 37.7086Z" fill="white"/>
</g>
<path id="Vector_40" d="M116.131 34.9218C116.452 34.9206 116.774 34.9206 117.097 34.9218C117.099 35.5033 117.093 36.0861 117.103 36.6688C117.71 36.6629 118.317 36.6664 118.925 36.6664C118.926 36.0849 118.924 35.5022 118.926 34.9218C119.257 34.9194 119.589 34.9206 119.922 34.9218C119.921 36.4343 119.922 37.948 119.921 39.4605C119.593 39.4593 119.266 39.4617 118.94 39.4688C118.907 38.8221 118.933 38.1742 118.924 37.5275C118.326 37.5275 117.728 37.5228 117.131 37.5311C117.132 38.1742 117.132 38.8174 117.131 39.4605C116.807 39.4617 116.486 39.4617 116.165 39.4605C116.152 37.948 116.14 36.4343 116.131 34.9218Z" fill="white"/>
<g id="Group_16">
<path id="Vector_41" d="M120.338 39.4616C120.908 37.9479 121.479 36.433 122.052 34.9205C122.386 34.9217 122.72 34.9205 123.056 34.9146C123.643 36.4223 124.187 37.9467 124.757 39.4616C124.412 39.4616 124.07 39.4616 123.728 39.4604C123.613 39.124 123.498 38.7876 123.384 38.4513C122.822 38.4501 122.259 38.4501 121.698 38.4513C121.578 38.7865 121.461 39.1217 121.347 39.458C121.01 39.4616 120.673 39.4616 120.338 39.4616ZM121.969 37.7181C122.353 37.7074 122.739 37.7051 123.126 37.7086C122.941 37.1709 122.765 36.632 122.574 36.0978C122.315 36.613 122.147 37.1697 121.969 37.7181Z" fill="white"/>
</g>
<path id="Vector_42" d="M126.906 34.922C127.226 34.9209 127.548 34.9209 127.871 34.9209C128.501 35.9335 129.122 36.9522 129.757 37.9613C129.76 36.9474 129.757 35.9347 129.759 34.9209C130.069 34.9197 130.381 34.9209 130.694 34.9244C130.691 36.4357 130.69 37.9459 130.694 39.4572C130.371 39.4596 130.05 39.462 129.732 39.4726C129.07 38.473 128.467 37.4354 127.828 36.4215C127.819 37.4378 127.849 38.454 127.813 39.4703C127.507 39.462 127.204 39.4596 126.901 39.4596C126.901 37.9471 126.902 36.4346 126.906 34.922Z" fill="white"/>
<path id="Vector_43" d="M136.509 34.9232C136.841 34.9208 137.172 34.9208 137.505 34.9232C137.506 36.4357 137.506 37.9482 137.505 39.4607C137.172 39.4607 136.841 39.4607 136.509 39.4607C136.508 37.9482 136.508 36.4357 136.509 34.9232Z" fill="white"/>
<path id="Vector_44" d="M59.7282 39.9272C59.99 39.9272 60.2529 39.9272 60.5159 39.9272C60.5111 40.1274 60.5052 40.3264 60.5017 40.5266C60.2434 40.5266 59.9852 40.5266 59.7282 40.5278C59.727 40.3264 59.7282 40.1262 59.7282 39.9272Z" fill="white"/>
<path id="Vector_45" d="M72.6646 39.9273C72.9264 39.9273 73.1893 39.9261 73.4522 39.9273C73.4511 40.1263 73.4511 40.3264 73.4511 40.5278C73.1881 40.5278 72.9264 40.5278 72.6646 40.5266C72.6634 40.3264 72.6634 40.1275 72.6646 39.9273Z" fill="white"/>
<path id="Vector_46" d="M133.222 39.9273C133.482 39.9261 133.742 39.9273 134.005 39.9273C134.003 40.1286 134.002 40.33 134.003 40.5313C133.74 40.5278 133.479 40.5254 133.219 40.5242C133.219 40.3241 133.219 40.1251 133.222 39.9273Z" fill="white"/>
<path id="Vector_47" d="M88.915 42.7448C89.0939 42.7436 89.2739 42.7412 89.4551 42.7412C89.4563 42.9615 89.4587 43.1818 89.461 43.4021C89.281 43.4033 89.101 43.4057 88.9233 43.4092C88.9197 43.1866 88.9162 42.9651 88.915 42.7448Z" fill="white"/>
<path id="Vector_48" d="M150.868 42.7473C151.043 42.7438 151.22 42.7378 151.4 42.7473C151.42 42.9652 151.413 43.1844 151.415 43.4047C151.233 43.4047 151.053 43.4047 150.875 43.4058C150.87 43.1855 150.868 42.9664 150.868 42.7473Z" fill="white"/>
<path id="Vector_49" d="M53.5206 42.7402C53.7374 42.7414 53.9565 42.7438 54.1756 42.7462C54.6032 44.0561 55.0414 45.3638 55.4714 46.6737C55.9333 45.3697 56.3478 44.0502 56.7932 42.7414C57.0017 42.7414 57.2113 42.7414 57.4209 42.7426C56.8785 44.261 56.3561 45.7866 55.8006 47.3003C55.5744 47.2967 55.3494 47.2944 55.1255 47.292C54.5878 45.7759 54.0512 44.2587 53.5206 42.7402Z" fill="white"/>
<path id="Vector_50" d="M57.8544 43.399C57.8556 43.1811 57.8568 42.9644 57.858 42.7476C58.0345 42.7429 58.2098 42.7381 58.3874 42.7334C58.3945 42.9573 58.3981 43.1811 58.4017 43.4062C58.2181 43.4038 58.0357 43.4014 57.8544 43.399Z" fill="white"/>
<path id="Vector_51" d="M78.9279 42.7424C79.1411 42.7412 79.3555 42.7412 79.5698 42.7412C80.3764 43.973 81.1818 45.206 81.9884 46.4366C81.9884 45.2048 81.9873 43.973 81.9896 42.7424C82.178 42.7412 82.3675 42.7412 82.5582 42.7424C82.5593 44.2597 82.5593 45.7769 82.5582 47.2942C82.3367 47.293 82.1175 47.2942 81.8984 47.2954C81.1013 46.0908 80.3362 44.8649 79.5248 43.6698C79.4988 44.8815 79.5367 46.092 79.5047 47.3036C79.3116 47.2977 79.1197 47.2942 78.9279 47.2906C78.9267 45.7745 78.9267 44.2585 78.9279 42.7424Z" fill="white"/>
<path id="Vector_52" d="M100.961 42.7424C101.14 42.7412 101.32 42.7412 101.501 42.7412C101.502 44.2597 101.502 45.7769 101.501 47.2942C101.32 47.2942 101.14 47.2942 100.961 47.2942C100.958 45.7769 100.96 44.2597 100.961 42.7424Z" fill="white"/>
<path id="Vector_53" d="M104.176 42.7461C104.377 42.7461 104.578 42.7461 104.781 42.7461C104.783 43.7778 104.778 44.8094 104.779 45.8422C104.772 46.4025 105.279 46.8976 105.836 46.9011C106.19 46.9035 106.586 46.8834 106.87 46.6429C107.172 46.3894 107.233 45.9678 107.232 45.5959C107.235 44.646 107.229 43.696 107.233 42.7461C107.432 42.7449 107.635 42.7461 107.836 42.7461C107.835 43.6984 107.839 44.6519 107.836 45.6042C107.838 46.0732 107.755 46.5837 107.419 46.9355C107.049 47.324 106.478 47.4152 105.966 47.4057C105.462 47.395 104.916 47.2659 104.57 46.8739C104.256 46.528 104.173 46.0436 104.175 45.5935C104.174 44.6448 104.175 43.6949 104.176 42.7461Z" fill="white"/>
<path id="Vector_54" d="M112.292 43.4036C112.293 43.1797 112.298 42.957 112.308 42.7344C112.483 42.7379 112.661 42.7415 112.839 42.7462C112.833 42.9665 112.83 43.188 112.825 43.4107C112.646 43.4071 112.469 43.4048 112.292 43.4036Z" fill="white"/>
<path id="Vector_55" d="M125.494 43.3931C125.474 43.1763 125.481 42.9596 125.483 42.7428C125.66 42.7416 125.839 42.7404 126.02 42.7393C126.021 42.9619 126.023 43.1846 126.027 43.4085C125.848 43.4073 125.669 43.4073 125.494 43.3931Z" fill="white"/>
<path id="Vector_56" d="M135.697 42.7427C135.898 42.7416 136.099 42.7416 136.304 42.7416C136.309 43.3871 136.304 44.0326 136.308 44.6781C137.11 44.6793 137.911 44.6722 138.715 44.6817C138.735 44.0338 138.718 43.3847 138.725 42.7368C138.925 42.7427 139.129 42.7463 139.334 42.7534C139.317 44.2695 139.342 45.7855 139.32 47.3016C139.121 47.2981 138.922 47.2945 138.725 47.2921C138.72 46.5969 138.73 45.9016 138.718 45.2075C137.914 45.2135 137.11 45.2075 136.307 45.2099C136.305 45.9052 136.307 46.6004 136.305 47.2957C136.1 47.2945 135.898 47.2945 135.697 47.2957C135.697 45.7773 135.697 44.26 135.697 42.7427Z" fill="white"/>
<path id="Vector_57" d="M62.8717 43.0268C63.0517 43.0256 63.2318 43.0256 63.413 43.0268C63.413 43.3477 63.413 43.6687 63.413 43.9909C63.6309 43.9921 63.85 43.9933 64.0703 43.9956C64.0703 44.1164 64.0703 44.3557 64.0703 44.4765C63.85 44.4789 63.6309 44.4813 63.4118 44.486C63.4307 45.2144 63.3786 45.9476 63.4367 46.6748C63.5978 46.8501 63.8583 46.798 64.0703 46.83C64.0703 46.9472 64.0703 47.1818 64.0692 47.299C63.6712 47.2872 63.0375 47.4092 62.9037 46.8999C62.8267 46.098 62.8942 45.2867 62.8705 44.4813C62.6834 44.4789 62.4974 44.4789 62.3115 44.4789C62.3103 44.3166 62.3091 44.1555 62.3103 43.9945C62.4962 43.9933 62.6834 43.9921 62.8705 43.9921C62.8705 43.6699 62.8717 43.3477 62.8717 43.0268Z" fill="white"/>
<path id="Vector_58" d="M127.079 43.0268C127.257 43.0256 127.439 43.0256 127.621 43.0268C127.62 43.3454 127.619 43.6652 127.618 43.9862C127.837 43.9909 128.056 43.9933 128.278 43.998C128.278 44.1164 128.277 44.3545 128.277 44.4741C128.055 44.4777 127.834 44.4824 127.615 44.4907C127.644 45.2144 127.583 45.9417 127.645 46.663C127.788 46.8631 128.066 46.7933 128.28 46.8276C128.276 46.9851 128.276 47.1415 128.276 47.3002C127.865 47.2943 127.199 47.4032 127.099 46.856C127.048 46.0672 127.094 45.2725 127.079 44.4824C126.892 44.4801 126.702 44.4777 126.52 44.4777C126.518 44.3569 126.518 44.1164 126.518 43.9956C126.702 43.9933 126.892 43.9921 127.079 43.9909C127.077 43.6687 127.077 43.3477 127.079 43.0268Z" fill="white"/>
<path id="Vector_59" d="M87.0898 43.0269C87.2698 43.0269 87.4499 43.0269 87.6311 43.028C87.6311 43.3502 87.6311 43.6724 87.6335 43.9957C87.8514 43.9945 88.0682 43.9934 88.2885 43.9934C88.2885 44.1154 88.2885 44.3582 88.2873 44.4802C88.067 44.479 87.8502 44.479 87.6323 44.479C87.6453 45.1967 87.6039 45.9181 87.65 46.6358C87.7626 46.8739 88.0788 46.7886 88.292 46.8301C88.2885 46.9852 88.2873 47.1428 88.2873 47.3003C87.8893 47.2873 87.2568 47.4104 87.1218 46.8988C87.0448 46.0969 87.1123 45.2856 87.0898 44.4802C86.9015 44.479 86.7143 44.4778 86.5296 44.4778C86.5296 44.357 86.5284 44.1154 86.5284 43.9945C86.7143 43.9934 86.9015 43.9934 87.0898 43.9934C87.0898 43.6712 87.0898 43.349 87.0898 43.0269Z" fill="white"/>
<path id="Vector_60" d="M57.8521 44.0052C58.0333 43.9981 58.2157 43.9957 58.3981 43.9922C58.3981 45.0925 58.3993 46.194 58.3969 47.2956C58.2169 47.2944 58.0369 47.2944 57.8568 47.2944C57.8533 46.1976 57.8616 45.1008 57.8521 44.0052Z" fill="white"/>
<g id="Group_17">
<path id="Vector_61" d="M59.5754 44.3406C60.1309 43.7827 61.1673 43.7827 61.679 44.3987C62.0201 44.7931 62.1077 45.3284 62.1326 45.8318C61.2917 45.8448 60.4507 45.8318 59.611 45.8401C59.65 46.122 59.6891 46.4335 59.9094 46.6408C60.3844 47.1382 61.4089 46.9997 61.5368 46.2499C61.7181 46.2511 61.8993 46.2582 62.0805 46.2701C61.9526 46.7201 61.6731 47.1607 61.2052 47.31C60.6035 47.4853 59.8549 47.3787 59.4463 46.8635C58.8967 46.1386 58.9086 44.9897 59.5754 44.3406ZM59.5873 45.3166C60.2375 45.3462 60.889 45.332 61.5404 45.3261C61.4658 44.8144 61.0382 44.3323 60.4863 44.4022C59.9876 44.4093 59.6808 44.8748 59.5873 45.3166Z" fill="white"/>
</g>
<path id="Vector_62" d="M65.1802 44.4245C65.481 44.1367 65.8434 43.8667 66.2864 43.9117C66.8502 43.8631 67.3749 44.3215 67.3797 44.8924C67.4033 45.6907 67.3808 46.4914 67.3879 47.2897C67.2067 47.2897 67.0267 47.2897 66.8478 47.2897C66.8407 46.5245 66.855 45.7594 66.8443 44.9942C66.8692 44.633 66.5103 44.3428 66.1621 44.3961C65.6836 44.3677 65.2429 44.7621 65.2098 45.2382C65.1754 45.9228 65.2086 46.6098 65.1956 47.2956C65.0155 47.2944 64.8355 47.2944 64.6566 47.2956C64.6602 46.1941 64.6649 45.0937 64.672 43.9922C64.8 43.9934 65.0558 43.9946 65.1837 43.9958C65.1825 44.1024 65.1814 44.3168 65.1802 44.4245Z" fill="white"/>
<g id="Group_18">
<path id="Vector_63" d="M68.8649 44.0302C69.3825 43.8549 70.0032 43.8431 70.4888 44.1155C70.9791 44.4459 70.7849 45.1092 70.8216 45.6055C70.8583 46.0165 70.7269 46.4772 70.9152 46.8574C70.9791 46.8681 71.1059 46.8906 71.1698 46.9013C71.1331 47.0754 71.1888 47.3881 70.9199 47.3632C70.5895 47.471 70.2862 47.2365 70.2732 46.9001C69.816 47.375 69.0438 47.5385 68.4563 47.2175C67.9044 46.9297 67.8854 46.0331 68.3971 45.6967C68.8957 45.3698 69.5294 45.4527 70.0683 45.2454C70.3857 45.108 70.2874 44.6058 70.0044 44.4862C69.5329 44.2837 68.7749 44.3867 68.7027 45.0014C68.5191 45.0097 68.3367 45.0133 68.1543 45.0204C68.1898 44.5893 68.4373 44.1664 68.8649 44.0302ZM68.891 45.9277C68.5191 46.0627 68.4717 46.6786 68.859 46.8243C69.289 46.9925 69.8421 46.8717 70.124 46.4938C70.2862 46.2356 70.2258 45.9111 70.2661 45.6233C69.8208 45.7808 69.3316 45.7571 68.891 45.9277Z" fill="white"/>
</g>
<path id="Vector_64" d="M72.1506 44.4295C72.622 43.8195 73.7282 43.675 74.1345 44.4271C74.6106 43.7508 75.904 43.6844 76.2203 44.5337C76.3186 45.4469 76.2357 46.3755 76.2617 47.2934C76.0805 47.2934 75.9005 47.2934 75.7216 47.2946C75.7157 46.5709 75.7264 45.8484 75.7192 45.1259C75.7181 44.8949 75.6719 44.6201 75.4587 44.4899C75.0133 44.2364 74.311 44.4508 74.2292 44.9992C74.1878 45.756 74.2399 46.5164 74.2103 47.2745C74.0338 47.3076 73.8526 47.2946 73.6749 47.2981C73.6702 46.5756 73.6797 45.8531 73.6737 45.1306C73.6761 44.8784 73.6157 44.5728 73.361 44.4591C72.8328 44.2198 72.1766 44.6746 72.1861 45.2467C72.1671 45.9301 72.1896 46.6135 72.179 47.297C71.9989 47.2958 71.8189 47.2958 71.6412 47.2958C71.633 46.1978 71.646 45.0987 71.6341 44.0007C71.8083 43.9971 71.9835 43.9948 72.1588 43.9936C72.1565 44.1025 72.1517 44.3205 72.1506 44.4295Z" fill="white"/>
<g id="Group_19">
<path id="Vector_65" d="M83.3979 45.0191C83.4216 44.4695 83.8504 44.017 84.394 43.9507C84.9673 43.8642 85.826 43.8761 86.0333 44.55C86.1162 45.314 85.9978 46.0874 86.102 46.8502C86.1766 46.8691 86.3247 46.9059 86.3993 46.9248C86.3851 47.0551 86.372 47.1866 86.3602 47.3192C85.9954 47.4483 85.5193 47.3725 85.4754 46.9094C85.0253 47.3642 84.2922 47.5265 83.7118 47.2399C83.1279 46.9615 83.1279 46.0104 83.6668 45.6835C84.1477 45.3898 84.7411 45.4407 85.2634 45.2725C85.614 45.1683 85.5583 44.6448 85.2705 44.5027C84.7861 44.2764 84.0233 44.3961 83.9321 45.0167C83.7533 45.0179 83.5756 45.0191 83.3979 45.0191ZM84.1382 45.9204C83.7805 46.0448 83.6976 46.6216 84.0506 46.8005C84.4947 47.0136 85.1106 46.8763 85.3878 46.4546C85.5169 46.1988 85.4695 45.8955 85.4991 45.6184C85.0585 45.7795 84.5764 45.7605 84.1382 45.9204Z" fill="white"/>
</g>
<g id="Group_20">
<path id="Vector_66" d="M91.2045 44.0055C91.8915 43.7733 92.7822 44.0363 93.1032 44.7209C93.449 45.4007 93.3827 46.2831 92.903 46.8825C92.3214 47.5102 91.2424 47.5374 90.6182 46.9547C89.7986 46.1185 89.9964 44.3679 91.2045 44.0055ZM91.4201 44.4532C90.6893 44.7292 90.546 45.7241 90.8741 46.3554C91.1098 46.8718 91.8252 47.0637 92.2859 46.7297C92.8248 46.3388 92.8994 45.5334 92.6247 44.9637C92.4257 44.5207 91.8785 44.2791 91.4201 44.4532Z" fill="white"/>
</g>
<path id="Vector_67" d="M93.956 43.9983C94.1253 43.9947 94.2959 43.9924 94.4688 43.99C94.4665 44.1558 94.4653 44.3228 94.4641 44.4898C94.9154 43.6951 96.3841 43.682 96.6221 44.6497C96.7406 45.5203 96.6435 46.411 96.6742 47.291C96.493 47.2898 96.313 47.2898 96.1341 47.2898C96.1223 46.4903 96.1519 45.6885 96.1223 44.889C96.0927 44.5585 95.7374 44.3489 95.4259 44.3974C94.9568 44.3785 94.5328 44.7682 94.4973 45.2337C94.4641 45.9194 94.4949 46.6064 94.4842 47.2934C94.303 47.2934 94.123 47.2934 93.9429 47.2946C93.9453 46.1954 93.9548 45.0974 93.956 43.9983Z" fill="white"/>
<g id="Group_21">
<path id="Vector_68" d="M98.1275 44.0384C98.6451 43.862 99.2741 43.8418 99.7609 44.1225C100.218 44.4175 100.074 45.0239 100.095 45.4823C100.121 45.9359 100.02 46.4144 100.165 46.8527C100.231 46.8669 100.363 46.8941 100.428 46.9083C100.429 47.0055 100.43 47.2009 100.43 47.2992C100.213 47.3478 99.967 47.4401 99.7621 47.3087C99.6176 47.2269 99.6164 47.0362 99.5548 46.9024C99.0952 47.3833 98.3111 47.5396 97.7237 47.2056C97.1764 46.9178 97.1539 46.0318 97.668 45.7002C98.1631 45.3757 98.792 45.455 99.3297 45.2537C99.6495 45.1175 99.5583 44.6141 99.2729 44.4909C98.7956 44.2872 98.0435 44.395 97.9629 45.0121C97.7829 45.0156 97.604 45.018 97.4264 45.0215C97.4655 44.5975 97.7035 44.177 98.1275 44.0384ZM98.2069 45.9134C97.822 46.0295 97.7367 46.6466 98.124 46.8136C98.5764 47.0078 99.1959 46.8645 99.4529 46.4251C99.556 46.1704 99.524 45.8874 99.5524 45.6209C99.1154 45.7713 98.6428 45.7665 98.2069 45.9134Z" fill="white"/>
</g>
<path id="Vector_69" d="M109.227 44.4339C109.523 44.1295 109.9 43.8653 110.35 43.9115C110.906 43.8689 111.417 44.3261 111.43 44.8851C111.456 45.6858 111.431 46.4877 111.439 47.2895C111.256 47.2895 111.075 47.2895 110.893 47.2907C110.883 46.4924 110.909 45.6941 110.884 44.897C110.861 44.5819 110.537 44.3592 110.235 44.396C109.743 44.3569 109.283 44.7572 109.26 45.2499C109.229 45.931 109.259 46.6132 109.248 47.2943C109.071 47.2943 108.894 47.2943 108.719 47.2955C108.71 46.1975 108.727 45.1007 108.709 44.0039C108.881 43.998 109.055 43.9944 109.23 43.9909C109.229 44.1022 109.228 44.3225 109.227 44.4339Z" fill="white"/>
<path id="Vector_70" d="M112.296 43.9957C112.472 43.9933 112.65 43.9909 112.831 43.9897C112.844 45.0913 112.833 46.1916 112.837 47.2931C112.656 47.2931 112.476 47.2943 112.298 47.2955C112.292 46.1952 112.297 45.096 112.296 43.9957Z" fill="white"/>
<g id="Group_22">
<path id="Vector_71" d="M117.044 44.3617C117.588 43.7931 118.619 43.7742 119.149 44.37C119.509 44.7656 119.604 45.3187 119.625 45.8363C118.784 45.8446 117.942 45.8244 117.102 45.8481C117.114 46.3764 117.481 46.9224 118.053 46.9236C118.505 47.0113 118.917 46.7057 119.039 46.2793C119.214 46.2686 119.392 46.2615 119.571 46.2544C119.464 46.7163 119.169 47.1546 118.704 47.3085C118.095 47.4886 117.335 47.3761 116.929 46.8478C116.4 46.1288 116.409 45.0131 117.044 44.3617ZM117.105 45.3258C117.756 45.3258 118.41 45.359 119.061 45.3057C118.957 44.8295 118.58 44.3593 118.05 44.3996C117.527 44.3794 117.179 44.8556 117.105 45.3258Z" fill="white"/>
</g>
<path id="Vector_72" d="M120.12 43.9945C120.289 43.9933 120.459 43.9933 120.632 43.9933C120.631 44.2053 120.629 44.4174 120.629 44.6317C120.883 44.1971 121.331 43.9081 121.841 43.9033C121.84 44.0999 121.84 44.2977 121.841 44.4944C121.376 44.5086 120.866 44.7301 120.737 45.2169C120.554 45.8884 120.687 46.5991 120.647 47.2872C120.467 47.2896 120.291 47.2932 120.114 47.2967C120.099 46.1964 120.12 45.0949 120.12 43.9945Z" fill="white"/>
<path id="Vector_73" d="M122.423 44.1923C122.926 43.8216 123.639 43.8204 124.196 44.0715C124.534 44.2196 124.673 44.5903 124.729 44.9302C124.55 44.9314 124.373 44.9314 124.197 44.9314C124.039 44.3771 123.333 44.2658 122.882 44.5133C122.635 44.6306 122.657 45.0167 122.904 45.1245C123.425 45.4111 124.084 45.3389 124.572 45.7001C125.03 46.0507 124.93 46.8443 124.443 47.1214C123.874 47.4495 123.119 47.4744 122.542 47.1558C122.209 46.9793 122.071 46.6062 122.02 46.2556C122.199 46.2532 122.379 46.2532 122.56 46.2532C122.689 46.9213 123.534 46.9923 124.051 46.7637C124.363 46.6299 124.341 46.1384 124.041 46.0069C123.519 45.7653 122.895 45.8043 122.417 45.4656C122.012 45.1683 122.029 44.4908 122.423 44.1923Z" fill="white"/>
<path id="Vector_74" d="M125.477 44.0064C125.658 43.9993 125.842 43.9969 126.026 43.9922C126.023 45.0937 126.027 46.194 126.024 47.2944C125.842 47.2944 125.662 47.2944 125.483 47.2944C125.478 46.1988 125.49 45.102 125.477 44.0064Z" fill="white"/>
<path id="Vector_75" d="M128.531 43.9614C128.733 43.9614 128.939 43.9614 129.144 43.9625C129.455 44.8781 129.83 45.7723 130.095 46.7033C130.405 45.7925 130.725 44.8852 131.026 43.9708C131.219 43.9661 131.414 43.9614 131.61 43.959C131.131 45.2311 130.657 46.5055 130.17 47.7752C130.03 48.1862 129.719 48.5131 129.32 48.6801H129.104C129.039 48.6541 128.909 48.602 128.843 48.5759C128.84 48.4219 128.839 48.268 128.838 48.114C129.061 48.0796 129.347 48.1448 129.515 47.9517C129.663 47.7409 129.738 47.4886 129.838 47.2529C129.401 46.1561 128.965 45.0593 128.531 43.9614Z" fill="white"/>
<g id="Group_23">
<path id="Vector_76" d="M140.562 44.1924C141.005 43.8749 141.591 43.8643 142.109 43.9638C142.447 44.0254 142.777 44.2848 142.803 44.6472C142.847 45.3188 142.782 45.9927 142.83 46.6643C142.808 46.8585 143.005 46.8893 143.154 46.8976C143.137 47.0433 143.122 47.189 143.109 47.3359C142.744 47.4413 142.277 47.3655 142.264 46.9C141.812 47.3726 141.049 47.536 140.464 47.2221C139.899 46.9391 139.881 46.0223 140.406 45.6895C140.886 45.3851 141.481 45.4396 142.007 45.2702C142.368 45.1743 142.319 44.6342 142.017 44.4932C141.531 44.2729 140.775 44.3937 140.687 45.0155C140.508 45.0155 140.33 45.0155 140.154 45.0144C140.202 44.7076 140.295 44.3807 140.562 44.1924ZM140.974 45.898C140.598 45.9939 140.459 46.5719 140.807 46.7839C141.241 47.0184 141.852 46.887 142.151 46.4902C142.307 46.232 142.249 45.9086 142.289 45.6232C141.862 45.7677 141.403 45.7688 140.974 45.898Z" fill="white"/>
</g>
<path id="Vector_77" d="M144.138 44.4827C144.612 43.6986 146.069 43.6808 146.31 44.6592C146.423 45.5274 146.329 46.4121 146.36 47.2886C146.176 47.2886 145.994 47.2898 145.814 47.2922C145.789 46.456 145.859 45.6127 145.782 44.78C145.473 44.0753 144.318 44.4176 144.235 45.1187C144.159 45.8413 144.228 46.572 144.198 47.2969C144.018 47.2957 143.838 47.2946 143.662 47.2934C143.654 46.1942 143.645 45.0939 143.638 43.9947C143.808 43.9935 143.98 43.9947 144.155 43.9947C144.15 44.1167 144.142 44.3607 144.138 44.4827Z" fill="white"/>
<g id="Group_24">
<path id="Vector_78" d="M148.057 44.0123C148.743 43.7695 149.641 44.0241 149.971 44.7064C150.315 45.3661 150.265 46.2177 149.827 46.823C149.184 47.626 147.726 47.5419 147.241 46.6121C146.744 45.7345 147.01 44.338 148.057 44.0123ZM148.272 44.4588C147.586 44.7383 147.451 45.6551 147.701 46.2793C147.919 46.8644 148.727 47.0942 149.213 46.6962C149.73 46.2592 149.777 45.4312 149.45 44.8686C149.225 44.4636 148.697 44.2966 148.272 44.4588Z" fill="white"/>
</g>
<path id="Vector_79" d="M88.9186 43.9969C89.0962 43.9946 89.2763 43.9934 89.4563 43.9922C89.4563 45.0961 89.4717 46.2 89.4492 47.3039C89.2703 47.2991 89.0939 47.2956 88.9186 47.292C88.9174 46.1929 88.9174 45.0949 88.9186 43.9969Z" fill="white"/>
<path id="Vector_80" d="M113.356 43.9957C113.554 43.9933 113.753 43.9921 113.953 43.9897C114.276 44.9029 114.563 45.8292 114.896 46.7388C115.183 45.8209 115.49 44.9089 115.787 43.9945C115.976 43.9933 116.166 43.9933 116.357 43.9945C115.964 45.0925 115.552 46.1845 115.169 47.286C114.971 47.2908 114.775 47.2931 114.58 47.2979C114.169 46.1987 113.763 45.0972 113.356 43.9957Z" fill="white"/>
<path id="Vector_81" d="M150.872 43.9982C151.048 43.9947 151.227 43.9911 151.407 43.9888C151.415 45.0938 151.425 46.2001 151.402 47.3052C151.222 47.2993 151.046 47.2945 150.87 47.291C150.874 46.193 150.87 45.095 150.872 43.9982Z" fill="white"/>
<path id="Vector_82" d="M132.186 46.5874C132.419 46.5874 132.655 46.5874 132.891 46.5886C132.866 47.0304 132.998 47.548 132.688 47.9199C132.566 48.0869 132.372 48.1651 132.182 48.2255C132.187 48.152 132.194 48.004 132.199 47.9294C132.429 47.7884 132.539 47.5515 132.592 47.2957C132.492 47.291 132.288 47.2815 132.187 47.2767C132.185 47.047 132.184 46.8172 132.186 46.5874Z" fill="white"/>
</g>
<path id="Vector_83" d="M124.197 0H137.593C137.592 0.79357 137.593 1.58714 137.593 2.38071C137.232 2.38071 136.873 2.38071 136.514 2.38071C135.264 2.38071 126.592 2.38071 125.28 2.38071C124.918 2.38071 124.557 2.38071 124.197 2.38071C124.196 1.58714 124.197 0.79357 124.197 0Z" fill="#FCBA12"/>
<g id="Group_25">
<path id="Vector_84" d="M124.197 5.41895C124.557 5.41895 124.918 5.41894 125.28 5.42013C125.278 5.86074 125.278 6.30253 125.28 6.74433C129.025 6.74551 132.769 6.7467 136.514 6.74433C136.514 6.30253 136.514 5.86074 136.514 5.41895C136.873 5.41895 137.232 5.41894 137.592 5.42013C137.592 6.2137 137.593 7.00727 137.592 7.80084C135.492 7.79966 133.392 7.80203 131.293 7.79966C131.549 7.99746 131.844 8.2071 131.919 8.54466C132.085 9.09187 131.732 9.72081 131.179 9.86412C130.508 10.0856 129.753 9.47444 129.823 8.77208C129.831 8.31844 130.18 7.98443 130.555 7.78544C128.436 7.81979 126.316 7.79137 124.197 7.80084C124.197 7.00609 124.196 6.21252 124.197 5.41895ZM130.727 8.18341C130.273 8.27817 130.062 8.88578 130.362 9.23993C130.649 9.64856 131.358 9.54551 131.514 9.06818C131.722 8.59204 131.223 8.03062 130.727 8.18341Z" fill="#FCBA12"/>
</g>
<path id="Vector_85" d="M130.946 9.91846C131.391 10.885 131.684 11.9154 132.068 12.908C132.678 14.5982 133.286 16.2895 133.898 17.9797C136.436 17.9821 138.973 17.9738 141.511 17.9833C140.643 18.7141 139.743 19.4058 138.847 20.101C138.715 19.7398 138.703 19.3548 138.719 18.9758C137.852 19.0635 137.034 19.3844 136.201 19.6166C134.457 20.1342 132.706 20.634 130.961 21.1504C130.944 19.7161 130.958 18.2817 130.929 16.8474C131.016 14.5389 130.89 12.2269 130.946 9.91846Z" fill="#FCBA12"/>
<path id="Vector_86" d="M121.157 17.7771C123.593 17.7511 126.032 17.8091 128.468 17.8245C129.208 18.9485 130.053 20.0015 130.777 21.1362C129.529 20.7536 128.307 20.2952 127.072 19.8748C126.032 19.4733 124.966 19.1487 123.918 18.7709C122.997 18.4369 122.046 18.1881 121.157 17.7771Z" fill="#FCBA12"/>
<path id="Vector_87" d="M130.793 21.333C131.049 21.333 131.31 21.3555 131.555 21.4432C132.887 21.8838 134.235 22.2723 135.571 22.7022C136.196 25.3032 136.876 27.89 137.483 30.4946C137.437 30.4555 137.344 30.3762 137.298 30.3359C136.86 29.5115 136.257 28.7926 135.742 28.0179C135.072 27.0858 134.434 26.13 133.741 25.2156C132.863 23.9388 131.919 22.707 131.09 21.3993C131.021 21.4633 130.953 21.5261 130.888 21.5912C130.903 22.4855 130.888 23.3797 130.881 24.274C130.874 24.8212 130.864 25.3672 130.867 25.9144C128.61 27.4186 126.361 28.9347 124.096 30.4259C124.133 30.266 124.183 30.1097 124.243 29.9581C124.697 29.6359 124.969 29.1432 125.312 28.7168C126.098 27.6721 126.911 26.6464 127.671 25.5816C128.695 24.1543 129.828 22.8005 130.793 21.333Z" fill="#FCBA12"/>
<g id="Group_26">
<path id="Vector_88" d="M125.281 2.38086C129.025 2.38086 132.769 2.38086 136.513 2.38086C136.514 2.73619 136.514 3.09152 136.514 3.44566C136.514 4.21081 136.514 4.97714 136.514 5.74228C136.514 6.07629 136.514 6.4103 136.514 6.74431C132.769 6.74668 129.025 6.7455 125.28 6.74431C125.278 6.4103 125.278 6.07629 125.28 5.74347C125.28 4.97714 125.28 4.21081 125.28 3.44566C125.278 3.09033 125.278 2.735 125.281 2.38086Z" fill="#BF1F2E"/>
</g>
<g id="Group_27">
<path id="Vector_89" d="M128.679 17.2075C129.419 14.7734 130.156 12.3371 130.946 9.91846C130.89 12.2269 131.016 14.5389 130.929 16.8474C130.855 16.286 130.839 15.7198 130.814 15.1548C130.06 15.7944 129.435 16.5702 128.679 17.2075Z" fill="#F77914"/>
<path id="Vector_90" d="M120.946 17.7275C120.999 17.7406 121.104 17.7643 121.157 17.7773C122.046 18.1883 122.997 18.437 123.917 18.771C124.966 19.1489 126.032 19.4734 127.072 19.8749C127.014 19.8868 126.895 19.9093 126.836 19.9199C127.145 20.7348 127.441 21.5533 127.732 22.3741C127.266 22.6275 126.765 22.804 126.265 22.9793C124.495 21.2264 122.696 19.4995 120.946 17.7275Z" fill="#F77914"/>
<path id="Vector_91" d="M136.201 19.6164C137.034 19.3842 137.852 19.0632 138.719 18.9756C138.703 19.3546 138.715 19.7395 138.847 20.1008L138.852 20.1174C137.985 20.7937 137.127 21.4807 136.264 22.1605C136.212 21.3125 136.291 20.462 136.201 19.6164Z" fill="#F77914"/>
<path id="Vector_92" d="M130.881 24.2739C131.841 24.5653 132.743 25.0651 133.741 25.2156C134.434 26.1299 135.072 27.0858 135.742 28.0179C136.257 28.7925 136.86 29.5115 137.298 30.3359C135.135 28.9193 133.022 27.4233 130.868 25.9937L130.866 25.9144C130.864 25.3672 130.874 24.8211 130.881 24.2739Z" fill="#F77914"/>
<path id="Vector_93" d="M125.638 25.1099L125.655 25.1158C126.308 25.3503 127.011 25.3693 127.671 25.5813C126.91 26.6461 126.098 27.6718 125.311 28.7165C124.969 29.1429 124.697 29.6356 124.243 29.9577C124.672 28.3327 125.193 26.7314 125.638 25.1099Z" fill="#F77914"/>
</g>
<g id="Group_28">
<path id="Vector_94" d="M128.679 17.2074C129.435 16.5702 130.06 15.7944 130.815 15.1548C130.839 15.7198 130.855 16.2859 130.929 16.8473C130.958 18.2817 130.944 19.716 130.961 21.1504C132.706 20.634 134.457 20.1341 136.201 19.6165C136.291 20.4622 136.212 21.3127 136.264 22.1607C136.036 22.3455 135.806 22.5267 135.571 22.702C134.235 22.272 132.887 21.8836 131.555 21.4429C131.31 21.3553 131.049 21.3328 130.793 21.3328C129.828 22.8003 128.696 24.1541 127.671 25.5814C127.011 25.3693 126.308 25.3504 125.655 25.1159C125.838 24.3981 126.067 23.6934 126.265 22.9792C126.765 22.8039 127.266 22.6274 127.733 22.3739C127.441 21.5531 127.145 20.7346 126.836 19.9198C126.895 19.9091 127.014 19.8866 127.072 19.8748C128.307 20.2952 129.529 20.7536 130.777 21.1362C130.053 20.0015 129.208 18.9485 128.468 17.8245C128.537 17.6184 128.584 17.404 128.679 17.2074Z" fill="#F46218"/>
<path id="Vector_95" d="M130.888 21.5908C130.953 21.5257 131.021 21.4629 131.091 21.3989C131.92 22.7065 132.864 23.9384 133.741 25.2152C132.743 25.0647 131.841 24.5649 130.881 24.2735C130.888 23.3793 130.903 22.4851 130.888 21.5908Z" fill="#F46218"/>
</g>
</g>
</svg>
