<svg width="186" height="60" viewBox="0 0 186 60" fill="none" xmlns="http://www.w3.org/2000/svg">
<path d="M29.0654 0H30.7044C35.6551 0.15207 40.572 1.5207 44.8469 4.0214C49.7976 6.87694 53.9035 11.1856 56.5225 16.2546C59.1583 21.3236 60.2904 27.1698 59.7328 32.8471C59.3104 37.3078 57.8573 41.684 55.5256 45.5027C53.1093 49.4734 49.7638 52.8865 45.81 55.3534C41.89 57.8203 37.3955 59.341 32.7996 59.7803C32.0899 59.831 31.3803 59.9155 30.6706 60H29.4709C26.3282 59.7972 23.1854 59.3579 20.2116 58.3103C15.0412 56.5362 10.3777 53.3089 6.89701 49.1186C3.85561 45.4182 1.69284 41.0082 0.679041 36.3447C-0.638897 30.2788 -0.0306177 23.8074 2.43629 18.0963C4.9032 12.3683 9.21185 7.45142 14.5681 4.24106C18.9274 1.60518 23.9795 0.168966 29.0654 0ZM27.6292 1.72346C23.6754 2.04449 19.7892 3.21036 16.3253 5.13658C11.4591 7.80625 7.4208 11.9459 4.86941 16.8798C2.36871 21.6615 1.30422 27.1867 1.81112 32.5598C2.23353 37.2571 3.87251 41.8361 6.50838 45.7561C9.61737 50.3858 14.1119 54.0524 19.2823 56.1645C23.9119 58.0569 29.0485 58.699 33.9823 57.9555C38.6289 57.2796 43.1065 55.421 46.8745 52.5993C50.1524 50.1493 52.9066 46.9727 54.8497 43.3568C57.3335 38.7947 58.5163 33.5229 58.229 28.3357C57.9925 23.875 56.6576 19.4818 54.3935 15.6294C51.6055 10.8645 47.3983 6.94452 42.4476 4.5283C37.8686 2.24725 32.6982 1.30104 27.6292 1.72346Z" fill="#038141"/>
<path d="M121.744 0H122.47C122.673 0.0337933 122.892 0.0844834 123.095 0.118277C123.028 0.388623 122.96 0.658969 122.876 0.929316C122.673 0.675866 122.555 0.168967 122.132 0.236553C121.676 0.20276 121.27 0.692763 121.456 1.13208C121.71 1.55449 122.234 1.72346 122.487 2.12898C122.74 2.58519 122.555 3.24416 122.081 3.48071C121.541 3.78485 120.882 3.61588 120.29 3.5483C120.358 3.26105 120.426 2.99071 120.493 2.70346C120.645 2.92312 120.747 3.19347 120.966 3.37933C121.406 3.58209 122.081 3.32864 122.081 2.78795C122.132 1.9938 121 1.92622 120.899 1.18277C120.797 0.608279 121.254 0.168966 121.744 0Z" fill="#038141"/>
<path d="M135.447 0H135.649C135.43 0.861729 135.261 1.74036 135.041 2.60208C134.991 2.83864 134.906 3.07519 134.974 3.31174C135.193 3.36243 135.43 3.41312 135.649 3.46381C135.024 3.70037 134.315 3.5314 133.656 3.58209C133.656 3.5483 133.656 3.46381 133.656 3.43002C133.875 3.39623 134.112 3.36243 134.332 3.29485C134.501 3.07519 134.517 2.77105 134.602 2.5176C134.737 1.87553 134.923 1.25035 134.974 0.591383C134.669 0.692763 134.365 0.794143 134.061 0.878626C134.365 0.388623 134.991 0.287243 135.447 0Z" fill="#038141"/>
<path d="M137.812 0H138.268C138.606 0.10138 138.911 0.371727 138.978 0.743453C139.198 1.87553 138.539 3.12588 137.44 3.5145C137.136 3.61588 136.782 3.73416 136.528 3.48071C136.917 3.34554 137.339 3.26105 137.677 3.0414C138.066 2.78795 138.235 2.34863 138.454 1.96001C137.981 2.14587 137.288 2.38243 136.917 1.85863C136.494 1.13208 137.001 0.135173 137.812 0ZM137.947 0.219656C137.339 0.30414 137.136 1.06449 137.272 1.58829C137.424 2.0276 138.032 1.97691 138.336 1.75725C138.64 1.57139 138.573 1.16587 138.573 0.861729C138.556 0.523796 138.302 0.168966 137.947 0.219656Z" fill="#038141"/>
<path d="M140.887 0H141.479C141.766 0.135173 141.986 0.405519 141.986 0.726556C142.036 1.57139 141.817 2.45001 141.31 3.12588C140.972 3.58209 140.279 3.83554 139.789 3.49761C139.417 3.17657 139.502 2.60208 139.553 2.16277C139.671 1.31794 140.026 0.35483 140.887 0ZM141.023 0.25345C140.634 0.422416 140.465 0.861729 140.313 1.23346C140.127 1.85863 139.907 2.5007 139.992 3.15967C140.059 3.56519 140.6 3.46381 140.769 3.21036C141.293 2.5176 141.479 1.58829 141.529 0.743453C141.597 0.422416 141.327 0.10138 141.023 0.25345Z" fill="#038141"/>
<path d="M144.689 0H144.824C144.858 0.0506899 144.926 0.168967 144.943 0.236553C144.081 0.321037 143.405 0.912419 143.084 1.68966C143.49 1.57139 143.929 1.35173 144.334 1.57139C144.791 1.80794 144.807 2.41622 144.655 2.83864C144.436 3.5314 143.473 3.88623 142.864 3.48071C142.341 3.0245 142.459 2.23036 142.645 1.65587C142.932 0.760349 143.794 0.185863 144.689 0ZM143.473 1.80794C142.746 1.92622 142.662 3.21036 143.337 3.43002C144.047 3.56519 144.385 2.66967 144.216 2.09518C144.132 1.79105 143.743 1.75725 143.473 1.80794Z" fill="#038141"/>
<path d="M123.889 0.0844116C124.008 0.0844116 124.244 0.0844116 124.363 0.0844116C124.346 0.202688 124.295 0.456138 124.261 0.574415C124.092 0.574415 123.923 0.591311 123.771 0.591311C123.805 0.422345 123.839 0.253378 123.889 0.0844116Z" fill="#038141"/>
<path d="M125.343 1.84174C125.664 1.50381 126.035 0.980015 126.593 1.09829C126.948 1.16588 126.998 1.60519 126.931 1.90933C126.829 2.39933 126.66 2.87244 126.593 3.37934C126.728 3.46382 126.846 3.54831 126.982 3.63279C126.66 3.63279 126.356 3.61589 126.035 3.61589C126.154 2.88934 126.576 2.16278 126.373 1.43622C126.289 1.41933 126.137 1.40243 126.052 1.40243C125.224 1.82485 125.19 2.83865 125.005 3.63279C124.853 3.63279 124.7 3.61589 124.531 3.61589C124.684 2.88934 124.92 2.16278 124.988 1.41933C124.92 1.35174 124.768 1.23346 124.7 1.16588C124.954 1.16588 125.207 1.16588 125.478 1.16588C125.444 1.30105 125.376 1.65588 125.343 1.84174Z" fill="#038141"/>
<path d="M128.333 1.25034C128.756 1.01379 129.246 1.04758 129.702 1.13207C129.6 1.35172 129.651 1.74035 129.313 1.77414C129.263 1.53759 129.161 1.13207 128.806 1.28414C128.147 1.50379 127.978 2.31483 127.961 2.92311C127.928 3.37932 128.519 3.43001 128.806 3.22725C128.992 3.17656 129.212 2.83863 129.381 3.14277C129.043 3.39622 128.688 3.68346 128.232 3.64967C127.843 3.66656 127.522 3.31173 127.522 2.92311C127.505 2.29794 127.759 1.58828 128.333 1.25034Z" fill="#038141"/>
<path d="M129.905 3.17652C129.584 2.14582 130.462 0.844778 131.594 1.06443C132.101 1.11512 132.135 1.80789 131.814 2.09513C131.392 2.41617 130.817 2.43306 130.31 2.48375C130.344 2.771 130.259 3.19341 130.614 3.31169C131.054 3.42997 131.425 3.09203 131.78 2.90617C131.662 3.68342 130.226 3.98756 129.905 3.17652ZM130.361 2.2641C130.733 2.2472 131.155 2.28099 131.442 2.01065C131.696 1.79099 131.594 1.18271 131.172 1.30099C130.716 1.41926 130.513 1.87547 130.361 2.2641Z" fill="#038141"/>
<path d="M123.247 1.13213C123.535 1.13213 123.822 1.13213 124.109 1.11523C123.957 1.87558 123.754 2.61904 123.653 3.37939C123.754 3.44697 123.957 3.56525 124.058 3.61594C123.737 3.61594 123.433 3.61594 123.112 3.61594C123.247 2.85559 123.518 2.12903 123.568 1.36868C123.467 1.31799 123.315 1.19972 123.247 1.13213Z" fill="#038141"/>
<path d="M18.9275 6.1166C19.4175 5.82936 19.9075 5.57591 20.4144 5.28867C20.4144 17.0318 20.4144 28.7581 20.4144 40.5013C21.6985 39.1664 23.5909 38.744 25.3651 38.592C35.3172 38.5751 45.2693 38.5751 55.2215 38.5413C55.0356 39.0651 54.8328 39.5889 54.647 40.1127C44.7962 40.1296 34.9286 40.1127 25.0778 40.1127C23.2361 40.1127 21.4113 41.0589 20.4144 42.6134C20.3637 43.4582 20.4144 44.3199 20.3806 45.1817C21.6647 43.8468 23.574 43.4244 25.3651 43.2723C34.6245 43.2554 43.8838 43.2216 53.1432 43.2216C52.7715 43.7285 52.518 44.3537 52.0787 44.793C43.4614 44.8268 34.8441 44.793 26.2268 44.8099C25.5003 44.8268 24.7737 44.7592 24.064 44.8944C22.594 45.1648 21.2254 46.0265 20.4144 47.2937C20.3299 48.071 20.3975 48.8482 20.3806 49.6255C21.6816 48.3075 23.574 47.8851 25.3482 47.733C33.5262 47.733 41.721 47.6824 49.899 47.6993C49.3921 48.223 48.9359 48.7975 48.3783 49.2706C40.5552 49.3044 32.732 49.2706 24.9089 49.2875C22.9827 49.3213 21.0733 50.4703 20.2116 52.2107C20.0089 52.971 19.5189 53.6807 19.5864 54.4917C19.333 53.2076 18.9782 51.8896 18.0995 50.8927C17.0519 49.6931 15.3961 49.1524 13.8247 49.2537C13.1319 49.2706 12.4561 49.3044 11.7633 49.3044C11.5605 49.3551 11.4423 49.1693 11.3071 49.051C10.8847 48.5948 10.4454 48.1555 10.006 47.6993C11.476 47.7161 12.9292 47.7499 14.3992 47.7837C15.5312 47.8006 16.714 48.0203 17.6602 48.6962C18.1671 49.051 18.5726 49.5579 18.8937 50.0817C18.8599 49.3044 18.9275 48.5272 18.8768 47.7499C18.2516 45.9927 16.4268 44.7592 14.5512 44.7761C12.304 44.793 10.0567 44.8437 7.82637 44.8606C7.52223 44.3875 7.21809 43.9144 6.93085 43.4075C9.38086 43.4075 11.814 43.4244 14.264 43.4413C16.0043 43.5596 17.8799 44.1341 18.9275 45.621C18.9106 44.8606 18.9275 44.1003 18.9275 43.3399C18.9613 42.9006 18.7078 42.5289 18.5051 42.174C17.6771 40.8392 16.1395 39.9775 14.5681 39.9944C11.5098 40.0113 8.43465 40.0451 5.37636 40.0789C5.1398 39.5551 4.92015 39.0313 4.68359 38.5075C7.87706 38.5075 11.0705 38.5075 14.264 38.5075C16.0043 38.6764 17.8799 39.2509 18.9106 40.7716C18.8937 29.2143 18.9444 17.657 18.9275 6.1166Z" fill="#038141"/>
<path d="M65.4946 6.47147C67.6573 6.48836 69.8032 6.45457 71.966 6.48836C73.8415 12.8415 75.7508 19.1946 77.6433 25.5478C77.8798 26.2743 78.0488 27.0347 78.336 27.7612C80.5157 20.6815 82.6109 13.5681 84.7736 6.48836C86.9195 6.48836 89.0654 6.48836 91.2113 6.48836C88.0854 16.5419 84.9257 26.5785 81.7998 36.632C79.4343 36.6489 77.0857 36.632 74.7201 36.632C71.6449 26.5785 68.5698 16.525 65.4946 6.47147Z" fill="#038141"/>
<path d="M93.0192 6.48836C95.0975 6.47147 97.1589 6.47147 99.2372 6.48836C102.329 11.777 105.438 17.0488 108.547 22.3374C109.426 23.8074 110.271 25.3112 111.166 26.7643C111.217 20.0057 111.166 13.247 111.183 6.47147C113.126 6.48836 115.086 6.45457 117.046 6.48836C117.029 16.525 117.046 26.5785 117.029 36.6151C114.934 36.6151 112.856 36.6151 110.761 36.6151C107.601 31.2082 104.424 25.8012 101.265 20.3943C100.471 19.0595 99.7103 17.6908 98.8824 16.3729C98.8317 23.1147 98.8824 29.8733 98.8655 36.6151C96.9223 36.6151 94.9623 36.6151 93.0192 36.6151C93.0361 26.5785 93.0361 16.525 93.0192 6.48836Z" fill="#038141"/>
<path d="M120.02 6.48836C122.115 6.47147 124.194 6.48836 126.289 6.47147C126.289 12.436 126.289 18.4005 126.289 24.365C126.272 26.0209 126.373 27.8119 127.387 29.1975C128.283 30.4478 129.854 30.9547 131.324 31.0561C132.811 31.1406 134.365 31.0561 135.7 30.3633C136.596 29.9071 137.238 29.0792 137.559 28.1499C138.083 26.7137 138.032 25.1592 138.032 23.6385C138.032 17.9105 138.032 12.1994 138.032 6.47147C140.11 6.47147 142.188 6.47147 144.267 6.47147C144.267 12.2839 144.267 18.1133 144.267 23.9426C144.317 26.7136 143.996 29.6537 142.476 32.053C141.259 34.013 139.198 35.3309 137.001 35.9392C134.534 36.6151 131.932 36.6658 129.415 36.3785C126.846 36.0575 124.227 35.0606 122.521 33.033C120.662 30.8533 120.071 27.9133 120.02 25.1085C120.02 18.8905 120.037 12.6894 120.02 6.48836Z" fill="#038141"/>
<path d="M39.7103 33.2695C39.6596 31.9854 40.6396 30.6505 41.9745 30.566C43.1403 30.3802 44.4245 31.1912 44.5427 32.4078C44.171 32.4078 43.8162 32.4078 43.4445 32.4078C43.2586 31.4109 41.8731 31.2419 41.2817 31.9854C40.7241 32.7626 40.7072 33.9454 41.3155 34.6888C41.9913 35.4492 43.5289 35.1112 43.5796 33.9961C43.1741 33.9961 42.7686 33.9961 42.3631 33.9961C42.3631 33.6919 42.3631 33.4047 42.3631 33.1005C43.0896 33.1005 43.8162 33.1174 44.5427 33.0836C44.5765 34.0299 44.5596 34.993 44.5596 35.9392C44.3231 35.9392 44.0865 35.9392 43.85 35.9392C43.8162 35.7533 43.7824 35.5506 43.7486 35.3647C43.2417 35.973 42.4138 36.1926 41.6534 36.0068C40.4369 35.7533 39.6427 34.4861 39.7103 33.2695Z" fill="#038141"/>
<path d="M23.8443 30.6843C24.7229 30.7012 25.6016 30.6674 26.4802 30.7012C27.4095 30.7688 28.1699 31.4954 28.4064 32.3909C28.7612 33.6919 28.3219 35.4492 26.8857 35.8547C25.8888 36.0575 24.8581 35.9054 23.8443 35.9561C23.8274 35.1957 23.8443 34.4185 23.8443 33.6581C23.726 33.6581 23.4726 33.6581 23.3543 33.6581C23.3543 33.3709 23.3543 33.0837 23.3543 32.7964C23.4726 32.7964 23.726 32.7964 23.8443 32.7964C23.8443 32.0867 23.8443 31.3771 23.8443 30.6843ZM25.0271 31.6643C25.0271 32.0361 25.0271 32.4247 25.0271 32.7964C25.4326 32.7964 25.8212 32.7964 26.2267 32.7964C26.2267 33.0837 26.2267 33.3709 26.2098 33.6581C25.8212 33.6581 25.4157 33.6581 25.0271 33.6581C25.0271 34.0974 25.0271 34.5368 25.0271 34.9592C25.4664 34.9592 25.9226 34.993 26.3619 34.9254C26.9871 34.8071 27.325 34.165 27.3419 33.5737C27.3757 32.9992 27.2912 32.3233 26.8181 31.9347C26.3112 31.5292 25.6354 31.6812 25.0271 31.6643Z" fill="#038141"/>
<path d="M29.133 30.6843C29.5216 30.6843 29.9102 30.6843 30.282 30.6843C30.282 31.3602 30.282 32.0192 30.282 32.695C30.9916 32.695 31.7013 32.695 32.4109 32.695C32.4109 32.0192 32.4109 31.3602 32.4109 30.6843C32.7996 30.6843 33.2051 30.6843 33.5937 30.6843C33.5937 32.4416 33.6106 34.1988 33.5937 35.9392C33.2051 35.9392 32.8165 35.9392 32.4278 35.9392C32.394 35.1788 32.4278 34.4185 32.4109 33.6581C31.7013 33.6581 30.9916 33.6581 30.282 33.6581C30.282 34.4185 30.282 35.1788 30.282 35.9223C29.8933 35.9223 29.5047 35.9223 29.133 35.9223C29.133 34.1819 29.133 32.4416 29.133 30.6843Z" fill="#038141"/>
<path d="M34.9961 31.2419C36.0268 30.2788 37.8179 30.3633 38.7303 31.4447C39.592 32.5429 39.5413 34.2157 38.6627 35.2802C38.8824 35.4661 39.102 35.6688 39.3217 35.8716C39.1527 36.0574 38.9668 36.2433 38.7979 36.4292C38.5444 36.2095 38.3079 35.9899 38.0713 35.7871C37.1927 36.1926 36.0944 36.2095 35.2834 35.635C33.881 34.655 33.7965 32.3909 34.9961 31.2419ZM35.6213 32.1543C35.1989 32.9147 35.2158 33.9792 35.7734 34.6719C36.1282 35.0943 36.7196 35.1281 37.2265 35.0605C37.0744 34.9085 36.9224 34.7564 36.7703 34.5874C36.8548 34.3509 37.0913 34.1819 37.2434 33.9792C37.463 34.165 37.6658 34.3509 37.8686 34.5367C38.2741 33.7764 38.3079 32.7626 37.801 32.036C37.2941 31.3264 36.0775 31.394 35.6213 32.1543Z" fill="#038141"/>
<path d="M48.6825 30.6843C49.0711 30.6843 49.4428 30.6843 49.8314 30.6843C49.8145 32.4416 49.8483 34.1988 49.8145 35.9561C49.4259 35.9392 49.0373 35.9392 48.6487 35.9392C48.6318 35.1788 48.6487 34.4185 48.6487 33.675C47.939 33.675 47.2293 33.675 46.5197 33.675C46.5197 34.4354 46.5197 35.1957 46.5197 35.9392C46.1142 35.9392 45.7255 35.9392 45.3369 35.9392C45.3369 34.1819 45.3538 32.4416 45.3707 30.6843C45.7762 30.6843 46.1649 30.6843 46.5704 30.6843C46.5704 31.3602 46.5704 32.0192 46.5704 32.695C47.28 32.695 47.9897 32.695 48.6994 32.695C48.6825 32.0192 48.6656 31.3602 48.6825 30.6843Z" fill="#038141"/>
<path d="M50.6593 30.6843C51.0479 30.6843 51.4365 30.6843 51.8252 30.7012C52.5348 31.884 53.2614 33.033 54.0048 34.1988C54.0217 33.033 54.0048 31.8671 54.0048 30.7012C54.3597 30.7012 54.7314 30.7012 55.0862 30.7012C55.0862 32.4585 55.0862 34.1988 55.0862 35.9561C54.6976 35.973 54.309 35.973 53.9203 35.973C53.1769 34.8409 52.5179 33.6412 51.7407 32.5261C51.7069 33.675 51.7238 34.8071 51.7238 35.9561C51.3521 35.973 50.9972 35.973 50.6424 35.9561C50.6593 34.1819 50.6593 32.4416 50.6593 30.6843Z" fill="#038141"/>
<path d="M116.607 40.6365C116.979 40.6365 117.35 40.6365 117.739 40.6365C117.35 41.0082 116.962 41.3799 116.573 41.7348C116.37 41.7348 116.168 41.7348 115.982 41.7348C116.185 41.3799 116.404 41.0082 116.607 40.6365Z" fill="#038141"/>
<path d="M148.964 41.3968C149.319 41.3968 149.674 41.3968 150.029 41.3968C150.248 41.7685 150.451 42.1402 150.671 42.5119C150.434 42.4781 150.13 42.5795 149.944 42.3768C149.589 42.0726 149.234 41.7685 148.964 41.3968Z" fill="#038141"/>
<path d="M114.579 41.4475C114.951 41.4306 115.306 41.4306 115.678 41.4306C115.931 41.8024 116.201 42.1741 116.455 42.5458C115.897 42.6979 115.509 42.3262 115.171 41.9375C114.968 42.1403 114.765 42.343 114.562 42.5458C114.309 42.5458 114.072 42.5458 113.819 42.5458C114.072 42.1741 114.326 41.8193 114.579 41.4475Z" fill="#038141"/>
<path d="M163.444 41.4306C163.782 41.4306 164.137 41.4306 164.475 41.4306C164.729 41.8024 164.982 42.1741 165.236 42.5458C165.016 42.5458 164.796 42.5458 164.577 42.5627C164.374 42.3599 164.154 42.1572 163.951 41.9544C163.749 42.1572 163.546 42.3599 163.326 42.5627C163.157 42.5627 162.836 42.5458 162.667 42.5458C162.921 42.1572 163.191 41.8024 163.444 41.4306Z" fill="#038141"/>
<path d="M88.6092 42.9851C89.6568 42.7148 90.9071 43.1034 91.5154 44.0158C92.3771 45.3169 92.2082 47.3782 90.8564 48.2907C89.7581 49.051 88.1361 48.8651 87.2574 47.8682C86.4126 46.8713 86.345 45.3506 86.9533 44.2186C87.3081 43.5934 87.9333 43.171 88.6092 42.9851ZM88.8964 44.0158C88.3388 44.1848 88.0009 44.7086 87.8995 45.2493C87.7812 45.9082 87.7981 46.6517 88.2037 47.2093C88.7275 47.9358 89.9947 47.9189 90.5016 47.1755C90.9578 46.4996 90.9747 45.5872 90.6875 44.8437C90.4509 44.1341 89.5892 43.7624 88.8964 44.0158Z" fill="#038141"/>
<path d="M93.1713 44.0158C94.0161 42.7148 96.0944 42.5458 97.1758 43.6441C97.5137 43.982 97.6827 44.4551 97.784 44.9282C97.3954 44.9282 97.0237 44.9113 96.6351 44.9113C96.4154 43.9144 95.0299 43.5934 94.354 44.3199C93.7457 45.0465 93.695 46.1617 94.1006 46.9896C94.4385 47.7162 95.4354 47.9527 96.0944 47.5472C96.4661 47.3275 96.5506 46.8882 96.652 46.4996C97.0575 46.4827 97.4461 46.4827 97.8516 46.4996C97.7671 47.1248 97.5306 47.7669 97.0406 48.1893C96.1451 48.9665 94.675 48.9496 93.7457 48.24C92.4785 47.2769 92.3095 45.2999 93.1713 44.0158Z" fill="#038141"/>
<path d="M101.349 43.7285C102.414 42.5964 104.424 42.6471 105.421 43.8468C106.351 44.9958 106.3 46.7868 105.371 47.9189C105.59 48.1217 105.827 48.3413 106.063 48.5441C105.878 48.7468 105.692 48.9496 105.489 49.1354C105.235 48.8989 104.982 48.6623 104.712 48.4258C103.749 48.8989 102.498 48.882 101.637 48.1892C100.319 47.1416 100.217 44.962 101.349 43.7285ZM102.11 44.6578C101.67 45.4858 101.704 46.6347 102.346 47.3613C102.735 47.7837 103.343 47.7837 103.884 47.733C103.715 47.5641 103.529 47.3782 103.343 47.2092C103.529 46.9896 103.698 46.7868 103.884 46.5672C104.103 46.7699 104.306 46.9727 104.526 47.1754C104.965 46.3644 104.999 45.2999 104.475 44.5058C103.918 43.7116 102.566 43.7961 102.11 44.6578Z" fill="#038141"/>
<path d="M110.406 43.0358C110.794 43.0358 111.183 43.0189 111.572 43.0527C111.605 44.1171 111.589 45.1985 111.605 46.263C111.622 46.9051 111.555 47.5979 111.099 48.0879C110.642 48.5948 109.916 48.7468 109.274 48.7468C108.632 48.7468 107.956 48.6454 107.466 48.2061C107.01 47.7837 106.858 47.1416 106.841 46.5503C106.824 45.3844 106.841 44.2016 106.841 43.0358C107.246 43.0189 107.669 43.0189 108.074 43.0189C108.074 44.2354 108.057 45.4689 108.074 46.6854C108.057 47.1416 108.378 47.6147 108.851 47.6823C109.291 47.7161 109.798 47.7161 110.119 47.3782C110.321 47.1416 110.389 46.8375 110.389 46.5334C110.406 45.3844 110.372 44.2016 110.406 43.0358Z" fill="#038141"/>
<path d="M114.444 42.9851C115.492 42.6978 116.725 43.0865 117.35 43.9989C118.195 45.2492 118.077 47.1754 116.877 48.1554C115.813 49.0172 114.106 48.9327 113.16 47.9189C112.248 46.9051 112.163 45.2999 112.839 44.1509C113.194 43.5596 113.802 43.1709 114.444 42.9851ZM114.748 43.9989C114.224 44.1509 113.87 44.6409 113.751 45.1647C113.616 45.8068 113.616 46.5334 113.971 47.1248C114.461 47.9358 115.779 47.9527 116.32 47.1923C116.776 46.5165 116.81 45.6041 116.522 44.8437C116.286 44.134 115.441 43.7623 114.748 43.9989Z" fill="#038141"/>
<path d="M119.243 43.6948C120.138 42.7654 121.744 42.6641 122.774 43.4244C123.264 43.7792 123.535 44.3537 123.636 44.9451C123.247 44.9451 122.859 44.9282 122.47 44.9282C122.25 43.9313 120.865 43.6103 120.189 44.3368C119.547 45.0803 119.513 46.2631 119.986 47.091C120.358 47.75 121.304 47.9358 121.929 47.5472C122.301 47.3106 122.386 46.8713 122.504 46.4827C122.893 46.4827 123.298 46.4827 123.687 46.4996C123.602 47.1924 123.298 47.902 122.707 48.3244C121.777 48.9665 120.443 48.9158 119.547 48.2569C118.178 47.1924 118.094 44.9282 119.243 43.6948Z" fill="#038141"/>
<path d="M128.046 43.1203C129.415 42.4951 131.392 43.2723 131.51 44.8944C131.121 44.8944 130.733 44.8944 130.344 44.8944C130.226 44.6072 130.107 44.2861 129.82 44.1172C129.161 43.7286 128.181 43.9651 127.843 44.6748C127.471 45.4351 127.471 46.4151 127.928 47.1586C128.299 47.7331 129.077 47.8682 129.702 47.6993C130.226 47.5303 130.496 47.0065 130.53 46.4827C130.107 46.4827 129.685 46.4827 129.279 46.4827C129.279 46.1786 129.279 45.8744 129.279 45.5703C130.057 45.5872 130.834 45.5703 131.611 45.5703C131.628 46.5841 131.611 47.581 131.628 48.5948C131.375 48.5948 131.104 48.5948 130.851 48.5948C130.8 48.392 130.749 48.1893 130.716 47.9865C129.769 49.1693 127.793 48.8651 126.998 47.6655C125.934 46.28 126.323 43.8299 128.046 43.1203Z" fill="#038141"/>
<path d="M163.191 43.0019C164.391 42.664 165.827 43.2216 166.351 44.3706C166.942 45.604 166.756 47.3106 165.624 48.1892C164.56 49.034 162.87 48.9158 161.924 47.9189C161.045 46.9389 160.961 45.4013 161.552 44.2523C161.89 43.6271 162.515 43.1878 163.191 43.0019ZM163.478 43.9988C162.954 44.1509 162.6 44.6409 162.498 45.1478C162.346 45.8575 162.397 46.6685 162.87 47.243C163.428 47.8851 164.56 47.8513 165.067 47.1585C165.54 46.4657 165.557 45.5026 165.235 44.7423C164.948 44.1002 164.137 43.7792 163.478 43.9988Z" fill="#038141"/>
<path d="M65.4777 43.0358C66.3056 43.0358 67.1335 43.0189 67.9784 43.0358C68.7387 43.0358 69.516 43.4075 69.9215 44.0665C70.4622 44.8775 70.496 45.942 70.2594 46.8713C70.006 47.7668 69.2456 48.5272 68.2994 48.6117C67.3532 48.6624 66.4239 48.6117 65.4777 48.6286C65.4777 47.8175 65.4946 47.0065 65.4946 46.1954C65.3594 46.1954 65.1228 46.1954 64.9877 46.1954C64.9877 45.8913 64.9877 45.5872 64.9877 45.283C65.1228 45.283 65.3763 45.283 65.4946 45.283C65.4777 44.5396 65.4608 43.7792 65.4777 43.0358ZM66.6942 44.0665C66.6942 44.472 66.6942 44.8775 66.6942 45.283C67.1166 45.283 67.5222 45.283 67.9446 45.283C67.9446 45.5872 67.9446 45.8913 67.9277 46.2123C67.5222 46.2123 67.0998 46.1954 66.6942 46.2123C66.6942 46.6685 66.6942 47.1417 66.6942 47.5979C67.1673 47.5979 67.6573 47.6317 68.1304 47.5641C68.7894 47.4289 69.1611 46.753 69.178 46.1279C69.2118 45.5027 69.1273 44.7423 68.5867 44.3537C68.0291 43.9313 67.3194 44.0834 66.6942 44.0665Z" fill="#038141"/>
<path d="M70.6481 48.6286C71.3577 46.77 72.0505 44.8944 72.7602 43.0358C73.1657 43.0358 73.5881 43.0358 73.9936 43.0358C74.7202 44.8944 75.3791 46.77 76.0888 48.6455C75.6664 48.6455 75.244 48.6455 74.8215 48.6455C74.6864 48.24 74.5512 47.8175 74.3991 47.412C73.7064 47.412 73.0136 47.412 72.3208 47.412C72.1688 47.8175 72.0336 48.24 71.8984 48.6455C71.476 48.6286 71.0705 48.6286 70.6481 48.6286ZM72.6419 46.4658C73.115 46.4658 73.605 46.4658 74.0781 46.4658C73.8584 45.8068 73.6388 45.131 73.4022 44.472C73.0981 45.1141 72.8953 45.8068 72.6419 46.4658Z" fill="#038141"/>
<path d="M76.5788 43.0358C76.9843 43.0358 77.3898 43.0358 77.8122 43.0358C77.8122 44.8944 77.8122 46.77 77.8122 48.6286C77.4067 48.6286 77.0012 48.6286 76.5788 48.6286C76.5788 46.7531 76.5788 44.8944 76.5788 43.0358Z" fill="#038141"/>
<path d="M81.0564 43.0358C81.4619 43.0358 81.8674 43.0358 82.2898 43.0358C82.2898 43.7455 82.2898 44.472 82.3067 45.1817C83.0502 45.1648 83.7936 45.1817 84.5371 45.1817C84.5371 44.472 84.5371 43.7455 84.5371 43.0358C84.9426 43.0358 85.3481 43.0358 85.7705 43.0358C85.7705 44.8944 85.7705 46.7531 85.7705 48.6286C85.365 48.6455 84.9426 48.6286 84.5371 48.6286C84.5371 47.8344 84.5371 47.0403 84.5371 46.2631C83.7936 46.2631 83.0333 46.2631 82.2898 46.2631C82.2898 47.0572 82.2898 47.8513 82.2898 48.6455C81.8843 48.6455 81.4788 48.6455 81.0564 48.6455C81.0395 46.7531 81.0395 44.8944 81.0564 43.0358Z" fill="#038141"/>
<path d="M132.591 43.0358C132.997 43.0358 133.402 43.0358 133.808 43.0358C133.808 44.8944 133.808 46.77 133.808 48.6286C133.402 48.6286 132.997 48.6286 132.591 48.6286C132.574 46.7531 132.574 44.8944 132.591 43.0358Z" fill="#038141"/>
<path d="M134.298 48.6286C135.007 46.7699 135.7 44.8944 136.41 43.0358C136.832 43.0696 137.272 42.9682 137.677 43.0865C138.387 44.9282 139.063 46.7868 139.738 48.6286C139.316 48.6286 138.894 48.6286 138.471 48.6286C138.336 48.223 138.184 47.8006 138.049 47.3782C137.356 47.3782 136.663 47.3782 135.971 47.3782C135.818 47.8006 135.683 48.2061 135.531 48.6286C135.126 48.6286 134.703 48.6286 134.298 48.6286ZM136.292 46.4658C136.765 46.4658 137.255 46.4658 137.728 46.4658C137.508 45.8068 137.288 45.131 137.052 44.472C136.731 45.1141 136.545 45.8068 136.292 46.4658Z" fill="#038141"/>
<path d="M142.391 43.0358C142.78 43.0358 143.185 43.0358 143.574 43.0358C143.574 43.7455 143.574 44.472 143.574 45.1817C144.317 45.1817 145.078 45.1817 145.821 45.1817C145.821 44.472 145.821 43.7455 145.821 43.0358C146.227 43.0358 146.632 43.0358 147.055 43.0358C147.055 44.8944 147.055 46.77 147.055 48.6286C146.649 48.6286 146.244 48.6286 145.838 48.6455C145.804 47.8513 145.821 47.0572 145.821 46.2462C145.078 46.2462 144.351 46.2462 143.608 46.2462C143.608 47.0403 143.608 47.8344 143.608 48.6286C143.202 48.6286 142.814 48.6286 142.425 48.6286C142.408 46.7531 142.391 44.8944 142.391 43.0358Z" fill="#038141"/>
<path d="M147.578 48.6286C148.288 46.77 148.981 44.8944 149.691 43.0358C150.096 43.0358 150.519 43.0358 150.924 43.0358C151.651 44.8944 152.31 46.77 153.019 48.6455C152.597 48.6455 152.174 48.6455 151.752 48.6455C151.617 48.2231 151.465 47.8175 151.33 47.3951C150.637 47.3951 149.944 47.3951 149.251 47.3951C149.099 47.8006 148.964 48.2231 148.812 48.6286C148.39 48.6286 147.984 48.6286 147.578 48.6286ZM149.572 46.4827C150.045 46.4658 150.518 46.4658 150.992 46.4658C150.772 45.8068 150.552 45.131 150.316 44.4889C150.012 45.1141 149.792 45.8068 149.572 46.4827Z" fill="#038141"/>
<path d="M155.655 43.0358C156.044 43.0358 156.449 43.0358 156.838 43.0358C157.615 44.2861 158.375 45.5365 159.17 46.7868C159.17 45.5365 159.17 44.2861 159.17 43.0358C159.558 43.0358 159.93 43.0358 160.319 43.0358C160.319 44.8944 160.319 46.7531 160.319 48.6286C159.93 48.6286 159.524 48.6286 159.136 48.6455C158.325 47.412 157.581 46.1279 156.787 44.8775C156.77 46.1279 156.804 47.3782 156.77 48.6286C156.399 48.6117 156.027 48.6117 155.638 48.6117C155.655 46.7531 155.655 44.8944 155.655 43.0358Z" fill="#038141"/>
<path d="M167.5 43.0358C167.905 43.0358 168.311 43.0358 168.733 43.0358C168.733 44.8944 168.733 46.77 168.733 48.6286C168.328 48.6286 167.922 48.6286 167.5 48.6286C167.5 46.7531 167.5 44.8944 167.5 43.0358Z" fill="#038141"/>
<path d="M72.8784 49.2031C73.1995 49.2031 73.5205 49.2031 73.8415 49.2031C73.8415 49.4565 73.8246 49.6931 73.8246 49.9465C73.5036 49.9465 73.1826 49.9465 72.8784 49.9465C72.8784 49.6931 72.8784 49.4396 72.8784 49.2031Z" fill="#038141"/>
<path d="M88.8289 49.2031C89.1499 49.2031 89.4709 49.2031 89.792 49.2031C89.792 49.4565 89.792 49.6931 89.792 49.9465C89.4709 49.9465 89.1499 49.9465 88.8289 49.9465C88.8289 49.6931 88.8289 49.4396 88.8289 49.2031Z" fill="#038141"/>
<path d="M163.444 49.2031C163.765 49.2031 164.087 49.2031 164.408 49.2031C164.408 49.4565 164.408 49.6931 164.408 49.9465C164.087 49.9465 163.765 49.9465 163.444 49.9296C163.444 49.6931 163.444 49.4396 163.444 49.2031Z" fill="#038141"/>
<path d="M108.851 52.6669C109.071 52.6669 109.291 52.6669 109.51 52.6669C109.51 52.9372 109.51 53.2076 109.51 53.4779C109.291 53.4779 109.071 53.4779 108.851 53.4948C108.851 53.2076 108.851 52.9372 108.851 52.6669Z" fill="#038141"/>
<path d="M185.19 52.6669C185.41 52.6669 185.63 52.65 185.849 52.6669C185.866 52.9372 185.866 53.2076 185.866 53.4779C185.647 53.4779 185.427 53.4779 185.207 53.4779C185.19 53.2076 185.19 52.9372 185.19 52.6669Z" fill="#038141"/>
<path d="M65.2411 52.6669C65.5115 52.6669 65.7818 52.6669 66.0522 52.6669C66.576 54.289 67.1167 55.8941 67.6405 57.4993C68.215 55.8941 68.7219 54.2721 69.2626 52.65C69.516 52.65 69.7695 52.65 70.0398 52.65C69.3639 54.5255 68.7219 56.401 68.046 58.2597C67.7756 58.2597 67.4884 58.2597 67.2181 58.2428C66.5422 56.4011 65.8832 54.5424 65.2411 52.6669Z" fill="#038141"/>
<path d="M70.5804 53.4779C70.5804 53.2076 70.5804 52.9372 70.5804 52.6669C70.8001 52.6669 71.0198 52.65 71.2394 52.65C71.2563 52.9203 71.2563 53.2076 71.2563 53.4779C71.0198 53.4779 70.8001 53.4779 70.5804 53.4779Z" fill="#038141"/>
<path d="M96.5506 52.6669C96.821 52.6669 97.0744 52.6669 97.3448 52.6669C98.3417 54.1876 99.3386 55.7083 100.319 57.229C100.319 55.7083 100.319 54.1876 100.319 52.6838C100.555 52.6838 100.792 52.6838 101.011 52.6838C101.011 54.5593 101.011 56.418 101.011 58.2935C100.741 58.2935 100.471 58.2935 100.2 58.2935C99.2203 56.8066 98.2741 55.3028 97.2772 53.8328C97.2434 55.3197 97.2941 56.8235 97.2603 58.3104C97.0237 58.3104 96.7872 58.2935 96.5506 58.2935C96.5337 56.4011 96.5337 54.5424 96.5506 52.6669Z" fill="#038141"/>
<path d="M123.687 52.6669C123.906 52.6669 124.126 52.6669 124.346 52.6669C124.346 54.5424 124.346 56.4011 124.346 58.2766C124.126 58.2766 123.906 58.2766 123.687 58.2766C123.687 56.4011 123.687 54.5424 123.687 52.6669Z" fill="#038141"/>
<path d="M127.657 52.6669C127.911 52.6669 128.147 52.6669 128.401 52.6669C128.401 53.9341 128.401 55.2014 128.401 56.4855C128.384 57.1783 129.009 57.7866 129.702 57.7866C130.141 57.7866 130.631 57.7697 130.969 57.4655C131.341 57.1614 131.425 56.6376 131.408 56.1814C131.408 55.0155 131.408 53.8328 131.408 52.6669C131.662 52.6669 131.898 52.6669 132.152 52.6669C132.152 53.8328 132.152 55.0155 132.152 56.1814C132.152 56.7559 132.05 57.3811 131.645 57.8204C131.189 58.2935 130.479 58.4118 129.854 58.3949C129.229 58.378 128.553 58.2259 128.13 57.7359C127.742 57.3135 127.64 56.7052 127.64 56.1645C127.657 55.0155 127.657 53.8497 127.657 52.6669Z" fill="#038141"/>
<path d="M137.66 53.4779C137.66 53.2076 137.66 52.9203 137.677 52.65C137.897 52.65 138.116 52.6669 138.336 52.6669C138.336 52.9372 138.319 53.2076 138.319 53.4779C138.099 53.4948 137.88 53.4779 137.66 53.4779Z" fill="#038141"/>
<path d="M153.932 53.461C153.915 53.1907 153.915 52.9204 153.915 52.6669C154.134 52.6669 154.354 52.6669 154.574 52.6669C154.574 52.9372 154.574 53.2076 154.591 53.4948C154.354 53.4948 154.134 53.4948 153.932 53.461Z" fill="#038141"/>
<path d="M166.503 52.6669C166.756 52.6669 166.993 52.6669 167.246 52.6669C167.246 53.461 167.246 54.2552 167.246 55.0493C168.226 55.0493 169.223 55.0493 170.22 55.0493C170.237 54.2552 170.22 53.4441 170.237 52.65C170.49 52.65 170.727 52.6669 170.98 52.6669C170.963 54.5424 170.997 56.401 170.963 58.2766C170.71 58.2766 170.473 58.2597 170.237 58.2597C170.237 57.3979 170.237 56.5531 170.22 55.6914C169.223 55.6914 168.243 55.6914 167.246 55.6914C167.246 56.5531 167.246 57.3979 167.246 58.2597C166.993 58.2597 166.739 58.2597 166.503 58.2597C166.503 56.401 166.503 54.5424 166.503 52.6669Z" fill="#038141"/>
<path d="M76.7647 53.0217C76.9843 53.0217 77.204 53.0217 77.4236 53.0217C77.4236 53.4104 77.4236 53.8159 77.4236 54.2045C77.694 54.2045 77.9643 54.2045 78.2347 54.2045C78.2347 54.3566 78.2347 54.6438 78.2347 54.7959C77.9643 54.7959 77.694 54.7959 77.4236 54.8128C77.4405 55.7083 77.3898 56.6207 77.4574 57.5162C77.6602 57.7359 77.9812 57.6683 78.2347 57.7021C78.2347 57.8542 78.2347 58.1414 78.2347 58.2766C77.7447 58.2597 76.9674 58.4118 76.7985 57.7866C76.6971 56.8066 76.7816 55.7928 76.7647 54.8128C76.5281 54.8128 76.3085 54.8128 76.0719 54.8128C76.0719 54.61 76.0719 54.4073 76.0719 54.2214C76.3085 54.2214 76.5281 54.2214 76.7647 54.2214C76.7478 53.8159 76.7647 53.4104 76.7647 53.0217Z" fill="#038141"/>
<path d="M155.875 53.0217C156.094 53.0217 156.314 53.0217 156.551 53.0217C156.551 53.4104 156.551 53.8159 156.551 54.2045C156.821 54.2045 157.091 54.2214 157.362 54.2214C157.362 54.3735 157.362 54.6607 157.362 54.8128C157.091 54.8128 156.821 54.8297 156.551 54.8297C156.584 55.7252 156.517 56.6207 156.584 57.4993C156.753 57.7528 157.108 57.6683 157.362 57.7021C157.362 57.888 157.362 58.0907 157.362 58.2766C156.855 58.2766 156.027 58.4118 155.909 57.7359C155.841 56.7559 155.909 55.7928 155.892 54.8128C155.655 54.8128 155.435 54.8128 155.199 54.8128C155.199 54.6607 155.199 54.3735 155.199 54.2214C155.419 54.2214 155.655 54.2214 155.892 54.2214C155.875 53.8159 155.875 53.4104 155.875 53.0217Z" fill="#038141"/>
<path d="M106.604 53.0217C106.824 53.0217 107.043 53.0217 107.263 53.0217C107.263 53.4104 107.263 53.8159 107.263 54.2214C107.533 54.2214 107.804 54.2214 108.074 54.2214C108.074 54.3735 108.074 54.6776 108.074 54.8297C107.804 54.8297 107.533 54.8297 107.263 54.8297C107.28 55.7083 107.229 56.6038 107.28 57.4824C107.415 57.7697 107.804 57.6683 108.074 57.719C108.074 57.9049 108.074 58.1076 108.074 58.2935C107.584 58.2766 106.807 58.4287 106.638 57.8035C106.537 56.8235 106.621 55.8097 106.604 54.8297C106.368 54.8297 106.148 54.8297 105.911 54.8297C105.911 54.6776 105.911 54.3904 105.911 54.2383C106.148 54.2383 106.368 54.2383 106.604 54.2383C106.604 53.8159 106.604 53.4104 106.604 53.0217Z" fill="#038141"/>
<path d="M70.5635 54.2213C70.7832 54.2044 71.0197 54.2044 71.2394 54.2044C71.2394 55.5562 71.2394 56.9248 71.2394 58.2765C71.0197 58.2765 70.8001 58.2765 70.5804 58.2765C70.5804 56.9248 70.5804 55.5731 70.5635 54.2213Z" fill="#038141"/>
<path d="M72.6926 54.6437C73.3853 53.951 74.6526 53.951 75.2777 54.7113C75.7002 55.2013 75.8015 55.8603 75.8353 56.4855C74.8046 56.5024 73.757 56.4855 72.7263 56.5024C72.777 56.8572 72.8277 57.2289 73.0981 57.4824C73.6895 58.0907 74.9398 57.9217 75.1088 56.9924C75.3284 56.9924 75.5481 57.0093 75.7846 57.0093C75.6326 57.5669 75.2777 58.1076 74.7033 58.2934C73.9598 58.5131 73.0474 58.3779 72.5405 57.7358C71.8646 56.8572 71.8815 55.4379 72.6926 54.6437ZM72.7095 55.8434C73.5036 55.8772 74.3146 55.8603 75.1088 55.8603C75.0243 55.2351 74.4836 54.6437 73.8077 54.7282C73.1995 54.7282 72.8277 55.3027 72.7095 55.8434Z" fill="#038141"/>
<path d="M79.6033 54.7452C79.9751 54.3904 80.4144 54.0524 80.972 54.12C81.6647 54.0524 82.3068 54.6269 82.3237 55.3366C82.3575 56.3166 82.3237 57.3135 82.3406 58.2935C82.1209 58.2935 81.9013 58.2935 81.6816 58.2935C81.6647 57.3473 81.6985 56.4011 81.6816 55.4717C81.7154 55.0324 81.2761 54.6607 80.8368 54.7283C80.2454 54.6945 79.7047 55.1845 79.6709 55.759C79.6202 56.6038 79.6709 57.4487 79.654 58.2935C79.4344 58.2935 79.2147 58.2935 78.9951 58.2935C78.9951 56.9418 79.0119 55.5731 79.0119 54.2214C79.164 54.2214 79.4851 54.2214 79.6371 54.2214C79.6033 54.3397 79.6033 54.61 79.6033 54.7452Z" fill="#038141"/>
<path d="M84.1484 54.2552C84.7905 54.0355 85.5509 54.0186 86.1422 54.3565C86.7505 54.7621 86.514 55.5731 86.5478 56.1983C86.5985 56.7052 86.4295 57.2797 86.6661 57.7359C86.7505 57.7528 86.9026 57.7697 86.9871 57.7866C86.9364 58.0062 87.004 58.3948 86.6829 58.361C86.2774 58.4962 85.9057 58.209 85.8888 57.7866C85.3312 58.3779 84.3681 58.5807 83.6415 58.1752C82.9657 57.8204 82.9319 56.7221 83.574 56.2997C84.1822 55.8941 84.9764 55.9955 85.6353 55.7421C86.024 55.5731 85.9057 54.9479 85.5509 54.8128C84.9764 54.5593 84.0302 54.6945 83.9457 55.4548C83.726 55.4717 83.4895 55.4717 83.2698 55.4717C83.3036 54.9479 83.6078 54.4241 84.1484 54.2552ZM84.1822 56.5869C83.726 56.7559 83.6584 57.5162 84.1484 57.6852C84.6722 57.8879 85.365 57.7359 85.7029 57.2797C85.9057 56.9586 85.8212 56.57 85.8719 56.2152C85.3143 56.4179 84.7229 56.3841 84.1822 56.5869Z" fill="#038141"/>
<path d="M88.1868 54.7451C88.7612 54.0017 90.1299 53.8158 90.6368 54.7451C91.2282 53.9172 92.8164 53.8327 93.2051 54.8803C93.3233 56.0124 93.222 57.1445 93.2558 58.2765C93.0361 58.2765 92.8164 58.2765 92.5968 58.2765C92.5968 57.381 92.5968 56.5024 92.5968 55.6069C92.5968 55.3196 92.5461 54.9817 92.2757 54.8296C91.735 54.5255 90.8564 54.7789 90.755 55.4548C90.7044 56.3841 90.7719 57.3303 90.7381 58.2597C90.5185 58.2934 90.2988 58.2765 90.0792 58.2934C90.0792 57.3979 90.0792 56.5193 90.0792 55.6238C90.0792 55.3196 90.0116 54.931 89.6906 54.7958C89.0316 54.5086 88.2374 55.0662 88.2374 55.7589C88.2205 56.6038 88.2374 57.4486 88.2205 58.2934C88.0009 58.2934 87.7812 58.2934 87.5616 58.2934C87.5447 56.9417 87.5616 55.59 87.5447 54.2382C87.7643 54.2382 87.9671 54.2382 88.1868 54.2214C88.2037 54.3396 88.1868 54.61 88.1868 54.7451Z" fill="#038141"/>
<path d="M102.059 55.4717C102.093 54.7958 102.617 54.2382 103.292 54.1537C104.002 54.0523 105.05 54.0692 105.32 54.8972C105.421 55.8434 105.269 56.7896 105.404 57.7358C105.489 57.7527 105.675 57.8034 105.776 57.8203C105.759 57.9893 105.742 58.1413 105.725 58.3103C105.269 58.4624 104.695 58.3779 104.627 57.8034C104.07 58.361 103.174 58.5637 102.448 58.2089C101.721 57.871 101.721 56.6882 102.397 56.2827C102.988 55.9279 103.715 55.9786 104.357 55.7758C104.796 55.6406 104.729 54.9986 104.374 54.8296C103.782 54.5592 102.836 54.6944 102.718 55.4548C102.481 55.4717 102.262 55.4717 102.059 55.4717ZM102.971 56.5868C102.532 56.7389 102.431 57.4486 102.87 57.6682C103.411 57.9386 104.171 57.7696 104.526 57.2458C104.678 56.9248 104.627 56.5531 104.661 56.2151C104.103 56.4179 103.495 56.3841 102.971 56.5868Z" fill="#038141"/>
<path d="M111.673 54.2214C112.518 53.9341 113.616 54.2552 114.005 55.1C114.427 55.9448 114.343 57.0262 113.751 57.7697C113.042 58.5469 111.707 58.5807 110.93 57.8542C109.933 56.8235 110.186 54.6776 111.673 54.2214ZM111.944 54.779C111.048 55.1169 110.862 56.3504 111.268 57.1276C111.555 57.7697 112.434 58.0062 113.008 57.5838C113.667 57.0938 113.768 56.1138 113.43 55.4041C113.177 54.8634 112.501 54.5593 111.944 54.779Z" fill="#038141"/>
<path d="M115.069 54.2213C115.272 54.2213 115.492 54.2213 115.695 54.2044C115.695 54.4072 115.695 54.6099 115.695 54.8127C116.252 53.8327 118.06 53.8158 118.347 55.0155C118.499 56.0799 118.381 57.1782 118.415 58.2765C118.195 58.2765 117.976 58.2765 117.756 58.2765C117.739 57.2965 117.773 56.2996 117.739 55.3196C117.705 54.9141 117.266 54.6606 116.877 54.7113C116.303 54.6944 115.779 55.1675 115.728 55.742C115.695 56.5868 115.728 57.4317 115.711 58.2765C115.492 58.2765 115.272 58.2765 115.052 58.2765C115.052 56.9248 115.052 55.573 115.069 54.2213Z" fill="#038141"/>
<path d="M120.206 54.272C120.848 54.0524 121.625 54.0355 122.217 54.3734C122.774 54.7451 122.605 55.4886 122.622 56.0462C122.656 56.6038 122.538 57.1951 122.707 57.7358C122.791 57.7527 122.943 57.7865 123.028 57.8034C123.028 57.9217 123.028 58.1582 123.028 58.2934C122.757 58.361 122.453 58.4624 122.2 58.3103C122.014 58.2089 122.014 57.9724 121.946 57.8034C121.372 58.3948 120.409 58.5807 119.682 58.1751C119.006 57.8203 118.972 56.722 119.615 56.3165C120.223 55.911 121 56.0124 121.659 55.7589C122.048 55.5899 121.946 54.9648 121.591 54.8127C121 54.5593 120.071 54.6944 119.969 55.4548C119.75 55.4548 119.53 55.4548 119.31 55.4717C119.378 54.9479 119.682 54.441 120.206 54.272ZM120.307 56.57C119.834 56.7051 119.733 57.4655 120.206 57.6851C120.764 57.9217 121.524 57.7527 121.845 57.212C121.98 56.891 121.929 56.5531 121.963 56.2151C121.422 56.401 120.831 56.401 120.307 56.57Z" fill="#038141"/>
<path d="M133.875 54.7452C134.247 54.3734 134.703 54.0524 135.261 54.1031C135.954 54.0524 136.579 54.61 136.596 55.3028C136.629 56.2828 136.596 57.2797 136.613 58.2597C136.393 58.2597 136.156 58.2597 135.937 58.2597C135.92 57.2797 135.954 56.2997 135.92 55.3028C135.886 54.9141 135.497 54.6438 135.126 54.6776C134.517 54.6269 133.96 55.1169 133.926 55.7252C133.892 56.57 133.926 57.3979 133.909 58.2428C133.689 58.2428 133.47 58.2428 133.25 58.2428C133.233 56.891 133.267 55.5393 133.233 54.1876C133.453 54.1876 133.656 54.1707 133.875 54.1707C133.875 54.3397 133.875 54.61 133.875 54.7452Z" fill="#038141"/>
<path d="M137.66 54.2044C137.88 54.2044 138.099 54.2044 138.319 54.2044C138.336 55.5562 138.319 56.9248 138.319 58.2765C138.099 58.2765 137.88 58.2765 137.66 58.2765C137.66 56.9248 137.66 55.5731 137.66 54.2044Z" fill="#038141"/>
<path d="M143.506 54.6606C144.182 53.9679 145.45 53.9341 146.092 54.6775C146.531 55.1675 146.649 55.8434 146.683 56.4854C145.652 56.5023 144.605 56.4686 143.574 56.5023C143.591 57.1613 144.047 57.8203 144.74 57.8203C145.297 57.9217 145.804 57.5499 145.956 57.0261C146.176 57.0092 146.396 57.0092 146.615 56.9923C146.48 57.5668 146.125 58.1075 145.551 58.2934C144.807 58.513 143.861 58.3779 143.371 57.7189C142.712 56.8403 142.729 55.4717 143.506 54.6606ZM143.591 55.8434C144.402 55.8434 145.196 55.8772 146.007 55.8265C145.872 55.2351 145.416 54.6606 144.757 54.7113C144.115 54.6775 143.675 55.2689 143.591 55.8434Z" fill="#038141"/>
<path d="M147.308 54.2044C147.511 54.2044 147.731 54.2044 147.933 54.2044C147.933 54.4579 147.933 54.7282 147.933 54.9985C148.238 54.4579 148.795 54.103 149.42 54.103C149.42 54.3396 149.42 54.593 149.42 54.8296C148.846 54.8465 148.221 55.1168 148.052 55.7251C147.832 56.553 147.984 57.4317 147.933 58.2765C147.714 58.2765 147.494 58.2765 147.274 58.2934C147.274 56.9248 147.308 55.573 147.308 54.2044Z" fill="#038141"/>
<path d="M150.147 54.4579C150.772 54.0017 151.651 54.0017 152.326 54.3058C152.749 54.4917 152.918 54.9479 152.985 55.3703C152.766 55.3703 152.546 55.3703 152.326 55.3703C152.141 54.6944 151.262 54.5424 150.704 54.8634C150.4 55.0155 150.434 55.4886 150.738 55.6238C151.38 55.9786 152.191 55.8941 152.8 56.3334C153.357 56.7727 153.239 57.7358 152.648 58.0907C151.938 58.4962 151.009 58.53 150.299 58.1413C149.893 57.9217 149.724 57.4655 149.657 57.0262C149.876 57.0262 150.096 57.0262 150.316 57.0262C150.468 57.8541 151.515 57.9386 152.158 57.6513C152.546 57.4824 152.512 56.8741 152.141 56.722C151.499 56.4179 150.721 56.4686 150.147 56.0631C149.64 55.6575 149.657 54.8296 150.147 54.4579Z" fill="#038141"/>
<path d="M153.898 54.2213C154.117 54.2044 154.354 54.2044 154.574 54.2044C154.574 55.5562 154.574 56.9248 154.574 58.2765C154.354 58.2765 154.134 58.2765 153.915 58.2765C153.898 56.9248 153.915 55.5731 153.898 54.2213Z" fill="#038141"/>
<path d="M157.666 54.1707C157.919 54.1707 158.173 54.1707 158.426 54.1707C158.815 55.3027 159.271 56.401 159.592 57.55C159.981 56.4348 160.369 55.3027 160.741 54.1876C160.978 54.1876 161.214 54.1707 161.468 54.1707C160.876 55.742 160.285 57.3134 159.693 58.8679C159.524 59.3748 159.136 59.7803 158.646 59.9831H158.375C158.291 59.9493 158.139 59.8817 158.054 59.8479C158.054 59.6621 158.054 59.4762 158.054 59.2734C158.325 59.2227 158.68 59.3072 158.882 59.0707C159.068 58.8172 159.153 58.4962 159.288 58.209C158.73 56.8741 158.207 55.5224 157.666 54.1707Z" fill="#038141"/>
<path d="M172.484 54.4579C173.025 54.0693 173.751 54.0524 174.393 54.1707C174.816 54.2383 175.221 54.5593 175.255 55.0155C175.306 55.8434 175.221 56.6714 175.289 57.4993C175.255 57.7359 175.509 57.7697 175.695 57.7866C175.678 57.9724 175.661 58.1414 175.644 58.3272C175.188 58.4624 174.613 58.361 174.596 57.7866C174.039 58.361 173.092 58.5638 172.383 58.1752C171.69 57.8203 171.673 56.6883 172.315 56.2828C172.907 55.911 173.633 55.9786 174.292 55.759C174.731 55.6407 174.681 54.9817 174.309 54.7958C173.718 54.5255 172.771 54.6776 172.67 55.4379C172.45 55.4379 172.231 55.4379 172.011 55.4379C172.045 55.0831 172.163 54.6945 172.484 54.4579ZM172.991 56.5531C172.535 56.6714 172.349 57.381 172.788 57.6514C173.329 57.9386 174.072 57.7866 174.444 57.2966C174.63 56.9755 174.562 56.5869 174.613 56.2321C174.089 56.401 173.532 56.401 172.991 56.5531Z" fill="#038141"/>
<path d="M176.894 54.8128C177.486 53.8497 179.277 53.8328 179.564 55.0324C179.699 56.0969 179.581 57.1952 179.631 58.2766C179.412 58.2766 179.175 58.2766 178.956 58.2766C178.922 57.2459 179.006 56.2152 178.922 55.1845C178.533 54.3228 177.114 54.7452 177.012 55.6069C176.911 56.5024 176.996 57.398 176.962 58.2935C176.742 58.2935 176.522 58.2935 176.303 58.2935C176.286 56.9417 176.286 55.59 176.269 54.2214C176.472 54.2214 176.691 54.2214 176.911 54.2214C176.911 54.3566 176.894 54.6607 176.894 54.8128Z" fill="#038141"/>
<path d="M181.727 54.2382C182.571 53.9341 183.67 54.2551 184.092 55.0999C184.515 55.911 184.447 56.9586 183.906 57.702C183.112 58.6989 181.321 58.5806 180.713 57.4486C180.105 56.3503 180.442 54.6268 181.727 54.2382ZM181.997 54.7789C181.152 55.1168 180.983 56.2489 181.287 57.0262C181.558 57.7527 182.555 58.0231 183.146 57.5331C183.788 56.9924 183.839 55.9786 183.433 55.2858C183.163 54.7958 182.521 54.5761 181.997 54.7789Z" fill="#038141"/>
<path d="M108.851 54.2213C109.071 54.2213 109.291 54.2213 109.51 54.2213C109.51 55.59 109.527 56.9417 109.493 58.3103C109.274 58.3103 109.054 58.2934 108.834 58.2934C108.851 56.9248 108.851 55.5731 108.851 54.2213Z" fill="#038141"/>
<path d="M138.961 54.2044C139.198 54.2044 139.451 54.2044 139.705 54.2044C140.11 55.3365 140.448 56.4686 140.871 57.5838C141.225 56.4517 141.597 55.3365 141.969 54.2044C142.205 54.2044 142.442 54.2044 142.679 54.2044C142.189 55.5562 141.682 56.9079 141.208 58.2596C140.972 58.2596 140.718 58.2765 140.482 58.2765C139.975 56.9248 139.468 55.5731 138.961 54.2044Z" fill="#038141"/>
<path d="M185.19 54.2213C185.41 54.2213 185.63 54.2044 185.849 54.2044C185.866 55.5731 185.866 56.9248 185.849 58.2934C185.63 58.2934 185.41 58.2765 185.19 58.2765C185.19 56.9248 185.19 55.5731 185.19 54.2213Z" fill="#038141"/>
<path d="M162.177 57.3979C162.464 57.3979 162.752 57.3979 163.039 57.3979C163.005 57.9386 163.174 58.5807 162.786 59.0369C162.633 59.2397 162.397 59.341 162.16 59.4086C162.16 59.3241 162.177 59.1383 162.177 59.0369C162.464 58.8679 162.6 58.5638 162.667 58.2596C162.549 58.2596 162.296 58.2428 162.16 58.2428C162.16 57.9724 162.16 57.6852 162.177 57.3979Z" fill="#038141"/>
<path d="M152.326 0H168.834C168.834 0.980006 168.834 1.96001 168.834 2.94002C168.395 2.94002 167.939 2.94002 167.5 2.94002C165.962 2.94002 155.266 2.94002 153.661 2.94002C153.222 2.94002 152.766 2.94002 152.326 2.94002C152.326 1.96001 152.326 0.980006 152.326 0Z" fill="#FBBA17"/>
<path d="M152.326 6.67413C152.766 6.67413 153.222 6.67413 153.661 6.67413C153.661 7.21483 153.661 7.75552 153.661 8.31311C158.274 8.31311 162.887 8.31311 167.5 8.31311C167.5 7.77241 167.5 7.23172 167.5 6.67413C167.939 6.67413 168.378 6.67413 168.834 6.67413C168.834 7.65414 168.834 8.63414 168.834 9.61415C166.249 9.61415 163.664 9.61415 161.079 9.61415C161.4 9.8507 161.755 10.1211 161.856 10.5266C162.059 11.2024 161.62 11.9797 160.944 12.1486C160.116 12.419 159.187 11.6755 159.271 10.7969C159.288 10.2393 159.71 9.83381 160.167 9.58036C157.548 9.63105 154.945 9.58036 152.326 9.59725C152.326 8.63415 152.326 7.65414 152.326 6.67413ZM160.369 10.0873C159.812 10.2055 159.558 10.949 159.913 11.3883C160.268 11.8952 161.147 11.76 161.332 11.1686C161.603 10.5942 160.978 9.90139 160.369 10.0873Z" fill="#FBBA17"/>
<path d="M160.64 12.2163C161.18 13.399 161.552 14.6832 162.025 15.8997C162.769 17.978 163.529 20.0732 164.272 22.1515C167.398 22.1515 170.524 22.1515 173.65 22.1515C172.586 23.047 171.47 23.9088 170.372 24.7536C170.203 24.3143 170.186 23.8412 170.22 23.3681C169.156 23.4694 168.142 23.875 167.111 24.1622C164.965 24.8043 162.802 25.4126 160.657 26.0546C160.64 24.2805 160.657 22.5232 160.623 20.7491C160.724 17.9104 160.572 15.0718 160.64 12.2163Z" fill="#FBBA17"/>
<path d="M148.575 21.898C151.583 21.8642 154.591 21.9318 157.581 21.9487C158.494 23.3342 159.541 24.6353 160.42 26.0377C158.882 25.5646 157.379 25.007 155.858 24.4832C154.574 23.9932 153.256 23.5877 151.972 23.1146C150.84 22.7091 149.674 22.4049 148.575 21.898Z" fill="#FBBA17"/>
<path d="M160.454 26.2912C160.775 26.2912 161.096 26.325 161.4 26.4263C163.039 26.967 164.695 27.4401 166.351 27.9808C167.128 31.1912 167.956 34.3678 168.699 37.5781C168.649 37.5274 168.53 37.4261 168.48 37.3754C167.939 36.3616 167.195 35.466 166.553 34.5198C165.725 33.3709 164.948 32.1881 164.087 31.0729C163.005 29.5015 161.839 27.9808 160.825 26.3757C160.741 26.4601 160.657 26.5277 160.572 26.6122C160.589 27.7105 160.572 28.8088 160.555 29.9239C160.538 30.5998 160.538 31.2757 160.538 31.9515C157.75 33.8102 154.979 35.6688 152.191 37.5105C152.242 37.3078 152.293 37.1219 152.377 36.9361C152.935 36.5474 153.273 35.9392 153.695 35.3985C154.658 34.1143 155.672 32.8471 156.601 31.5291C157.869 29.755 159.271 28.0991 160.454 26.2912Z" fill="#FBBA17"/>
<path d="M153.661 2.94C158.274 2.94 162.887 2.94 167.5 2.94C167.5 3.37932 167.5 3.81863 167.5 4.25794C167.5 5.20415 167.5 6.15037 167.5 7.09658C167.5 7.5021 167.5 7.92451 167.5 8.33003C162.887 8.33003 158.274 8.33003 153.661 8.33003C153.661 7.92451 153.661 7.5021 153.661 7.09658C153.661 6.15037 153.661 5.20415 153.661 4.25794C153.661 3.80173 153.661 3.36242 153.661 2.94Z" fill="#BF202F"/>
<path d="M157.852 21.2053C158.764 18.1977 159.676 15.207 160.64 12.2163C160.572 15.0549 160.724 17.9105 160.623 20.7491C160.538 20.0564 160.504 19.3636 160.488 18.6708C159.558 19.465 158.781 20.4112 157.852 21.2053Z" fill="#F47920"/>
<path d="M148.322 21.8474C148.39 21.8643 148.525 21.8981 148.575 21.915C149.674 22.4219 150.84 22.7261 151.972 23.1316C153.256 23.6047 154.574 23.9933 155.858 24.5002C155.79 24.5171 155.638 24.5509 155.571 24.5509C155.959 25.5478 156.314 26.5616 156.669 27.5754C156.094 27.8795 155.469 28.0992 154.861 28.3189C152.698 26.1561 150.468 24.0271 148.322 21.8474Z" fill="#F47920"/>
<path d="M167.111 24.1791C168.142 23.8919 169.139 23.5032 170.22 23.3849C170.203 23.8581 170.22 24.3312 170.372 24.7705V24.7874C169.308 25.6153 168.243 26.4601 167.179 27.305C167.128 26.2574 167.229 25.2098 167.111 24.1791Z" fill="#F47920"/>
<path d="M160.555 29.9071C161.738 30.2619 162.853 30.8871 164.087 31.073C164.948 32.205 165.726 33.3709 166.553 34.5199C167.196 35.4661 167.939 36.3616 168.48 37.3754C165.81 35.6351 163.208 33.7933 160.555 32.0192V31.9178C160.538 31.2588 160.555 30.583 160.555 29.9071Z" fill="#F47920"/>
<path d="M154.101 30.9378H154.117C154.929 31.225 155.79 31.2419 156.601 31.5123C155.672 32.8302 154.658 34.0805 153.695 35.3816C153.273 35.9054 152.935 36.5137 152.377 36.9192C152.918 34.9085 153.56 32.9316 154.101 30.9378Z" fill="#F47920"/>
<path d="M157.852 21.2053C158.781 20.4281 159.558 19.465 160.488 18.6708C160.521 19.3636 160.538 20.0564 160.623 20.7491C160.657 22.5233 160.64 24.2805 160.657 26.0547C162.802 25.4126 164.965 24.8043 167.111 24.1622C167.229 25.2098 167.128 26.2574 167.196 27.305C166.908 27.5247 166.638 27.7612 166.334 27.964C164.695 27.4402 163.022 26.9502 161.383 26.4095C161.079 26.3081 160.758 26.2743 160.437 26.2743C159.254 28.0823 157.852 29.755 156.584 31.5123C155.773 31.2588 154.912 31.225 154.101 30.9378C154.32 30.0592 154.608 29.1806 154.844 28.3019C155.452 28.0823 156.078 27.8626 156.652 27.5585C156.297 26.5447 155.925 25.5309 155.554 24.534C155.621 24.5171 155.773 24.5002 155.841 24.4833C157.362 25.0071 158.865 25.5647 160.403 26.0378C159.508 24.6354 158.477 23.3343 157.564 21.9488C157.666 21.7122 157.733 21.4419 157.852 21.2053Z" fill="#F26322"/>
<path d="M160.572 26.6123C160.657 26.5278 160.741 26.4602 160.825 26.3757C161.839 27.9809 163.005 29.5016 164.087 31.073C162.853 30.8871 161.738 30.2788 160.555 29.9071C160.572 28.8088 160.589 27.7105 160.572 26.6123Z" fill="#F26322"/>
</svg>
