<svg width="36" height="36" viewBox="0 0 36 36" fill="none" xmlns="http://www.w3.org/2000/svg">
<g id="Group">
<g id="Group_2">
<path id="XMLID_21_" d="M35.5 18.1802C35.5 8.50399 27.6762 0.680176 18 0.680176C8.32382 0.680176 0.5 8.50399 0.5 18.1802C0.5 27.8564 8.32382 35.6802 18 35.6802C27.6762 35.6802 35.5 27.832 35.5 18.1802Z" fill="#395196"/>
<path id="XMLID_19_" d="M19.5352 14.0367V12.3793C19.5352 11.575 20.0715 11.38 20.4614 11.38C20.8514 11.38 22.7769 11.38 22.7769 11.38V7.82149L19.584 7.79712C16.0255 7.79712 15.2212 10.4538 15.2212 12.1356V14.0123H13.1738V18.1558H15.2456C15.2456 22.8598 15.2456 28.5144 15.2456 28.5144H19.389C19.389 28.5144 19.389 22.7867 19.389 18.1558H22.46L22.85 14.0123H19.5352V14.0367Z" fill="white"/>
</g>
</g>
</svg>
