<svg width="22" height="18" viewBox="0 0 22 18" fill="none" xmlns="http://www.w3.org/2000/svg">
<g id="Group 1234">
<path id="Vector" d="M19.2118 12.6464L19.4655 12.5015L20.2989 11.9941H19.4655C19.393 12.2115 19.2843 12.429 19.2118 12.6464Z" fill="#ED6A02"/>
<path id="Vector_2" d="M20.4801 6.37715L19.6466 6.01477L19.5017 5.94229C19.5379 6.08725 19.6104 6.2322 19.6466 6.37715H20.4801Z" fill="#ED6A02"/>
<path id="Vector_3" d="M2.21591 5.83356L2.03472 5.90603L1.20123 6.3409H2.03472C2.10719 6.19594 2.14343 6.01475 2.21591 5.83356Z" fill="#ED6A02"/>
<path id="Vector_4" d="M2.21591 11.9941H1.41866L2.21591 12.5015L2.50582 12.6826C2.50582 12.6826 2.50582 12.6464 2.46958 12.6464C2.39711 12.429 2.32463 12.2115 2.21591 11.9941Z" fill="#ED6A02"/>
<path id="Vector_5" d="M6.85444 13.0088C6.96316 13.3349 7.07187 13.6611 7.10811 14.0235C7.14435 14.6033 6.78196 15.6542 7.43426 16.0166C7.79664 16.1978 7.7604 15.6542 7.72416 15.473C7.68793 15.2193 7.54297 14.8932 7.68793 14.6758C7.79664 14.4946 8.12279 14.567 8.30398 14.3859C8.44894 14.2409 8.52141 14.0235 8.59389 13.806C8.59389 13.806 9.42738 14.0235 9.826 12.7189C10.2609 12.6464 10.6595 12.429 10.7682 11.9941H7.32554C7.21683 12.2115 6.99939 12.3203 6.89068 12.5377C6.89068 12.5739 6.89068 12.6102 6.85444 12.6102C6.78196 12.7551 6.8182 12.9001 6.85444 13.0088Z" fill="#ED6A02"/>
<path id="Vector_6" d="M20.6251 6.5946H19.7554H15.3705H6.41958H6.05719H2.17967H1.96224H1.09251C0.476458 8.29782 0.548935 10.146 1.30994 11.7767H2.17967H2.32462H7.10811H10.732H17.2187H19.5379H20.4076C21.1687 10.146 21.2411 8.26158 20.6251 6.5946ZM6.38334 10.6896H5.51361L3.95536 8.26158C3.9916 8.51525 3.9916 8.69644 3.9916 8.84139V10.7258H3.3393V7.53681H4.20903L5.80352 10.001C5.73105 9.74736 5.73105 9.56616 5.73105 9.38497V7.53681H6.38334V10.6896ZM10.0434 10.6896H7.10811V7.50057H9.93472V8.00791H7.86912V8.80516H9.78976V9.31249H7.86912V10.1822H10.0434V10.6896ZM14.2471 10.6896H13.3411L12.87 8.84139C12.7976 8.62396 12.7613 8.40653 12.7251 8.15286C12.5439 8.98635 12.2902 9.81983 12.0728 10.6533H11.1668L10.2246 7.46433H10.9856L11.493 9.52993L11.6017 10.0373C11.7829 9.16754 12.0366 8.33405 12.254 7.50057H13.0875L13.5586 9.20378C13.5948 9.31249 13.6673 9.6024 13.7398 10.0735L13.8122 9.81983L13.9572 9.31249L14.3921 7.53681H15.1531L14.2471 10.6896ZM18.3421 10.2185C18.0884 10.6533 17.3999 10.762 16.8925 10.762C16.204 10.762 15.4792 10.5446 15.298 9.89231L16.0228 9.7836C16.1677 10.2909 17.0012 10.3997 17.4723 10.1822C17.6535 10.1097 17.726 9.92855 17.6535 9.74736C17.5448 9.52993 17.2911 9.45745 17.0737 9.42121C16.6026 9.3125 15.9866 9.27626 15.6604 8.95011C15.5879 8.87763 15.7329 9.02259 15.6604 8.95011C15.3343 8.62396 15.4067 8.04415 15.8054 7.79048C15.8054 7.79048 15.7691 7.79048 15.7691 7.82672C15.7691 7.82672 15.8054 7.82672 15.8054 7.79048C15.8416 7.75424 15.8778 7.75424 15.8778 7.718C15.8416 7.718 15.8416 7.75424 15.8054 7.75424C16.5301 7.28314 18.0884 7.42809 18.3058 8.33406L17.581 8.40653C17.4723 7.97167 16.4939 7.82672 16.204 8.1891C16.1677 8.26158 16.1315 8.33405 16.1677 8.44277C16.2402 8.69644 16.6388 8.76892 16.8925 8.80516C17.2549 8.87763 17.6173 8.91387 17.9434 9.09506C18.4508 9.27626 18.5595 9.81983 18.3421 10.2185Z" fill="#ED6A02"/>
<path id="Vector_7" d="M19.1393 11.9941H16.9288V12.0303C16.8563 12.3203 16.7476 12.5377 16.5301 12.7189C16.4939 12.7551 16.4577 12.7551 16.4577 12.7914C16.4939 12.7914 16.4939 12.7551 16.5301 12.7551C16.3127 12.9363 16.3489 13.1175 16.4577 13.3349C16.5664 13.6248 16.4939 13.7698 16.2402 13.9872C15.9866 14.1684 15.6966 14.3859 15.5879 14.712C15.5155 14.9657 15.5879 15.3643 15.7691 15.5455C15.9503 15.7629 16.4214 15.1106 16.5664 14.9657C16.7838 14.7482 17.0012 14.567 17.1824 14.3134C17.3999 14.0597 17.581 13.7336 17.9072 13.5886C18.0159 13.5524 18.0884 13.5886 18.1609 13.6248C16.4214 16.379 13.1962 17.9735 9.97096 17.6473C6.89068 17.3574 4.17279 15.3281 2.90444 12.5377C2.83197 12.3565 2.75949 12.2115 2.68701 12.0303H2.5783H2.54206H2.32463C2.36087 12.2115 2.43334 12.3565 2.54206 12.5377C2.54206 12.5377 2.54206 12.5377 2.54206 12.5739C3.77417 15.3643 6.45582 17.4299 9.49986 17.901C12.6164 18.3721 15.8054 17.14 17.7985 14.6758C18.3421 14.0235 18.7769 13.2987 19.1031 12.5377C19.1755 12.3565 19.2843 12.1753 19.3205 11.9941H19.1393Z" fill="#ED6A02"/>
<path id="Vector_8" d="M2.36086 6.37715H2.3971H2.54205C3.19435 4.27532 4.68013 2.49963 6.56453 1.41247C6.60077 1.41247 6.63701 1.41247 6.63701 1.41247C6.63701 1.6299 6.23838 1.84733 6.05719 1.99229C5.73104 2.24596 5.4049 2.53587 5.15123 2.86201C5.00627 3.07944 4.78884 3.44183 4.86132 3.73174C4.89756 3.87669 5.29618 3.00697 5.44114 3.11568C5.62233 3.29688 5.33242 3.84045 5.2237 4.02165C5.07875 4.27532 4.86132 4.71018 5.15123 4.92761C5.4049 5.14504 5.62233 5.21752 5.76728 5.54366C5.83976 5.68862 5.94848 5.72486 6.09343 5.83357C6.20215 5.94229 6.20214 6.19596 6.23838 6.34091H6.56453C6.52829 6.12348 6.56453 5.90605 6.63701 5.72486C6.67325 5.65238 6.67325 5.5799 6.70949 5.50743C6.74572 5.25376 6.3471 5.36247 6.23838 5.25376C6.23838 5.21752 6.23838 5.18128 6.27462 5.18128C6.23838 5.21752 6.23838 5.21752 6.23838 5.25376C6.12967 5.14504 6.67325 4.81889 6.74572 4.74642C6.41958 4.56522 6.27462 4.85513 6.02095 4.92761C5.80352 5.00009 5.62233 4.78265 5.65857 4.60146C5.65857 4.09412 6.27462 3.65926 6.67325 3.44183C6.89068 3.33311 7.21682 3.2244 7.39802 3.44183C7.54297 3.62302 7.54297 3.91293 7.54297 4.13036C7.54297 4.27532 7.54297 4.74642 7.68792 4.42027C7.83288 4.13036 7.86912 3.84045 7.97783 3.55055C7.97783 3.55055 7.97783 3.55054 8.01407 3.51431C8.30398 3.18816 8.66637 2.86201 9.06499 2.71706C9.31866 2.60834 9.57233 2.60834 9.86224 2.5721C10.2246 2.53587 9.93471 2.42715 9.93471 2.20972C9.93471 2.06476 10.3333 2.42715 10.3696 2.42715C10.5145 2.49963 10.7682 2.5721 10.9132 2.46339C11.0943 2.2822 10.0072 2.02853 10.5145 1.73862C10.9132 1.52119 11.1668 1.99229 11.3843 2.20972C11.5292 2.35467 11.6017 2.06476 11.6017 1.95605C11.5654 1.73862 11.493 1.52119 11.3843 1.33999C11.2755 1.1588 10.9856 0.687701 10.6957 0.796417C10.587 0.832655 9.75352 1.52119 9.75352 1.48495C9.64481 1.37623 9.78976 1.05009 9.64481 0.941371C9.60857 0.941371 9.06499 1.05009 9.28242 0.796417C9.42737 0.615224 10.6595 1.05009 10.4783 0.578985L10.8769 0.397793C10.9494 0.506508 11.4567 0.905132 11.5292 0.615224C11.5654 0.506508 11.4567 0.434031 11.4567 0.361554C11.7466 0.397792 12.0003 0.397793 12.2902 0.434031C12.2902 0.723939 12.1815 1.08633 12.6164 1.01385C13.015 0.941371 13.3049 0.651462 13.6673 0.506508C13.5948 0.542746 13.4861 0.615223 13.3774 0.687701C14.0297 0.868893 14.6457 1.1588 15.2255 1.48495C15.3343 1.6299 15.298 1.91981 15.5154 1.99229C15.6966 2.06476 15.9141 2.13724 16.059 2.2822C16.1315 2.35467 16.3489 2.64458 16.1677 2.71706C15.8778 2.82577 15.298 1.99229 15.0443 2.2822C15.0806 2.20972 16.2402 2.97073 15.9503 3.40559C15.8054 3.62302 15.4067 3.6955 15.5879 4.02165C15.7329 4.31155 16.2402 4.52899 16.4577 4.20284C16.5664 4.02165 16.7113 3.6955 16.9288 3.91293C17.1462 4.13036 17.2187 4.38403 17.5448 4.52899C17.7622 4.6377 17.726 4.92761 17.9072 5.00009C18.1246 5.1088 18.5595 4.96385 18.7044 5.21752C18.7407 5.25376 18.7407 5.28999 18.7044 5.36247C18.5957 5.54366 18.2333 5.68862 18.0884 5.7611C17.9434 5.83357 17.6898 5.36247 17.6173 5.28999C17.4723 5.1088 17.2911 5.14504 17.2549 4.89137C17.2187 4.56522 17.0012 4.52899 16.7113 4.6377C16.4939 4.71018 16.059 4.78266 15.8778 4.92761C15.7329 5.07256 15.8416 5.36247 15.5879 5.39871C15.3705 5.43495 15.1531 5.43495 15.1168 5.68862V5.72486C15.1168 5.7611 15.1168 5.7611 15.1168 5.72486C15.1168 5.94229 15.1168 6.12348 15.1531 6.34091C15.1531 6.34091 15.1531 6.34091 15.1531 6.37715H19.3205H19.4292C19.393 6.26844 19.3567 6.12348 19.3205 6.01477C19.3205 5.97853 19.2843 5.94229 19.2843 5.86981V5.83357C18.2333 3.00697 15.7691 0.868893 12.8338 0.2166C9.75352 -0.471932 6.49205 0.506508 4.35398 2.78954C3.48426 3.65926 2.83196 4.71018 2.3971 5.83357C2.3971 5.86981 2.3971 5.86981 2.36086 5.90605C2.36086 5.90605 2.36086 5.90605 2.36086 5.94229C2.32462 6.08724 2.25214 6.2322 2.21591 6.37715H2.36086ZM19.1393 5.79733V5.7611C19.1031 5.79733 19.1393 5.79733 19.1393 5.79733ZM14.7182 1.1588C14.8269 1.19504 14.9356 1.26752 15.0081 1.30376C14.8994 1.23128 14.7907 1.1588 14.6457 1.12256C14.682 1.12256 14.682 1.12256 14.7182 1.1588Z" fill="#ED6A02"/>
</g>
</svg>
