<svg width="20" height="21" viewBox="0 0 20 21" fill="none" xmlns="http://www.w3.org/2000/svg">
<g id="map-pin" clip-path="url(#clip0_2191_243)">
<path id="Vector" d="M17.5 9.01367C17.5 14.847 10 19.847 10 19.847C10 19.847 2.5 14.847 2.5 9.01367C2.5 7.02455 3.29018 5.11689 4.6967 3.71037C6.10322 2.30385 8.01088 1.51367 10 1.51367C11.9891 1.51367 13.8968 2.30385 15.3033 3.71037C16.7098 5.11689 17.5 7.02455 17.5 9.01367Z" stroke="white" stroke-linecap="round" stroke-linejoin="round"/>
<path id="Vector_2" d="M10 11.5137C11.3807 11.5137 12.5 10.3944 12.5 9.01367C12.5 7.63296 11.3807 6.51367 10 6.51367C8.61929 6.51367 7.5 7.63296 7.5 9.01367C7.5 10.3944 8.61929 11.5137 10 11.5137Z" stroke="white" stroke-linecap="round" stroke-linejoin="round"/>
</g>
<defs>
<clipPath id="clip0_2191_243">
<rect width="20" height="20" fill="white" transform="translate(0 0.680176)"/>
</clipPath>
</defs>
</svg>
