<svg width="21" height="18" viewBox="0 0 21 18" fill="none" xmlns="http://www.w3.org/2000/svg">
<g id="Group">
<g id="Group_2">
<g id="Group_3">
<g id="B186_x2C__Business_x2C__Plane_x2C__Paper">
<g id="Group_4">
<g id="Group_5">
<g id="Group_6">
<path id="Vector" d="M5.08369 11.4046L5.4272 16.1794L7.24781 12.9847C7.24781 12.9847 7.24781 12.9847 7.24781 12.9504L16.6257 2.98853L5.08369 11.4046Z" fill="#ED6A02"/>
<path id="Vector_2" d="M7.76308 13.0878L12.1257 17.8282L17.7593 2.37021L7.76308 13.0878Z" fill="#ED6A02"/>
<path id="Vector_3" d="M1.75163 7.72902L4.91193 11.0267L16.9692 2.19849L1.75163 7.72902Z" fill="#ED6A02"/>
<path id="Vector_4" d="M3.09132 4.70613C3.91575 4.70613 4.63712 4.01911 4.63712 3.19468C4.63712 2.37025 3.9501 1.68323 3.09132 1.68323C2.26689 1.68323 1.54552 2.37025 1.54552 3.19468C1.57987 4.01911 2.26689 4.70613 3.09132 4.70613Z" fill="#ED6A02"/>
<path id="Vector_5" d="M15.286 15.8702C14.702 15.8702 14.2211 16.3511 14.2211 16.9351C14.2211 17.5191 14.702 18 15.286 18C15.8699 18 16.3509 17.5191 16.3509 16.9351C16.3509 16.3511 15.8699 15.8702 15.286 15.8702Z" fill="#ED6A02"/>
<path id="Vector_6" d="M19.6142 5.15268C19.0302 5.15268 18.5493 5.63359 18.5493 6.21756C18.5493 6.80153 19.0302 7.28245 19.6142 7.28245C20.1982 7.28245 20.6791 6.80153 20.6791 6.21756C20.6791 5.63359 20.1982 5.15268 19.6142 5.15268Z" fill="#ED6A02"/>
<path id="Vector_7" d="M7.0417 0.412214H10.9577C11.0608 0.412214 11.1638 0.30916 11.1638 0.206107C11.1638 0.103054 11.0608 0 10.9577 0H7.0417C6.93865 0 6.83559 0.103054 6.83559 0.206107C6.83559 0.30916 6.9043 0.412214 7.0417 0.412214Z" fill="#ED6A02"/>
<path id="Vector_8" d="M9.8585 1.4771C9.8585 1.58016 9.96155 1.68321 10.0646 1.68321H11.8165C11.9196 1.68321 12.0226 1.58016 12.0226 1.4771C12.0226 1.37405 11.9539 1.271 11.8165 1.271H10.0646C9.96155 1.271 9.8585 1.37405 9.8585 1.4771Z" fill="#ED6A02"/>
<path id="Vector_9" d="M2.67911 13.9466H1.82033V14.8053H2.67911V13.9466Z" fill="#ED6A02"/>
<path id="Vector_10" d="M1.82033 13.0878H0.961548V13.9466H1.82033V13.0878Z" fill="#ED6A02"/>
<path id="Vector_11" d="M2.67911 12.229H1.82033V13.0878H2.67911V12.229Z" fill="#ED6A02"/>
<path id="Vector_12" d="M1.82033 11.3702H0.961548V12.229H1.82033V11.3702Z" fill="#ED6A02"/>
<path id="Vector_13" d="M19.202 10.9237H18.3432V11.7825H19.202V10.9237Z" fill="#ED6A02"/>
<path id="Vector_14" d="M18.3089 10.0649H17.4501V10.9237H18.3089V10.0649Z" fill="#ED6A02"/>
<path id="Vector_15" d="M19.202 9.20612H18.3432V10.0649H19.202V9.20612Z" fill="#ED6A02"/>
<path id="Vector_16" d="M18.3089 8.34732H17.4501V9.2061H18.3089V8.34732Z" fill="#ED6A02"/>
</g>
</g>
</g>
</g>
</g>
</g>
</g>
</svg>
