<svg width="24" height="24" viewBox="0 0 24 24" fill="none" xmlns="http://www.w3.org/2000/svg">
<g id="send 1" clip-path="url(#clip0_50_3738)">
<path id="Vector" d="M23.7941 0.206014C23.5952 0.00702991 23.2967 -0.0541888 23.0358 0.0503893L0.442009 9.0878C0.183446 9.19115 0.0103368 9.43739 0.000446174 9.71564C-0.00944445 9.99389 0.145806 10.2518 0.396259 10.3732L9.30565 14.6943L13.6267 23.6037C13.7445 23.8467 13.9906 24 14.2592 24C14.2675 24 14.2759 23.9999 14.2843 23.9995C14.5625 23.9896 14.8087 23.8165 14.9121 23.558L23.9497 0.964358C24.0542 0.703217 23.9929 0.404905 23.7941 0.206014Z" fill="#4DBBEB"/>
<path id="Vector_2" d="M23.794 0.206055L9.30566 14.6943L13.6267 23.6037C13.7445 23.8467 13.9906 24 14.2592 24C14.2675 24 14.2759 23.9999 14.2843 23.9995C14.5626 23.9896 14.8087 23.8165 14.9121 23.558L23.9497 0.964398C24.0541 0.703258 23.9929 0.404945 23.794 0.206055Z" fill="#2488FF"/>
</g>
<defs>
<clipPath id="clip0_50_3738">
<rect width="24" height="24" fill="white"/>
</clipPath>
</defs>
</svg>
