<svg width="55" height="76" viewBox="0 0 55 76" fill="none" xmlns="http://www.w3.org/2000/svg">
<g id="Group 1237">
<path id="Vector" d="M54.5416 58.8439C54.4688 58.4799 54.396 58.0431 54.3232 57.6792C54.2504 57.3152 54.1048 56.8785 53.9592 56.5145C53.8136 56.1505 53.6681 55.7865 53.5225 55.4226C53.3769 55.0586 53.1585 54.6946 52.9401 54.3306C50.9019 50.6909 47.3349 48.6526 43.3312 47.5607C41.3658 47.0512 39.4004 46.6144 37.3621 46.3233L35.3239 43.4115C39.7643 39.9174 42.9673 36.132 44.496 30.5996C46.0246 30.0901 47.1166 29.2165 47.7717 27.6879C48.4996 26.1592 48.6452 24.0481 47.9173 22.4467C47.4805 21.3547 46.8254 20.8452 45.8063 20.4084C45.7335 14.8033 44.2048 9.78045 40.0555 5.77676C39.8371 5.55838 39.6187 5.34 39.4003 5.19442C39.182 4.97603 38.9636 4.83041 38.7452 4.61202C38.5268 4.39364 38.3084 4.24809 38.0173 4.1025C37.7989 3.95691 37.5077 3.73852 37.2893 3.59293C37.0709 3.44734 36.7798 3.30172 36.5614 3.15614C36.343 3.01055 36.0518 2.86498 35.7606 2.71939C35.4694 2.5738 35.2511 2.42821 34.9599 2.35542C34.6687 2.20983 34.4503 2.13703 34.1591 1.99144C33.868 1.91865 33.5768 1.77304 33.3584 1.70025C33.0672 1.62745 32.7761 1.48189 32.5577 1.4091C32.2665 1.3363 31.9753 1.26352 31.6841 1.19072C31.393 1.11793 31.1018 1.0451 30.8106 0.972303C30.5194 0.899509 30.2282 0.899544 29.9371 0.82675C29.6459 0.753956 29.3547 0.753929 29.0635 0.753929C28.7724 0.753929 28.4812 0.681152 28.19 0.681152C27.8988 0.681152 27.6077 0.681152 27.3165 0.681152C26.9525 0.681152 26.5157 0.681135 26.1518 0.753929C21.1289 1.26349 16.7613 3.44733 13.6311 7.45102C10.4282 11.4547 9.62743 15.5312 9.19066 20.4812C8.09874 20.9908 7.58919 21.6459 7.15243 22.8106C6.57007 24.4121 6.78845 26.5232 7.5164 28.0518C8.09875 29.1438 8.89949 30.0173 10.137 30.3085C10.3554 30.3813 10.501 30.3812 10.7193 30.454C12.5392 35.768 15.6694 40.3541 20.3282 43.557C19.6731 44.4306 19.0179 45.3769 18.2172 46.1048C12.3936 46.9784 6.71566 48.1431 2.93035 53.1659C1.98402 54.4762 1.03769 56.1505 0.673716 57.7519C0.0913607 60.0814 -0.0542237 72.238 0.382543 74.8586C0.455337 75.2226 0.455333 75.2954 0.673716 75.5866C9.9914 75.805 19.4547 75.5866 28.8452 75.5138H45.5151C48.1357 75.5138 50.9019 75.7322 53.5225 75.5138C53.9592 75.5138 54.2504 75.5138 54.5416 75.2226C55.0511 73.6211 54.9056 60.9549 54.5416 58.8439ZM45.2967 22.0827C45.3695 22.0827 45.4423 22.1555 45.5151 22.1555C46.0974 22.5195 46.3886 23.029 46.5342 23.6842C46.8982 25.0673 46.5342 26.7416 45.8063 27.9791L45.2239 28.4158L45.0783 28.343C45.1511 26.232 45.1511 24.1209 45.2967 22.0827ZM10.137 28.2702L9.9186 28.4158C9.40904 27.7607 9.04508 27.1055 8.89949 26.3048C8.53551 24.7761 8.75389 23.4658 9.55463 22.2283L9.84582 22.4467C10.137 24.2665 10.2826 26.4503 10.137 28.2702ZM38.454 48.3615C39.2548 48.4343 40.0555 48.6527 40.8562 48.8711C38.7452 53.5299 34.6687 59.1351 31.7569 63.5027C31.7569 62.7748 31.6841 62.0468 31.6113 61.3189C31.4658 59.4262 31.3202 57.388 30.7378 55.6409C30.5922 55.277 30.5922 55.1314 30.5194 54.7674C30.8834 54.4034 30.9562 54.4034 31.4658 54.2578C31.7569 55.0586 31.393 56.1505 31.4658 57.024L31.6841 57.0968C32.6305 56.2961 33.14 54.8402 33.9408 53.8211C35.4694 51.8556 37.2165 50.4725 38.454 48.3615ZM36.343 48.3615C35.2511 49.7446 33.7952 51.4188 32.2665 52.2924C31.1018 50.7637 30.0099 49.1622 28.918 47.6336C30.7378 46.8328 31.9025 45.5225 33.504 44.5034L33.7224 44.5762C34.7415 45.3041 35.615 47.2696 36.343 48.3615ZM28.1172 53.1659C27.6804 53.1659 27.2437 53.1659 26.8797 53.0203C26.5157 52.8747 26.5157 52.802 26.3701 52.5108C26.4429 51.4189 27.6077 50.3269 28.2628 49.4534C29.1363 50.2542 29.7187 51.6372 30.3738 52.6563C29.6459 52.9475 28.8452 53.0203 28.1172 53.1659ZM29.3547 64.449C29.2091 65.3954 28.918 66.1961 28.554 67.0697C26.1518 62.4108 26.5885 59.863 27.6077 54.9858C28.0444 54.9858 28.4812 54.9858 28.918 55.1314C28.918 55.2042 28.9908 55.277 28.9908 55.277C29.7187 56.8056 29.6459 62.5564 29.3547 64.449ZM11.1561 20.2628C10.9377 16.9143 12.0297 13.129 13.8495 10.29C16.6157 5.99515 20.3282 3.73853 25.2782 2.64661C27.4621 2.35543 30.1555 2.2826 32.1937 3.15614C36.4158 4.39364 39.6915 7.08704 41.8026 10.9451C43.4768 14.0025 44.0592 17.2055 44.0592 20.6996C42.9673 20.8452 41.9482 20.9908 40.8562 20.9908C39.7643 19.0253 38.818 18.1518 36.8525 16.9871C35.0327 16.6231 33.2856 16.6959 31.6841 17.7878C30.4466 18.5886 29.7187 19.8261 28.9908 21.1364H26.8069C25.8606 19.3165 24.6959 17.715 22.6576 16.9871C22.4392 16.9143 22.2937 16.8415 22.0753 16.8415C21.8569 16.7687 21.7113 16.7687 21.4929 16.7687C21.2745 16.7687 21.129 16.6959 20.9106 16.6959C20.6922 16.6959 20.5466 16.6959 20.3282 16.6959C20.1098 16.6959 19.9642 16.7687 19.7459 16.7687C19.5275 16.7687 19.3819 16.8415 19.1635 16.9143C18.9451 16.9871 18.7995 17.0599 18.5811 17.1327C18.3628 17.2055 18.2172 17.2783 17.9988 17.351C16.4701 18.079 15.5238 19.3165 14.7958 20.8452C14.0679 20.7724 13.2672 20.7724 12.5392 20.7724C12.1752 20.7724 11.8841 20.6996 11.5929 20.6268C11.3017 20.554 11.3745 20.4812 11.1561 20.2628ZM39.5459 23.2474C39.5459 23.393 39.5459 23.6114 39.5459 23.757C39.5459 23.9026 39.5459 24.1209 39.4731 24.2665C39.4731 24.4121 39.4004 24.6305 39.3276 24.7761C39.2548 24.9217 39.2548 25.1401 39.182 25.2857C38.5268 26.8143 37.5077 27.5423 36.0518 28.1974C35.3239 28.2702 34.6687 28.343 34.0136 28.1247C32.7033 27.7607 31.6841 26.9599 31.1018 25.7952C30.5194 24.6305 30.3738 23.2474 30.7378 22.0099C31.3202 20.3356 32.4849 19.3893 34.0136 18.5886C34.7415 18.5158 35.4695 18.5158 36.1974 18.7342C37.4349 19.1709 38.5268 20.0445 39.1092 21.2092C39.182 21.3548 39.2548 21.5003 39.3276 21.7187C39.4004 21.8643 39.4003 22.0827 39.4731 22.2283C39.5459 22.3739 39.5459 22.5923 39.5459 22.7379C39.5459 22.8834 39.5459 23.1018 39.5459 23.2474ZM24.6231 25.868C23.8223 27.1783 22.8032 27.7607 21.3473 28.1974C20.3282 28.1974 19.4547 28.1246 18.5811 27.6151C17.4164 26.9599 16.6157 25.868 16.3245 24.5577C16.2517 24.4121 16.2517 24.1937 16.2517 24.0481C16.2517 23.9026 16.2517 23.6842 16.1789 23.5386C16.1789 23.393 16.1789 23.1746 16.1789 23.029C16.1789 22.8835 16.1789 22.6651 16.2517 22.5195C16.2517 22.3739 16.3245 22.1555 16.3245 22.0099C16.3245 21.8643 16.3973 21.7187 16.4701 21.5003C16.5429 21.3547 16.6157 21.2092 16.6885 21.0636C16.7613 20.918 16.8341 20.7724 16.9069 20.6268C17.7076 19.3893 18.8723 18.7341 20.3282 18.443C21.0562 18.443 21.7841 18.5158 22.4393 18.8069C22.5848 18.8797 22.7304 18.9526 22.876 19.0254C23.0216 19.0982 23.1672 19.1709 23.3128 19.3165C23.4584 19.3893 23.604 19.5349 23.6768 19.6077C23.8223 19.7533 23.8951 19.8261 24.0407 19.9717C24.1863 20.1173 24.2591 20.1901 24.3319 20.3356C24.4047 20.4812 24.5503 20.6268 24.6231 20.7724C24.6959 20.918 24.7687 21.0636 24.8415 21.2092C24.9143 21.3548 24.9871 21.5003 24.9871 21.6459C25.5694 23.1018 25.351 24.6305 24.6231 25.868ZM15.1598 35.6953C15.087 35.6225 15.0142 35.4769 14.9414 35.4041C13.1216 32.6379 11.0833 26.0864 11.8113 22.8834L12.248 22.7379C12.976 22.5923 13.7039 22.6651 14.4319 22.6651C14.4319 24.8489 14.8686 26.8143 16.4701 28.4158C17.6348 29.5805 19.2363 30.1629 20.9106 30.1629C22.6576 30.1629 24.1863 29.5077 25.351 28.1974C26.3702 27.1055 26.8797 26.1592 27.0253 24.7033C27.0981 24.4121 27.0981 23.3202 27.3893 23.1746C27.4621 23.1018 28.0444 23.1018 28.1172 23.1018C28.3356 23.1018 28.554 23.1746 28.7724 23.1746C28.918 23.5386 28.918 23.6114 28.918 23.9754C28.918 25.6496 29.5731 27.3239 30.8834 28.4886C32.1209 29.5805 33.7952 30.2357 35.4695 30.1629C35.9062 30.1629 36.2702 30.0901 36.707 30.0173C38.5268 29.2894 39.9827 28.2702 40.7834 26.3776C41.293 25.2129 41.4386 24.0481 41.5114 22.8106L43.6224 22.7379C43.5496 29.2894 42.1665 34.8217 37.3621 39.5533C35.2511 41.6644 32.7761 43.2659 29.8643 43.9938C28.19 44.285 26.6613 44.3578 25.0598 43.921C20.9834 42.7563 17.1253 39.1894 15.1598 35.6953ZM21.8569 44.4306C23.8951 45.3769 25.8606 46.3232 27.7532 47.7063C26.8069 48.6527 26.0062 49.8174 25.1326 50.8365L24.2591 52.074C22.4393 51.1277 20.9834 49.7446 20.037 47.9247C20.4738 46.6872 21.2017 45.5953 21.8569 44.4306ZM26.1518 54.6946C25.9334 55.8593 25.6422 56.9512 25.4238 58.0431L25.2054 58.4071C24.4047 57.6792 23.8223 54.6218 23.5312 53.4571C24.4047 53.8211 25.2782 54.3306 26.1518 54.6946ZM16.9797 48.1431C17.4892 48.1431 19.0179 51.7828 19.6731 52.3652C20.2554 52.438 20.3282 52.0012 20.9106 51.9284C20.9834 52.0012 20.9834 52.0012 21.0562 52.074C21.6385 52.6563 24.5503 62.0468 25.2782 63.7211C25.9334 65.177 27.5349 67.8704 27.6077 69.3991H27.3893L26.8797 68.7439C22.4392 62.1924 17.8532 55.5681 13.8495 48.7255C14.8686 48.5071 15.8878 48.2887 16.9797 48.1431ZM53.1585 66.1961C53.1585 68.7439 53.1585 71.2917 53.1585 73.7667H49.7372H16.7613L7.5164 73.6939C5.76933 73.6939 3.87667 73.5483 2.1296 73.7667C1.69284 72.3108 1.83843 62.1924 2.05682 60.4454C2.12961 59.2806 2.42078 58.1159 2.85755 56.9512C4.24064 53.3843 7.15242 51.2005 10.501 49.6718C11.0833 49.3806 11.7385 49.1622 12.3208 48.9438C14.5047 52.8019 24.7687 69.6174 27.6805 71.7285L28.0444 71.6557C29.5731 69.9086 30.7378 67.7248 32.0481 65.8322C34.6687 61.9013 37.3621 57.9703 39.9099 53.8939C40.8562 52.2924 41.657 50.6909 42.6761 49.0894L42.9673 48.9438C46.3886 49.7446 49.5188 51.5644 51.4114 54.6218C53.5225 58.3343 53.1585 62.1924 53.1585 66.1961Z" fill="#ED6A02"/>
<path id="Vector_2" d="M26.8795 34.385C28.4082 34.749 30.0825 34.749 31.5384 34.0938C31.8296 33.7299 31.9752 33.5115 32.048 33.0747C31.9024 32.7836 31.9752 32.7836 31.684 32.7108C31.1016 32.638 30.3009 32.8563 29.7185 33.0019C28.1899 33.3659 27.0251 32.5652 25.5692 32.1284C25.2781 32.638 25.1325 32.7107 25.2053 33.3659C25.5692 33.9482 26.0788 34.2394 26.8795 34.385Z" fill="#ED6A02"/>
<path id="Vector_3" d="M10.7921 62.9938C10.2097 62.921 9.99135 62.7754 9.48179 62.9938C8.82664 64.0857 8.97223 70.71 9.26341 72.1659C9.77297 72.5299 10.0641 72.5298 10.7193 72.457C11.1561 70.2732 10.7921 65.4688 10.7921 62.9938Z" fill="#ED6A02"/>
<path id="Vector_4" d="M37.7261 62.4109C37.7261 65.1043 37.6533 67.8705 37.8717 70.5639C41.3658 70.5639 44.8599 70.7095 48.3541 70.4911C48.5724 67.9433 48.4269 65.2499 48.4269 62.7021C45.0783 62.1198 41.1474 62.1925 37.7261 62.4109ZM46.8254 68.8896C44.496 68.8896 42.0209 69.108 39.7643 68.8896C39.6187 68.8169 39.5459 68.6713 39.4731 68.5257C39.5459 67.1426 39.1092 65.6139 39.6187 64.3764C40.0555 64.0124 40.2739 64.0852 40.8562 64.0852H42.8217C44.132 64.0852 45.5151 64.0852 46.8254 64.158V68.8896Z" fill="#ED6A02"/>
</g>
</svg>
