<svg width="75" height="76" viewBox="0 0 75 76" fill="none" xmlns="http://www.w3.org/2000/svg">
<g id="Mhoms 1">
<path id="Vector" d="M29.3341 7.04883C30.1928 7.16224 31.0678 7.24325 31.9265 7.38907C37.9213 8.345 42.863 11.1966 46.7515 15.8142C49.6841 19.2977 51.4663 23.332 52.1144 27.8525C52.9407 33.8149 51.7418 39.3236 48.5013 44.3949C48.2421 44.8 48.2583 45.0268 48.6147 45.3508C49.6517 46.3392 50.64 47.3599 51.6932 48.4131C52.3251 47.7164 52.9407 47.0521 53.5726 46.3554C53.7833 46.5498 53.8805 46.6146 53.9615 46.6956C58.3523 51.0864 62.7431 55.461 67.1177 59.868C70.4391 63.2219 70.0665 68.4228 66.3238 71.1609C63.537 73.2024 59.6484 73.008 57.0723 70.6425C55.5331 69.2167 54.0911 67.7099 52.6167 66.2355C49.5059 63.1247 46.4112 60.03 43.268 56.8868C43.9323 56.2387 44.5966 55.6068 45.2933 54.9425C44.1267 53.776 43.0412 52.658 41.9232 51.5887C41.826 51.4915 41.4696 51.5725 41.2751 51.6697C39.5415 52.5122 37.8565 53.5005 36.058 54.181C32.2343 55.623 28.2648 55.8823 24.2304 55.218C18.268 54.2296 13.3425 51.3781 9.47022 46.7604C6.53762 43.2608 4.73918 39.194 4.12349 34.6574C4.02628 33.9769 3.94527 33.3126 3.86426 32.6321C3.86426 31.7734 3.86426 30.9309 3.86426 30.0722C3.89666 29.8615 3.94527 29.6671 3.96147 29.4565C4.1883 25.973 5.12803 22.684 6.86167 19.6865C10.8798 12.671 16.8908 8.47462 24.9433 7.29186C25.5914 7.19465 26.2395 7.12984 26.9038 7.04883C27.7139 7.04883 28.524 7.04883 29.3341 7.04883ZM50.2674 31.2225C50.0891 18.4066 39.7197 9.0741 27.9893 9.17132C15.384 9.28473 5.88953 19.6217 6.00295 31.4331C6.13257 44.0385 16.3886 53.533 28.2648 53.4195C40.9025 53.3061 50.2674 43.0501 50.2674 31.2225ZM51.677 51.5887C49.9757 49.8875 48.4203 48.332 47.0107 46.9225C45.909 48.0242 44.791 49.1422 43.5921 50.3411C45.0341 51.7831 46.5895 53.3385 48.2583 54.9912C47.594 55.6068 46.9135 56.2063 46.2654 56.8058C46.3464 56.9354 46.3626 56.984 46.3788 57.0002C50.3322 60.9536 54.2693 64.9069 58.2227 68.844C59.211 69.8162 60.41 70.3508 61.8195 70.4319C64.4605 70.5777 66.988 68.3904 67.2149 65.7656C67.3607 63.951 66.745 62.4766 65.4812 61.2128C61.6737 57.4215 57.8824 53.614 54.0911 49.8226C53.9777 49.7092 53.8481 49.5958 53.605 49.3852C53.0055 50.0819 52.4061 50.7624 51.677 51.5887Z" fill="#ED6A02"/>
<path id="Vector_2" d="M20.2933 29.2459C20.9414 29.6833 21.5894 30.137 22.2375 30.5582C22.3348 30.6231 22.5292 30.6393 22.6426 30.5907C23.1611 30.3638 23.6795 30.1208 24.2628 29.8454C22.7884 28.4196 22.0755 26.7345 22.351 24.7093C22.5292 23.3321 23.1125 22.1331 24.1656 21.2096C26.5149 19.1195 29.6743 19.1033 32.0561 21.1772C33.3685 22.3275 33.9679 23.8181 33.9679 25.5518C33.9679 27.2692 33.2388 28.6626 32.0075 29.8616C32.5745 30.1208 33.0606 30.38 33.5791 30.5745C33.7249 30.6231 33.9517 30.6069 34.0813 30.5258C34.7132 30.137 35.3127 29.6995 35.977 29.2621C35.1507 28.1603 34.778 26.929 35.1345 25.5356C35.3937 24.5472 35.9446 23.7695 36.7709 23.17C38.3587 22.0197 40.5946 22.1817 42.069 23.5589C43.349 24.7741 44.0295 27.0748 42.3769 29.3107C45.3419 30.8013 46.9621 33.183 47.1403 36.5693C46.4274 36.5693 45.7631 36.5693 45.0502 36.5693C44.8072 33.8635 43.5272 31.903 40.8863 31.0443C39.0392 30.4448 37.3218 30.8013 35.6854 31.9678C38.2939 34.3334 39.6873 37.2336 39.7521 40.7818C39.0392 40.7818 38.3911 40.7818 37.6782 40.7818C37.5324 37.59 36.2686 34.9815 33.6601 33.0858C31.9427 31.8382 30.0146 31.2711 27.8921 31.336C25.3322 31.4008 23.1611 32.3729 21.3788 34.1713C19.5966 35.986 18.7379 38.2057 18.6568 40.7656C17.9602 40.7656 17.3121 40.7656 16.5992 40.7656C16.5344 39.0644 16.9394 37.4766 17.6199 35.9536C18.3166 34.4306 19.3211 33.102 20.6497 31.9678C18.9161 30.7203 17.1014 30.3962 15.1734 31.1091C12.6944 32.0164 11.4793 33.9121 11.2686 36.5531C10.5882 36.5531 9.92386 36.5531 9.19476 36.5531C9.19476 34.9652 9.63222 33.5233 10.4909 32.2271C11.3497 30.9309 12.5 29.9912 13.9582 29.3107C13.0671 28.2089 12.743 27.01 13.0347 25.6814C13.2453 24.6931 13.78 23.8829 14.5901 23.2511C16.1941 22.0197 18.4624 22.1169 19.9854 23.5265C21.5246 24.9847 21.6543 27.091 20.2933 29.2459ZM28.1351 29.1811C30.1928 29.1811 31.8941 27.4636 31.8616 25.4222C31.8292 23.3645 30.1442 21.7118 28.0703 21.728C26.0451 21.7443 24.3762 23.4131 24.3762 25.4384C24.3762 27.496 26.0937 29.1973 28.1351 29.1811ZM41.2265 26.5887C41.2427 25.4546 40.3354 24.5148 39.185 24.4824C38.0509 24.4662 37.1112 25.3897 37.095 26.5239C37.0788 27.6743 37.9861 28.614 39.1202 28.6302C40.2544 28.6464 41.2265 27.7229 41.2265 26.5887ZM19.1591 26.5725C19.1591 25.4384 18.2356 24.4986 17.1014 24.4824C15.9835 24.4824 15.0276 25.4222 15.0114 26.5401C15.0114 27.6581 15.9511 28.614 17.069 28.6302C18.2032 28.6464 19.1429 27.7067 19.1591 26.5725Z" fill="#ED6A02"/>
<path id="Vector_3" d="M58.5305 60.3376C58.1254 60.7426 57.6556 61.2125 57.1695 61.6986C56.7158 61.1963 56.2622 60.7102 55.8247 60.2404C56.246 59.8353 56.7158 59.3655 57.2019 58.8794C57.6069 59.3169 58.0606 59.8029 58.5305 60.3376Z" fill="#ED6A02"/>
<path id="Vector_4" d="M55.5169 57.4213C55.1604 57.7778 54.6906 58.2476 54.2045 58.7175C53.7347 58.2314 53.2648 57.7454 52.7949 57.2431C53.2324 56.838 53.7184 56.3844 54.1235 56.0117C54.5286 56.4168 54.9984 56.9028 55.5169 57.4213Z" fill="#ED6A02"/>
<path id="Vector_5" d="M60.1831 61.8442C60.6368 62.2979 61.0904 62.7516 61.5765 63.2214C61.0904 63.6913 60.6044 64.145 60.1345 64.5986C59.7133 64.1612 59.2596 63.6751 58.7897 63.1728C59.1948 62.784 59.6809 62.3303 60.1831 61.8442Z" fill="#ED6A02"/>
</g>
</svg>
