<svg width="51" height="50" viewBox="0 0 51 50" fill="none" xmlns="http://www.w3.org/2000/svg">
<g id="Group 1220">
<path id="Vector" d="M31.0581 0C31.5068 0.224359 31.6991 0.608974 31.6671 1.12179C31.635 2.05128 31.6671 3.01282 31.6671 3.9423C31.6671 4.71153 31.3786 4.96794 30.6414 4.99999C29.6479 4.99999 28.6543 4.99999 27.6607 4.99999C27.0517 4.99999 26.6991 4.67948 26.6671 4.19871C26.635 3.71794 27.0196 3.33334 27.6286 3.33334C28.3979 3.33334 29.1671 3.33334 29.9363 3.33334C29.9363 2.75642 29.9363 2.24358 29.9363 1.69871C28.5581 1.69871 27.212 1.69871 25.8338 1.69871C25.8338 1.89102 25.8017 2.05128 25.8017 2.24359C25.8017 3.65384 25.8017 5.03204 25.8017 6.4423C25.8017 6.89102 25.9299 7.14743 26.3145 7.37179C30.0645 9.58333 33.7825 11.859 37.5325 14.1026C37.6607 14.1987 37.8209 14.2628 37.9491 14.359C38.3017 14.6474 38.3979 15.1282 38.1735 15.4808C37.9491 15.8333 37.5325 15.9615 37.1158 15.7692C36.8594 15.641 36.603 15.4808 36.3466 15.3205C32.6927 13.141 29.0709 10.9615 25.4491 8.74999C25.0966 8.52563 24.8722 8.5577 24.5517 8.78205C20.8017 11.0577 17.0517 13.3013 13.3017 15.5449C12.5645 15.9936 12.1158 15.9615 11.8273 15.4808C11.5389 15 11.7312 14.5513 12.4684 14.1346C16.2184 11.891 20.0004 9.61538 23.7825 7.37179C24.103 7.17948 24.2312 6.98717 24.2312 6.60255C24.1991 4.83973 24.2312 3.07691 24.2312 1.31409C24.2312 0.801274 24.3273 0.352568 24.7761 0.0641064C26.8273 3.91155e-06 28.9427 0 31.0581 0Z" fill="#ED6B02"/>
<path id="Vector_2" d="M0 39.6475C0.0961538 38.7501 0.192306 37.8526 0.288459 36.9552C0.512818 35.2244 0.801281 33.4616 1.66667 31.9231C1.95513 31.3783 2.33974 30.8975 2.82051 30.4808C3.84615 29.6155 5.28846 29.936 6.18589 31.1539C6.98717 32.2437 7.37179 33.4937 7.66025 34.7757C8.10897 36.8591 8.36538 38.9424 8.30128 41.0578C8.23717 42.7885 7.08333 44.295 5.41666 44.7757C5.0641 44.8719 4.96795 45.0321 4.96795 45.3847C5 46.6347 4.96795 47.8526 4.96795 49.1026C4.96795 49.6475 4.61538 50.0001 4.16667 50.0001C3.71795 50.0001 3.36538 49.6475 3.33333 49.1347C3.33333 49.0065 3.33333 48.8783 3.33333 48.7501C3.33333 47.6283 3.33333 46.5385 3.33333 45.4167C3.33333 45.2565 3.33333 45.0962 3.33333 45.0642C2.6282 44.6475 1.95512 44.2949 1.3782 43.8462C0.576919 43.2373 0.25641 42.3078 0 41.3783C0 40.8014 0 40.2244 0 39.6475ZM1.66667 39.7437C1.66667 40.0321 1.66667 40.3206 1.66667 40.6091C1.66667 42.1475 2.72436 43.3014 4.13461 43.3014C5.57692 43.3334 6.66666 42.1475 6.63461 40.577C6.63461 38.718 6.4423 36.8911 5.99359 35.1283C5.73718 34.1347 5.38461 33.1732 4.93589 32.2757C4.48718 31.4103 3.8141 31.4424 3.30128 32.2757C3.01282 32.7565 2.78846 33.3014 2.6282 33.8142C2.05128 35.7693 1.79487 37.7565 1.66667 39.7437Z" fill="#ED6B02"/>
<path id="Vector_3" d="M0 18.9421C0.224359 18.5255 0.544868 18.237 1.05769 18.3652C1.57051 18.5255 1.69872 18.9421 1.66666 19.4229C1.66666 19.5831 1.66666 19.7755 1.66666 19.9998C1.89102 19.9998 2.05128 19.9998 2.24359 19.9998C4.96795 19.9998 7.6923 19.9998 10.4487 19.9998C10.609 19.9998 10.7692 19.9998 10.9295 19.9998C11.3461 20.0639 11.6026 20.2883 11.6667 20.737C11.6987 21.1857 11.5064 21.5062 11.0577 21.6024C10.8654 21.6665 10.6731 21.6665 10.4808 21.6665C7.75641 21.6665 5.03205 21.6665 2.27564 21.6665C2.11538 21.6665 1.92307 21.6665 1.69871 21.6665C1.69871 21.8908 1.69871 22.0511 1.69871 22.2114C1.69871 24.1985 1.69871 26.1857 1.69871 28.1729C1.69871 28.5896 1.57051 28.9421 1.12179 29.1024C0.737179 29.2306 0.416664 29.1344 0.192305 28.7819C0.160253 28.7178 0.0961509 28.6537 0.0320483 28.5896C-2.93486e-06 25.3844 0 22.1472 0 18.9421Z" fill="#ED6B02"/>
<path id="Vector_4" d="M18.333 44.9998C18.333 42.2114 18.333 39.455 18.333 36.6665C18.0446 36.6665 17.7561 36.6665 17.4997 36.6344C17.0189 36.5703 16.7305 36.2819 16.6984 35.8652C16.6664 35.4165 16.9548 35.096 17.4356 34.9998C17.5959 34.9678 17.7882 34.9678 17.9805 34.9678C22.66 34.9678 27.3394 34.9678 32.051 34.9678C32.2753 34.9678 32.4997 34.9678 32.7241 35.0319C33.1407 35.128 33.333 35.4486 33.333 35.8652C33.301 36.2819 33.0766 36.5383 32.692 36.6024C32.3715 36.6665 32.051 36.6665 31.7305 36.6665C31.7305 39.455 31.7305 42.1793 31.7305 44.9678C31.9228 44.9678 32.1151 44.9678 32.2753 44.9678C34.4548 44.9678 36.6343 44.9678 38.8138 44.9678C38.9741 44.9678 39.1343 44.9678 39.2946 44.9998C39.7112 45.0639 39.9676 45.3203 39.9997 45.737C40.0317 46.1537 39.8394 46.4742 39.4228 46.5703C39.2305 46.6344 39.0382 46.6344 38.8458 46.6344C29.6471 46.6344 20.4164 46.6344 11.2177 46.6344C10.9933 46.6344 10.801 46.6344 10.6087 46.5703C10.2241 46.4421 10.0318 46.1537 10.0638 45.737C10.0959 45.3203 10.3202 45.096 10.7369 44.9998C10.8971 44.9678 11.0895 44.9678 11.2818 44.9678C13.4612 44.9678 15.6407 44.9678 17.8202 44.9678C17.9484 44.9998 18.1087 44.9998 18.333 44.9998ZM24.1664 44.9998C24.1664 44.0062 24.1664 43.0768 24.1664 42.1473C24.1664 41.8588 24.1343 41.6986 23.8138 41.5703C23.2369 41.3139 23.1407 40.4486 23.7177 40.1921C24.1664 39.9998 24.1664 39.7114 24.1664 39.3268C24.1664 38.8139 24.1664 38.3332 24.1664 37.8203C24.1664 37.4678 24.1664 37.0832 24.1664 36.6985C22.7561 36.6985 21.41 36.6985 20.0638 36.6985C20.0638 39.487 20.0638 42.2434 20.0638 44.9998C21.41 44.9998 22.7561 44.9998 24.1664 44.9998ZM29.9676 36.6985C28.5894 36.6985 27.2433 36.6985 25.833 36.6985C25.833 37.6921 25.833 38.6537 25.833 39.5832C25.833 39.8396 25.8971 39.9357 26.1535 40.096C26.3779 40.2242 26.6343 40.5768 26.6343 40.8332C26.6343 41.0575 26.41 41.4421 26.1535 41.5383C25.8651 41.6665 25.833 41.8588 25.833 42.0832C25.833 42.5639 25.833 43.0447 25.833 43.5575C25.833 44.0062 25.833 44.487 25.833 44.9678C27.2433 44.9678 28.5894 44.9678 29.9676 44.9678C29.9676 42.2114 29.9676 39.455 29.9676 36.6985Z" fill="#ED6B02"/>
<path id="Vector_5" d="M48.3645 20.0002C48.3645 19.6797 48.3645 19.4232 48.3645 19.1668C48.3965 18.6861 48.7171 18.3655 49.1658 18.3335C49.6465 18.3335 49.9671 18.654 50.0312 19.1348C50.0312 19.263 50.0312 19.3912 50.0312 19.5194C50.0312 29.263 50.0312 38.9745 50.0312 48.7181C50.0312 49.5514 49.7427 49.9681 49.1978 49.9681C48.653 49.9681 48.3645 49.5514 48.3645 48.7181C48.3645 39.904 48.3645 31.1219 48.3645 22.3078C48.3645 22.1155 48.3645 21.9232 48.3645 21.6348C48.1722 21.6348 48.0119 21.6348 47.8196 21.6348C45.0632 21.6348 42.3068 21.6348 39.5825 21.6348C39.3901 21.6348 39.1978 21.6348 39.0055 21.5707C38.5568 21.4425 38.3645 21.154 38.3965 20.7053C38.4286 20.2886 38.685 20.0322 39.1337 19.9681C39.294 19.9361 39.4542 19.9681 39.6145 19.9681C42.3389 19.9681 45.0632 19.9681 47.7555 19.9681C47.9158 20.0002 48.1081 20.0002 48.3645 20.0002Z" fill="#ED6B02"/>
<path id="Vector_6" d="M25.0007 48.3335C30.6738 48.3335 36.3468 48.3335 42.0199 48.3335C42.1802 48.3335 42.3404 48.3335 42.5007 48.3335C42.9815 48.3655 43.302 48.7181 43.302 49.1668C43.302 49.5835 42.9815 49.9361 42.5007 50.0002C42.3404 50.0002 42.2122 50.0002 42.052 50.0002C30.6738 50.0002 19.2635 50.0002 7.88531 50.0002C7.05198 50.0002 6.63531 49.7117 6.63531 49.1668C6.63531 48.622 7.05198 48.3335 7.88531 48.3335C13.6225 48.3335 19.3276 48.3335 25.0007 48.3335Z" fill="#ED6B02"/>
<path id="Vector_7" d="M36.6667 29.9678C36.6667 33.9742 36.6667 38.0127 36.6667 42.0191C36.6667 42.2434 36.6667 42.4357 36.6346 42.6601C36.5705 43.0768 36.25 43.3011 35.8333 43.3011C35.4487 43.3011 35.1603 43.1088 35.0641 42.6922C35.0321 42.4999 35 42.3076 35 42.1152C35 34.0383 35 25.9294 35 17.8524C35 17.6281 35 17.4358 35.0641 17.2114C35.1923 16.8268 35.4808 16.6345 35.8654 16.6665C36.25 16.6986 36.5064 16.8909 36.6026 17.2755C36.6667 17.4999 36.6667 17.7242 36.6667 17.9486C36.6667 21.955 36.6667 25.9614 36.6667 29.9678Z" fill="#ED6B02"/>
<path id="Vector_8" d="M13.3328 30.4167C13.3328 26.5385 13.3328 22.6603 13.3328 18.8141C13.3328 18.5898 13.3328 18.3974 13.3648 18.1731C13.4289 17.7244 13.7494 17.5321 14.134 17.5C14.5187 17.5 14.8392 17.6923 14.9353 18.109C14.9674 18.3013 14.9994 18.5256 14.9994 18.75C14.9994 26.5385 14.9994 34.2949 14.9994 42.0833C14.9994 42.9167 14.711 43.3333 14.1661 43.3333C13.6212 43.3333 13.3328 42.9167 13.3328 42.0833C13.3328 38.2051 13.3328 34.2949 13.3328 30.4167Z" fill="#ED6B02"/>
<path id="Vector_9" d="M23.3345 28.3656C23.3345 29.1348 23.3345 29.904 23.3345 30.6733C23.3345 31.3463 23.014 31.6668 22.3409 31.6668C21.3153 31.6668 20.2897 31.6668 19.264 31.6668C18.623 31.6668 18.3345 31.3463 18.3345 30.7374C18.3345 29.1348 18.3345 27.5322 18.3345 25.9617C18.3345 25.3527 18.655 25.0322 19.264 25.0322C20.2897 25.0322 21.3153 25.0322 22.3409 25.0322C22.982 25.0322 23.3025 25.3527 23.3025 25.9938C23.3666 26.763 23.3345 27.5643 23.3345 28.3656ZM21.6358 29.9681C21.6358 28.8463 21.6358 27.7566 21.6358 26.6989C21.0909 26.6989 20.5781 26.6989 20.0333 26.6989C20.0333 27.7886 20.0333 28.8784 20.0333 29.9681C20.5781 29.9681 21.0909 29.9681 21.6358 29.9681Z" fill="#ED6B02"/>
<path id="Vector_10" d="M31.6672 28.3013C31.6672 29.0705 31.6672 29.8718 31.6672 30.641C31.6672 31.3461 31.3787 31.6346 30.7056 31.6346C29.68 31.6346 28.6543 31.6346 27.6287 31.6346C27.0197 31.6346 26.6992 31.3141 26.6992 30.7051C26.6992 29.1026 26.6992 27.5 26.6992 25.9295C26.6992 25.3205 27.0197 25 27.6608 25C28.6864 25 29.712 25 30.7377 25C31.3787 25 31.6992 25.3205 31.6992 25.9615C31.6672 26.7308 31.6672 27.532 31.6672 28.3013ZM28.3338 29.9359C28.9108 29.9359 29.4236 29.9359 29.9364 29.9359C29.9364 28.8141 29.9364 27.7564 29.9364 26.6667C29.3595 26.6667 28.8467 26.6667 28.3338 26.6667C28.3338 27.7885 28.3338 28.8462 28.3338 29.9359Z" fill="#ED6B02"/>
<path id="Vector_11" d="M40.032 39.1668C40.032 38.3976 40.032 37.5963 40.032 36.8271C40.032 36.154 40.3525 35.8655 41.0256 35.8335C42.0192 35.8335 43.0128 35.8335 44.0064 35.8335C44.6794 35.8335 45.032 36.154 45.032 36.795C45.032 38.3655 45.032 39.9681 45.032 41.5386C45.032 42.1796 44.7115 42.4681 44.0384 42.5002C43.0448 42.5002 42.0192 42.5002 41.0256 42.5002C40.3525 42.5002 40.0641 42.2117 40.032 41.5066C40 40.7053 40.032 39.9361 40.032 39.1668ZM43.3333 37.5322C42.7564 37.5322 42.2435 37.5322 41.6987 37.5322C41.6987 38.622 41.6987 39.7117 41.6987 40.8014C42.2435 40.8014 42.7564 40.8014 43.3333 40.8014C43.3333 39.6796 43.3333 38.622 43.3333 37.5322Z" fill="#ED6B02"/>
<path id="Vector_12" d="M23.3345 18.3333C23.3345 19.1026 23.3345 19.8718 23.3345 20.641C23.3345 21.3782 23.014 21.6667 22.2768 21.6987C21.3153 21.6987 20.3217 21.6987 19.3602 21.6987C18.655 21.6987 18.3345 21.3782 18.3345 20.6731C18.3345 19.1346 18.3345 17.5962 18.3345 16.0256C18.3345 15.3205 18.623 15.0321 19.3602 15C20.3538 15 21.3474 15 22.3409 15C23.0461 15 23.3345 15.3205 23.3345 16.0256C23.3666 16.7949 23.3345 17.5641 23.3345 18.3333ZM20.0653 16.6987C20.0653 17.8205 20.0653 18.8782 20.0653 19.9679C20.6102 19.9679 21.155 19.9679 21.6679 19.9679C21.6679 18.8782 21.6679 17.7885 21.6679 16.6987C21.123 16.6987 20.6102 16.6987 20.0653 16.6987Z" fill="#ED6B02"/>
<path id="Vector_13" d="M31.6672 18.3333C31.6672 19.1026 31.6672 19.9038 31.6672 20.6731C31.6672 21.3462 31.3467 21.6667 30.6736 21.6667C29.68 21.6667 28.6543 21.6667 27.6608 21.6667C27.0197 21.6667 26.6992 21.3461 26.6992 20.7051C26.6992 19.1346 26.6992 17.5321 26.6992 15.9615C26.6992 15.3205 27.0197 15 27.6608 15C28.6864 15 29.712 15 30.7377 15C31.3787 15 31.6672 15.3205 31.6672 15.9936C31.6672 16.7628 31.6672 17.5321 31.6672 18.3333ZM28.3659 16.6987C28.3659 17.8205 28.3659 18.9103 28.3659 19.9679C28.9108 19.9679 29.4236 19.9679 29.9685 19.9679C29.9685 18.8462 29.9685 17.7885 29.9685 16.6987C29.4236 16.6987 28.9108 16.6987 28.3659 16.6987Z" fill="#ED6B02"/>
<path id="Vector_14" d="M40.0329 29.1668C40.0329 28.3976 40.0329 27.6284 40.0329 26.8591C40.0329 26.122 40.3213 25.8335 41.0264 25.8335C42.02 25.8335 43.0136 25.8335 44.0072 25.8335C44.7123 25.8335 45.0329 26.154 45.0329 26.8591C45.0329 28.3976 45.0329 29.9361 45.0329 31.5066C45.0329 32.2117 44.7123 32.5002 44.0072 32.5322C43.0457 32.5322 42.0521 32.5322 41.0905 32.5322C40.3534 32.5322 40.0649 32.2117 40.0649 31.4745C40.0008 30.6732 40.0329 29.904 40.0329 29.1668ZM43.3341 27.5322C42.7893 27.5322 42.2764 27.5322 41.7316 27.5322C41.7316 28.654 41.7316 29.7117 41.7316 30.8014C42.2764 30.8014 42.7893 30.8014 43.3341 30.8014C43.3341 29.7117 43.3341 28.622 43.3341 27.5322Z" fill="#ED6B02"/>
<path id="Vector_15" d="M8.3333 26.6668C7.75638 26.6668 7.24355 26.6668 6.66663 26.6668C6.66663 26.9552 6.69868 27.2437 6.66663 27.5001C6.63458 27.9488 6.31407 28.2693 5.8974 28.3014C5.48074 28.3334 5.09612 28.0449 5.06407 27.5962C4.99997 26.9552 4.99997 26.3142 5.06407 25.7052C5.09612 25.2244 5.44869 25.0001 5.92946 25.0001C6.98715 25.0001 8.07689 24.968 9.13458 25.0001C9.71151 25.0001 9.99996 25.3206 10.032 25.9296C10.032 27.5321 10.032 29.1026 10.032 30.7052C10.032 31.2821 9.7115 31.6027 9.23073 31.6347C8.74996 31.6347 8.3974 31.3142 8.36535 30.7052C8.3333 29.5514 8.36535 28.4296 8.36535 27.2757C8.3333 27.1155 8.3333 26.9232 8.3333 26.6668Z" fill="#ED6B02"/>
</g>
</svg>
