<svg width="51" height="76" viewBox="0 0 51 76" fill="none" xmlns="http://www.w3.org/2000/svg">
<g id="Group">
<g id="Group_2">
<path id="Vector" d="M32.1532 55.8727H18.8468C18.0907 55.8727 17.4859 55.2678 17.4859 54.5118C17.4859 54.3606 17.4859 54.0582 17.6371 53.907C18.6955 51.79 19.4516 49.8243 19.9052 48.161C20.3588 46.4977 20.3589 44.8344 20.0564 43.3223C16.881 42.2638 14.008 40.4493 11.5887 37.7275C9.47174 35.157 8.11087 31.9816 7.65724 28.655C5.69151 27.8989 4.02821 26.6892 2.81853 25.1771C1.30643 23.3626 0.550385 21.0945 0.550385 18.6751V7.33437C0.550385 6.57832 1.15521 5.97349 1.91126 5.97349H7.50602V2.04203C7.50602 1.28598 8.11087 0.681152 8.86692 0.681152H42.1331C42.8891 0.681152 43.4939 1.28598 43.4939 2.04203V5.97349H49.0887C49.8448 5.97349 50.4496 6.57832 50.4496 7.33437V18.6751C50.4496 21.0945 49.6936 23.2114 48.1815 25.1771C46.9718 26.8404 45.3085 28.0501 43.3427 28.655C42.8891 31.9816 41.5282 35.0058 39.4113 37.7275C37.2943 40.2981 34.4214 42.2638 30.9435 43.3223C30.6411 44.8344 30.7923 46.4977 31.0948 48.3122C31.5484 49.9755 32.1532 51.9412 33.3629 54.0582C33.6653 54.663 33.5141 55.5703 32.758 55.8727C32.4556 55.8727 32.3044 55.8727 32.1532 55.8727ZM19.3004 54.2094H31.3972C30.3387 52.2437 29.7339 50.4291 29.2802 48.6146C28.8266 46.4977 28.8266 44.3807 29.129 42.415C29.129 42.1126 29.4314 41.8102 29.7339 41.8102C32.9093 40.9029 35.631 39.0884 37.748 36.6691C39.8649 34.2497 41.0746 31.2255 41.377 28.0501C41.377 27.7477 41.6794 27.4452 41.9818 27.294C43.7964 26.6892 45.3085 25.6308 46.5181 24.1187C47.7278 22.6066 48.3327 20.6408 48.3327 18.6751V7.63676H42.2843C41.8306 7.63676 41.377 7.18317 41.377 6.72954V2.34442H9.32053V6.72954C9.32053 7.18317 8.86692 7.63676 8.41329 7.63676H2.3649V18.6751C2.3649 20.6408 2.96973 22.4554 4.17941 24.1187C5.38909 25.6308 6.90119 26.6892 8.7157 27.294C9.01812 27.4452 9.32053 27.7477 9.32053 28.0501C9.62295 31.2255 10.8326 34.2497 12.9496 36.6691C15.0665 39.2396 17.7883 40.9029 20.9637 41.8102C21.2661 41.9614 21.5685 42.1126 21.5685 42.415C22.0222 44.3807 21.8709 46.3465 21.4173 48.4634C21.1149 50.2779 20.3589 52.0925 19.3004 54.2094Z" fill="#ED6A02"/>
</g>
<g id="Group_3">
<path id="Vector_2" d="M38.6552 75.6811H12.0423C11.5887 75.6811 11.1351 75.2275 11.1351 74.7739V54.9654C11.1351 54.5117 11.5887 54.0581 12.0423 54.0581H38.6552C39.1089 54.0581 39.5625 54.5117 39.5625 54.9654V74.7739C39.5625 75.2275 39.1089 75.6811 38.6552 75.6811ZM12.9496 73.8666H37.8992V55.8726H12.9496V73.8666Z" fill="#ED6A02"/>
</g>
<g id="Group_4">
<path id="Vector_3" d="M47.7278 75.6812H4.78417C4.33054 75.6812 3.87692 75.2276 3.87692 74.774C3.87692 74.3203 4.33054 73.8667 4.78417 73.8667H47.7278C48.1814 73.8667 48.635 74.3203 48.635 74.774C48.4838 75.2276 48.1814 75.6812 47.7278 75.6812Z" fill="#ED6A02"/>
</g>
<g id="Group_5">
<path id="Vector_4" d="M30.4897 30.923C30.3385 30.923 30.1873 30.923 30.0361 30.7717L25.651 27.5963L21.2659 30.7717C20.9635 30.923 20.5099 30.923 20.2075 30.7717C19.905 30.6205 19.7538 30.1669 19.905 29.8645L21.5683 24.7234L17.0321 21.5479C16.7296 21.3967 16.5784 20.9431 16.7296 20.6407C16.8808 20.3383 17.1833 20.0358 17.4857 20.0358H22.9292L24.5925 14.7435C24.7438 14.4411 25.0462 14.1387 25.3486 14.1387C25.651 14.1387 26.1046 14.4411 26.1046 14.7435L27.768 20.0358H33.2115C33.5139 20.0358 33.9675 20.3383 33.9675 20.6407C34.1188 20.9431 33.9675 21.3967 33.6651 21.5479L29.1288 24.7234L30.7922 29.8645C30.9434 30.1669 30.7921 30.6205 30.4897 30.7717C30.7921 30.923 30.6409 30.923 30.4897 30.923ZM19.905 21.5479L22.778 23.5136C23.0804 23.6649 23.2317 24.1185 23.0804 24.4209L22.022 27.7476L24.895 25.6306C25.1974 25.4794 25.651 25.4794 25.9534 25.6306L28.8264 27.7476L27.6167 24.5721C27.4655 24.2697 27.6167 23.8161 27.9192 23.6649L30.7922 21.6992H27.3143C27.0119 21.6992 26.5583 21.3967 26.5583 21.0943L25.4998 17.7677L24.4413 21.0943C24.2901 21.3967 23.9877 21.6992 23.6853 21.6992L19.905 21.5479Z" fill="#ED6A02"/>
</g>
<g id="Group_6">
<path id="Vector_5" d="M42.4356 19.2801C41.982 19.2801 41.5284 18.8264 41.5284 18.3728V6.88085C41.5284 6.42723 41.982 5.97363 42.4356 5.97363C42.8893 5.97363 43.3429 6.42723 43.3429 6.88085V18.3728C43.3429 18.8264 42.8893 19.2801 42.4356 19.2801Z" fill="#ED6A02"/>
</g>
<g id="Group_7">
<path id="Vector_6" d="M8.41346 19.2801C7.95983 19.2801 7.5062 18.8264 7.5062 18.3728V6.88085C7.5062 6.42723 7.95983 5.97363 8.41346 5.97363C8.86709 5.97363 9.32071 6.42723 9.32071 6.88085V18.3728C9.1695 18.8264 8.86709 19.2801 8.41346 19.2801Z" fill="#ED6A02"/>
</g>
<g id="Group_8">
<path id="Vector_7" d="M26.8609 61.921H12.0423C11.5887 61.921 11.1351 61.4673 11.1351 61.0137C11.1351 60.5601 11.5887 60.1064 12.0423 60.1064H26.8609C27.3145 60.1064 27.7681 60.5601 27.7681 61.0137C27.9194 61.4673 27.3145 61.921 26.8609 61.921Z" fill="#ED6A02"/>
</g>
<path id="Vector_8" d="M17.6372 6.125H14.613V9.14919H17.6372V6.125Z" fill="#ED6A02"/>
<path id="Vector_9" d="M23.8365 6.125H20.8123V9.14919H23.8365V6.125Z" fill="#ED6A02"/>
<path id="Vector_10" d="M29.8849 6.125H26.8607V9.14919H29.8849V6.125Z" fill="#ED6A02"/>
<path id="Vector_11" d="M36.236 6.125H33.2119V9.14919H36.236V6.125Z" fill="#ED6A02"/>
</g>
</svg>
