<svg width="53" height="50" viewBox="0 0 53 50" fill="none" xmlns="http://www.w3.org/2000/svg">
<g id="Group">
<path id="Vector" d="M15.6672 6.31825C15.6672 7.16069 15.6672 7.94072 15.6672 8.81435C15.4483 8.81435 15.2607 8.81435 15.0419 8.81435C12.4154 8.81435 9.75768 8.81435 7.13123 8.81435C5.06758 8.81435 3.50422 9.90639 2.94141 11.7161C2.81633 12.1529 2.7538 12.6521 2.7538 13.0889C2.7538 22.3869 2.7538 31.6537 2.7538 40.9516C2.7538 41.17 2.7538 41.3573 2.7538 41.6381C2.12845 41.6381 1.53437 41.6381 0.909027 41.6381C0.314949 41.6381 0.00226593 41.9189 0.00226593 42.5117C-0.0915375 45.975 2.7538 49.376 6.19321 49.8752C6.66222 49.9376 7.16249 50 7.66277 50C19.9508 50 32.2076 50 44.4957 50C48.3416 50 51.4683 47.2855 52.0624 43.5101C52.1249 43.1981 52.1249 42.8549 52.1249 42.5117C52.1249 41.9189 51.8123 41.6069 51.2182 41.6069C50.6241 41.6069 50.03 41.6069 49.3734 41.6069C49.3734 41.3573 49.3734 41.1388 49.3734 40.9204C49.3734 31.6537 49.3421 22.3869 49.4047 13.1201C49.4047 11.0296 47.9351 8.72075 45.0272 8.75195C43.5889 8.75195 42.1507 8.78315 40.7124 8.75195C40.3997 8.75195 40.087 8.56474 39.7743 8.43994C39.6805 8.40873 39.6493 8.31513 39.5555 8.31513C38.68 8.12792 38.6487 7.5039 38.7112 6.75507C38.7738 6.03744 38.7425 5.28861 38.7425 4.57098C38.7425 4.04056 38.5549 3.75975 37.9921 3.60374C33.6147 2.41809 29.2685 1.23245 24.8911 0.0468019C24.6097 -0.0156006 24.297 -0.0156006 24.0469 0.0468019C20.0446 1.20125 16.0424 2.3869 12.0089 3.54135C11.5712 3.66615 11.196 3.85335 11.196 4.41498C11.196 4.9766 11.5712 5.1638 12.0715 5.28861C13.2284 5.66302 14.4478 6.00624 15.6672 6.31825ZM30.4879 35.2418C30.4879 37.4259 30.4879 39.5164 30.4879 41.6381C21.7956 41.6381 13.1346 41.6381 4.44223 41.6381C4.44223 41.4197 4.44223 41.2636 4.44223 41.0764C4.44223 31.7785 4.4735 22.5117 4.41096 13.2137C4.41096 11.7473 5.34898 10.4368 7.19376 10.468C9.82021 10.4992 12.4779 10.468 15.1044 10.468C15.292 10.468 15.4796 10.468 15.6985 10.468C15.6985 10.9672 15.6985 11.4041 15.6985 11.8097C15.6985 13.9938 17.1368 15.4602 19.3255 15.4602C22.7649 15.4602 26.173 15.4602 29.6124 15.4602C30.0189 15.4602 30.4254 15.3978 30.8006 15.3042C32.3327 14.8674 33.2082 13.6193 33.2395 11.9345C33.2395 11.4665 33.2395 10.9672 33.2395 10.4992C33.8023 10.4992 34.2713 10.4992 34.7403 10.4992C34.9592 12.8393 35.9597 13.9938 37.8045 14.0562C39.618 14.1186 40.6498 12.9641 41.025 10.5304C41.0563 10.5304 41.0876 10.4992 41.1188 10.4992C42.4008 10.4992 43.714 10.4992 44.996 10.468C46.8408 10.4368 47.7162 11.8097 47.7162 13.1513C47.685 22.4493 47.685 31.7473 47.685 41.0452C47.685 41.2324 47.685 41.4197 47.685 41.6069C46.9033 41.6069 46.2154 41.6069 45.465 41.6069C45.465 41.3885 45.465 41.2012 45.465 41.014C45.465 37.9251 45.465 34.8362 45.465 31.7473C45.465 29.4384 43.8391 27.8159 41.5566 27.8159C38.6174 27.8159 35.6783 27.8159 32.7392 27.8159C31.6136 27.8159 30.613 28.1591 29.7375 28.8144C29.4874 29.0016 29.206 29.1888 28.8933 29.4384C28.8933 29.1264 28.8933 28.908 28.8933 28.6895C28.8933 25.4134 28.8933 22.1373 28.8933 18.8612C28.8933 17.8939 28.6432 17.6443 27.7051 17.6443C21.1077 17.6443 14.4791 17.6443 7.88164 17.6443C6.84982 17.6443 6.63095 17.8939 6.63095 18.9236C6.63095 24.103 6.63095 29.2824 6.63095 34.4618C6.63095 35.585 6.84982 35.7722 7.97544 35.7722C11.4148 35.7722 14.823 35.7722 18.2624 35.7722C18.6063 35.7722 18.7627 35.8658 18.919 36.209C19.263 37.0515 19.9196 37.6755 20.8576 37.7691C22.0457 37.8627 23.2652 37.8003 24.4533 37.8627C25.7353 37.9251 26.8609 37.5507 27.8927 36.8643C28.7057 36.3339 29.5812 35.8346 30.4879 35.2418ZM8.28811 34.181C8.28811 29.22 8.28811 24.3214 8.28811 19.4228C14.6041 19.4228 20.8889 19.4228 27.1736 19.4228C27.1736 19.5164 27.2049 19.5788 27.2049 19.61C27.2049 23.2293 27.2049 26.8487 27.2049 30.4368C27.2049 30.624 27.0485 30.8424 26.8922 30.9672C26.2981 31.4353 25.6728 31.9033 25.0474 32.3401C24.9223 32.4337 24.7347 32.5273 24.5784 32.5273C23.6404 32.5585 22.7336 32.5273 21.7956 32.5273C21.6705 32.1529 21.5455 31.8409 21.3891 31.4353C22.1396 31.4353 22.7962 31.4353 23.4528 31.4353C24.1407 31.4353 24.5159 31.1544 24.5159 30.624C24.5159 30.0936 24.1719 29.8128 23.484 29.7816C22.7024 29.7816 21.9519 29.7816 21.1703 29.7816C21.0139 29.7816 20.7951 29.6568 20.7325 29.532C20.4824 28.9392 20.2948 28.2839 20.0446 27.5975C21.2328 27.5975 22.3584 27.5975 23.484 27.5975C24.1407 27.5975 24.4846 27.3167 24.5159 26.7863C24.5471 26.2559 24.1719 25.9126 23.5153 25.9126C22.3584 25.9126 21.1703 25.8814 20.0134 25.9126C19.6382 25.9126 19.4193 25.8502 19.2942 25.4446C19.1692 25.039 18.8565 24.7894 18.4187 24.883C17.981 24.9454 17.6996 25.2262 17.6996 25.6942C17.6996 25.7566 17.6996 25.819 17.6683 25.9126C17.5432 25.9126 17.4182 25.9126 17.3244 25.9126C15.761 25.9126 14.1976 25.9126 12.6655 25.9126C11.9464 25.9126 11.5399 26.4119 11.7275 27.0047C11.8839 27.4415 12.2278 27.5663 12.6968 27.5663C14.5729 27.5663 16.4489 27.5663 18.3249 27.5663C18.5751 28.2839 18.8252 28.9704 19.0753 29.7504C18.8252 29.7504 18.6063 29.7504 18.4187 29.7504C16.574 29.7504 14.7605 29.7504 12.9157 29.7504C12.0402 29.7504 11.665 30 11.665 30.5928C11.665 31.1544 12.0402 31.4041 12.947 31.4041C15.0419 31.4041 17.1368 31.4041 19.2317 31.4041C19.5444 31.4041 19.732 31.4665 19.7945 31.7785C19.8258 31.9657 19.9196 32.1529 19.9821 32.3089C20.1384 32.6209 20.0759 32.8393 19.7632 33.0265C19.5131 33.1825 19.263 33.4321 19.1379 33.7129C18.9503 34.0562 18.7001 34.1186 18.3249 34.1186C15.1669 34.1186 12.0402 34.1186 8.8822 34.1186C8.6946 34.181 8.50698 34.181 8.28811 34.181ZM1.75324 43.3541C1.84704 43.3541 1.94085 43.3229 2.00338 43.3229C7.81911 43.3229 13.6036 43.3229 19.4193 43.3229C19.732 43.3229 19.8258 43.4165 19.9196 43.6973C20.4824 45.507 22.0145 46.6303 23.8905 46.6927C25.3914 46.7239 26.8609 46.7239 28.3618 46.6927C30.144 46.6615 31.6761 45.507 32.2076 43.8221C32.3327 43.4165 32.5203 43.2917 32.9268 43.2917C37.8983 43.2917 42.9011 43.2917 47.8726 43.2917C48.7168 43.2917 49.5297 43.2917 50.374 43.2917C50.0613 46.0998 47.5286 48.3463 44.652 48.3463C32.2702 48.3463 19.8883 48.3463 7.50643 48.3463C4.59857 48.3775 2.22225 46.287 1.75324 43.3541ZM41.5566 41.5445C41.5566 41.3261 41.5253 41.1076 41.5253 40.9204C41.494 38.8924 41.494 36.8643 41.4628 34.8362C41.4628 34.1498 41.1501 33.8066 40.6186 33.8066C40.087 33.8066 39.7743 34.1498 39.7743 34.8362C39.8056 36.8643 39.8056 38.9236 39.8369 40.9516C39.8369 41.1388 39.8369 41.3573 39.8369 41.5445C37.2417 41.5445 34.709 41.5445 32.1451 41.5445C32.1451 41.3261 32.1451 41.1388 32.1451 40.9516C32.1451 38.7052 32.1451 36.4587 32.1451 34.2122C32.1451 33.7754 32.2076 33.2761 31.7074 33.0265C31.2384 32.7769 30.8631 33.0577 30.5192 33.3073C29.2372 34.1186 27.9865 34.9298 26.7046 35.6786C26.2043 35.9594 25.579 36.209 25.0161 36.2403C23.828 36.3339 22.6086 36.2715 21.3891 36.2715C20.7638 36.2715 20.2948 35.8658 20.2948 35.3042C20.2948 34.7114 20.7638 34.2746 21.4204 34.2746C22.546 34.2746 23.6717 34.3058 24.766 34.2434C25.11 34.2434 25.4852 34.1186 25.7666 33.9002C27.2674 32.8081 28.737 31.6537 30.2378 30.5616C30.6755 30.2496 31.1445 29.9688 31.6136 29.688C31.9262 29.5008 32.1764 29.5632 32.4578 29.8752C33.5834 31.1544 34.7403 32.4025 35.8659 33.6194C36.5225 34.337 36.929 34.337 37.5544 33.5569C37.6169 33.4633 37.6794 33.4009 37.742 33.3073C38.68 32.1529 39.618 30.9672 40.5873 29.8128C40.6811 29.688 40.8062 29.5632 40.9312 29.532C42.6509 29.3136 43.7766 30.1872 43.7766 31.7473C43.7766 34.8362 43.7766 37.9251 43.7766 41.014C43.7766 41.17 43.7766 41.3573 43.7453 41.5445C43.0261 41.5445 42.307 41.5445 41.5566 41.5445ZM31.5823 6.87987C31.5823 8.68955 31.6136 10.4368 31.5823 12.1841C31.551 13.1513 30.8319 13.8066 29.8626 13.8066C26.2668 13.8378 22.7024 13.8378 19.1066 13.8066C18.1373 13.8066 17.3869 13.0889 17.3869 12.1217C17.3556 10.3744 17.3869 8.62714 17.3869 6.87987C17.3869 6.84867 17.4182 6.84868 17.4807 6.78627C19.6069 7.3479 21.7643 7.94072 23.9218 8.50234C24.2657 8.59595 24.6409 8.59595 24.9849 8.50234C27.1423 8.00312 29.331 7.4415 31.5823 6.87987ZM30.5817 5.31981C30.5817 5.35101 30.5817 5.38222 30.5817 5.38222C30.4567 5.41342 30.3316 5.47582 30.2065 5.50702C28.6119 5.91264 26.986 6.25585 25.3914 6.69266C24.7347 6.87987 24.1094 6.84868 23.4528 6.66147C20.7013 5.91264 17.9497 5.16381 15.1669 4.41498C15.2607 4.35257 15.3233 4.32137 15.3858 4.29017C18.3249 3.41654 21.2953 2.5429 24.2345 1.70047C24.3908 1.66927 24.5784 1.70047 24.7347 1.73167C26.1105 2.10608 27.455 2.4493 28.7995 2.82371C29.6437 3.04212 30.5192 3.29174 31.3634 3.54135C29.0809 3.63495 26.8297 3.63495 24.5784 3.63495C23.9531 3.63495 23.5779 3.91576 23.5779 4.44618C23.5779 4.9766 23.9531 5.28861 24.5784 5.28861C25.7978 5.28861 27.0173 5.28861 28.2367 5.28861C29.0496 5.31981 29.8001 5.31981 30.5817 5.31981ZM21.5767 43.3541C24.5784 43.3541 27.5488 43.3541 30.5505 43.3541C30.2691 44.259 29.4248 44.9766 28.5181 45.0078C26.8922 45.039 25.235 45.039 23.6091 45.0078C22.7024 45.0078 21.8581 44.259 21.5767 43.3541ZM37.0541 5.53822C37.0541 6.31825 37.0541 7.00468 37.0541 7.69111C37.0541 7.78471 37.0228 7.94072 36.9603 7.97192C36.4913 8.25273 36.0535 8.68955 35.522 8.78315C34.8028 8.90796 34.0524 8.81435 33.2395 8.81435C33.2395 8.06553 33.2395 7.41029 33.2395 6.72387C33.2395 6.59906 33.4271 6.44306 33.5521 6.41185C34.709 6.09984 35.8346 5.85024 37.0541 5.53822ZM36.46 10.9672C36.46 10.2184 37.1166 9.53198 37.8983 9.53198C38.7112 9.53198 39.3366 10.1872 39.3366 10.9984C39.3366 11.8097 38.7112 12.4025 37.8983 12.4025C37.0541 12.4025 36.46 11.7785 36.46 10.9672ZM34.4276 29.5632C35.8972 29.5632 37.2417 29.5632 38.68 29.5632C37.9921 30.4056 37.3668 31.2169 36.6789 32.0281C35.9285 31.2169 35.2093 30.4056 34.4276 29.5632Z" fill="#ED6B02"/>
<path id="Vector_2" d="M36.8361 26.1624C39.4313 26.1624 41.5575 24.0407 41.5887 21.451C41.5887 18.8301 39.4938 16.7084 36.8986 16.7396C34.2097 16.7396 32.0835 18.8613 32.0835 21.4822C32.0835 24.0719 34.2409 26.1936 36.8361 26.1624ZM36.8361 18.3933C38.5246 18.3621 39.869 19.7037 39.9003 21.4198C39.9003 23.0423 38.5558 24.4463 36.9612 24.4775C35.1789 24.5087 33.7719 23.1983 33.7406 21.4822C33.7094 19.7973 35.0539 18.4245 36.8361 18.3933Z" fill="#ED6B02"/>
<path id="Vector_3" d="M18.0755 22.106C16.262 22.106 14.4485 22.106 12.635 22.106C12.0097 22.106 11.6345 22.418 11.6345 22.9172C11.6345 23.4164 12.0097 23.7596 12.635 23.7596C16.262 23.7596 19.889 23.7596 23.5473 23.7596C24.1727 23.7596 24.5166 23.4476 24.5166 22.9172C24.5166 22.3868 24.1727 22.106 23.516 22.106C21.7338 22.106 19.9203 22.106 18.0755 22.106Z" fill="#ED6B02"/>
<path id="Vector_4" d="M35.3033 37.0516C35.6159 37.0516 35.9286 37.0516 36.2413 37.0516C36.7103 37.0204 37.0542 36.7084 37.0855 36.2716C37.1168 35.8659 36.8041 35.4291 36.3351 35.3979C35.6159 35.3667 34.8968 35.3667 34.1776 35.3979C33.7399 35.4291 33.3959 35.8659 33.4585 36.2716C33.4897 36.7084 33.8337 37.0204 34.3027 37.0516C34.6466 37.0828 34.9593 37.0516 35.3033 37.0516Z" fill="#ED6B02"/>
</g>
</svg>
