<svg width="51" height="50" viewBox="0 0 51 50" fill="none" xmlns="http://www.w3.org/2000/svg">
<g id="Group">
<path id="Vector" d="M50.8525 17.6943C50.7342 17.1633 50.6159 16.6027 50.4681 16.0717C49.2264 11.6758 45.0576 8.60746 40.5637 8.81398C35.8332 9.0205 31.901 12.3543 31.1028 16.9273C30.5115 20.3496 31.4576 23.3294 33.9411 25.8076C34.7689 26.6337 35.4193 27.5778 35.7741 28.6989C35.8332 28.9054 35.7741 29.1415 35.7741 29.348C35.7445 29.584 35.6559 29.82 35.6559 30.0856C35.6559 30.8821 35.715 31.7082 35.715 32.5048C35.715 32.5933 35.6559 32.7408 35.5967 32.7998C34.7689 33.8619 33.7932 34.806 32.6697 35.6026C30.6297 33.2129 28.9445 30.7051 28.9149 27.4303C28.9149 27.1058 28.9741 26.8402 29.2697 26.6337C29.6836 26.3387 29.8906 25.8666 29.8906 25.3356C29.8906 24.421 29.9202 23.4769 29.8906 22.5623C29.861 21.6182 29.1515 20.8512 28.1758 20.8512C25.2488 20.8217 22.3514 20.8217 19.4245 20.8512C18.5375 20.8512 17.7984 21.4707 17.7392 22.3558C17.6505 23.4179 17.6801 24.5095 17.7688 25.5716C17.7984 25.9552 18.1827 26.3092 18.3897 26.6927C18.4784 26.8697 18.6558 27.0763 18.6558 27.2533C18.6853 29.23 18.1236 31.0592 17.0592 32.7408C16.5566 33.5079 15.9949 34.216 15.4923 34.9535C11.4714 31.7967 9.57919 26.2207 10.7027 21.3527C11.1757 21.3527 11.6488 21.3527 12.1218 21.3527C13.0383 21.3527 13.5705 20.9102 13.7183 19.9956C13.7479 19.8776 13.8662 19.73 13.9844 19.6415C14.1914 19.5235 14.3983 19.435 14.6349 19.376C14.8123 19.3465 15.0488 19.3465 15.1966 19.4645C15.847 19.9071 16.5271 19.9071 17.0888 19.3465C17.8575 18.6089 18.6262 17.8419 19.3653 17.0748C19.8975 16.5142 19.9566 15.8062 19.454 15.1866C19.2766 14.9506 19.2766 14.8031 19.3949 14.567C19.4836 14.4195 19.5427 14.272 19.5723 14.1245C19.661 13.859 19.7792 13.741 20.0749 13.7115C20.8436 13.623 21.3166 13.0624 21.3462 12.2953C21.3758 11.8233 21.3758 11.3512 21.3462 10.8497C21.3462 10.5546 21.4349 10.4071 21.7306 10.3481C24.7758 9.78758 27.7323 10.1121 30.541 11.4397C30.6593 11.4987 30.7776 11.5577 30.8958 11.6168C31.3393 11.7938 31.7828 11.6758 31.9602 11.2922C32.1376 10.9087 31.9602 10.4956 31.5167 10.2596C30.0089 9.49255 28.4123 8.991 26.7567 8.75498C25.0714 8.51896 23.3862 8.51895 21.7306 8.84349C21.6123 8.87299 21.494 8.87299 21.3758 8.87299C21.1392 8.13542 20.6958 7.66337 19.8679 7.63387C19.7792 7.63387 19.6905 7.51586 19.661 7.39785C19.454 6.8963 19.1288 6.45375 19.6314 5.83419C20.0158 5.36214 19.8384 4.74259 19.3949 4.30004C18.6262 3.50347 17.8575 2.73639 17.0888 1.99882C16.5566 1.46777 15.7879 1.43826 15.2262 1.8808C14.9601 2.08732 14.7827 2.08733 14.5166 1.93981C14.3688 1.85131 14.1618 1.8218 14.014 1.73329C13.8662 1.64478 13.7183 1.46777 13.7183 1.32025C13.5705 0.523674 13.0679 0.05163 12.2696 0.0221272C11.2053 -0.00737572 10.1409 -0.00737572 9.07658 0.0221272C8.30788 0.0221272 7.71657 0.523675 7.65744 1.26125C7.62788 1.58578 7.50961 1.70379 7.24352 1.7628C7.06613 1.8218 6.9183 1.93981 6.74091 1.96931C6.56352 1.99882 6.327 1.99882 6.17917 1.91031C5.52873 1.46777 4.84873 1.46777 4.25742 1.99882C3.45916 2.73639 2.69046 3.53297 1.95132 4.30004C1.41914 4.8606 1.41915 5.53916 1.89219 6.15872C2.06958 6.36524 2.09915 6.54226 1.95132 6.77828C1.83306 6.9848 1.77393 7.22083 1.68523 7.39785C1.62611 7.48636 1.50784 7.63387 1.41914 7.63387C0.680008 7.66337 0.266094 8.10592 3.8147e-06 8.75498C3.8147e-06 10.0531 3.8147e-06 11.3217 3.8147e-06 12.6199C0.295658 13.2394 0.709576 13.682 1.44871 13.7115C1.53741 13.7115 1.65567 13.859 1.7148 13.9475C1.83306 14.154 1.95132 14.39 2.01045 14.6261C2.04002 14.7736 2.04002 14.9801 1.95132 15.0981C1.44871 15.8357 1.47828 16.4847 2.06958 17.1043C2.77915 17.8124 3.48872 18.5499 4.19829 19.2285C4.81916 19.8481 5.4696 19.8776 6.20873 19.376C6.327 19.2875 6.56352 19.2875 6.71135 19.317C6.94787 19.376 7.18439 19.494 7.39135 19.5825C7.48005 19.6415 7.59831 19.73 7.59831 19.7891C7.65744 20.7331 8.21918 21.1462 9.07658 21.2937C8.24875 27.1943 10.0227 32.1213 14.5462 36.1041C14.0731 36.7237 13.6296 37.3728 13.1566 37.9923C11.7375 39.8805 10.3183 41.7687 8.95832 43.6864C7.36179 45.8991 8.42614 48.9379 11.0279 49.7345C11.4418 49.8525 11.9149 49.9115 12.3583 49.9115C16.8523 49.9115 21.3758 49.9115 25.8697 49.9115C25.988 49.9115 26.1062 49.9115 26.2245 49.9115C26.6088 49.8525 26.8158 49.646 26.8454 49.2624C26.8749 48.8494 26.6975 48.5839 26.3132 48.4953C26.1358 48.4363 25.9288 48.4658 25.7219 48.4658C21.2575 48.4658 16.8227 48.4658 12.3583 48.4658C11.0279 48.4658 10.0818 47.7578 9.78615 46.5777C9.57919 45.7516 9.84528 45.0435 10.3479 44.3649C12.3288 41.7097 14.2801 39.0544 16.261 36.3992C16.7931 35.6616 17.3549 34.9535 17.8871 34.216C19.3653 32.2098 20.134 29.938 20.1932 27.4598C20.1932 27.3713 20.1932 27.2828 20.1932 27.2238C20.1932 27.1943 20.2227 27.1648 20.2523 27.1058C22.6175 27.1058 24.9828 27.1058 27.4071 27.1058C27.4662 27.7548 27.5254 28.4039 27.6141 29.053C27.9097 31.0001 28.6784 32.7408 29.8315 34.334C32.3445 37.6973 34.828 41.0606 37.3115 44.4535C37.8437 45.1615 38.0506 45.8991 37.8141 46.7842C37.4889 47.8463 36.6019 48.5249 35.4785 48.5249C33.6454 48.5544 31.8124 48.5249 29.9497 48.5249C29.7132 48.5249 29.4176 48.5249 29.2993 48.6724C29.1219 48.8789 28.9741 49.2034 29.0036 49.469C29.0332 49.8525 29.3584 50 29.7132 50C30.6593 50 31.6054 50 32.5515 50C33.4976 50 34.4437 50 35.3898 50C37.0159 49.9705 38.228 49.2624 38.9672 47.8463C39.7063 46.4007 39.5289 44.955 38.5828 43.6569C37.075 41.6212 35.5672 39.5855 34.0593 37.5793C33.8819 37.3433 33.7341 37.1367 33.5863 36.9302C34.5915 35.9861 35.5967 35.042 36.5132 34.216C36.9272 34.7175 37.2819 35.3371 37.7846 35.8091C38.3167 36.3107 38.9967 36.5172 39.7359 36.5467C40.5046 36.5762 41.3028 36.5762 42.0715 36.5467C43.5794 36.5172 44.8507 35.4846 45.2055 33.9799C45.2646 33.6849 45.4124 33.4489 45.6489 33.1834C45.915 32.8883 46.1516 32.4753 46.1516 32.0917C46.1516 31.1182 46.3881 30.1151 45.9742 29.171C45.9446 29.0825 45.9742 28.9349 46.0037 28.8464C46.329 27.8138 46.802 26.8992 47.6003 26.1322C49.4038 24.421 50.4977 22.3853 50.7933 19.9366C50.7933 19.8481 50.8525 19.789 50.882 19.7005C50.8525 19.022 50.8525 18.3434 50.8525 17.6943ZM40.8889 28.3744C39.8246 28.3744 38.7306 28.3744 37.6663 28.3744C37.3706 28.3744 37.2228 28.2859 37.1341 28.0204C36.7202 26.8107 36.0402 25.7486 35.0941 24.834C33.2315 23.0344 32.3445 20.7922 32.4628 18.1959C32.6697 13.2689 37.4889 9.43354 42.3672 10.4071C45.7376 11.0562 48.0142 13.0329 48.9898 16.3077C49.9655 19.5235 49.1377 22.4148 46.7429 24.775C45.8263 25.6896 45.1168 26.7517 44.6733 27.9909C44.5846 28.2564 44.4368 28.3744 44.1411 28.3744C43.0768 28.3744 41.9828 28.3744 40.8889 28.3744ZM9.10614 1.58578C10.1409 1.58578 11.1462 1.58578 12.1809 1.58578C12.1809 2.44136 12.654 2.94291 13.4523 3.17893C13.6296 3.23794 13.807 3.29694 13.9549 3.38545C14.694 3.79849 15.4036 3.82799 15.9949 3.20843C16.734 3.94601 17.4436 4.62457 18.094 5.27364C17.9758 5.71618 17.7392 6.12922 17.7392 6.54226C17.7392 7.75188 18.6853 8.90249 19.8088 9.25652C19.8088 10.2596 19.8088 11.2627 19.8088 12.2363C18.8923 12.3248 18.5671 12.5904 18.2418 13.4164C18.1827 13.5934 18.1236 13.8 18.0053 13.977C17.5914 14.7146 17.5618 15.4521 18.1531 16.0422C17.414 16.7798 16.7044 17.4878 16.054 18.1369C15.6697 18.0189 15.2262 17.7238 14.8714 17.7829C14.1323 17.9304 13.3931 18.2254 12.7723 18.6089C12.4175 18.845 12.2696 19.376 11.974 19.8481C11.1166 19.8481 10.1114 19.8481 9.10614 19.8481C9.04701 19.14 8.78092 18.6089 8.07135 18.3434C7.8644 18.2549 7.62787 18.1959 7.42092 18.0779C6.65222 17.6648 5.88351 17.5468 5.26264 18.1959C4.52351 17.4583 3.81394 16.7503 3.07481 16.0127C3.63655 15.4521 3.66611 14.8031 3.31133 14.095C3.22263 13.918 3.13394 13.7115 3.07481 13.5049C2.83828 12.7084 2.33567 12.2363 1.44871 12.2068C1.44871 11.1742 1.44871 10.1711 1.44871 9.19752C3.1635 8.81399 3.99133 6.8668 3.13394 5.36215C3.87307 4.62458 4.55307 3.9165 5.29221 3.20843C5.85395 3.76899 6.50439 3.76899 7.21396 3.41496C7.36179 3.32645 7.53918 3.23794 7.71657 3.20843C8.57397 2.97241 9.10614 2.50037 9.10614 1.58578ZM23.8297 25.5716C22.4697 25.5716 21.0801 25.5716 19.7201 25.5716C19.3358 25.5716 19.1879 25.4241 19.1879 25.0406C19.2175 24.303 19.1879 23.5654 19.1879 22.8278C19.1879 22.4738 19.3062 22.3263 19.6905 22.3263C22.4401 22.3263 25.1897 22.3263 27.9393 22.3263C28.2941 22.3263 28.4419 22.4443 28.4419 22.8278C28.4123 23.5654 28.4123 24.2735 28.4419 25.0111C28.4715 25.4831 28.2645 25.6011 27.821 25.6011C26.461 25.5716 25.1601 25.5716 23.8297 25.5716ZM37.1637 29.9085C39.6767 29.9085 42.1602 29.9085 44.6733 29.9085C44.6733 30.4986 44.6437 31.0592 44.6733 31.6197C44.7029 32.0032 44.5846 32.1213 44.1707 32.1213C41.9828 32.0918 39.7654 32.1213 37.5776 32.1213C37.4298 32.1213 37.3115 32.0917 37.1637 32.0917C37.1637 31.3247 37.1637 30.6461 37.1637 29.9085ZM38.1098 33.6259C39.9724 33.6259 41.835 33.6259 43.6976 33.6259C43.5794 34.393 42.8994 34.983 42.042 35.0125C41.2733 35.042 40.5046 35.042 39.7654 35.0125C38.908 34.983 38.2576 34.4225 38.1098 33.6259Z" fill="#ED6B02"/>
<path id="Vector_2" d="M23.7695 46.607C27.0512 46.607 30.3625 46.607 33.6443 46.607C34.2652 46.607 34.7974 46.4595 35.093 45.8694C35.3887 45.2794 35.2113 44.7778 34.8269 44.2763C32.7278 41.4735 30.6582 38.6707 28.5886 35.8385C28.2338 35.3369 27.7608 35.1009 27.1695 35.1304C24.9225 35.1304 22.6756 35.1304 20.4286 35.1304C19.8077 35.1304 19.3642 35.3664 19.0094 35.868C16.9399 38.6707 14.8407 41.503 12.7712 44.3058C12.3868 44.8073 12.239 45.3384 12.5346 45.8989C12.8303 46.489 13.3625 46.6365 13.9833 46.6365C17.206 46.607 20.4877 46.607 23.7695 46.607ZM13.9833 45.1024C14.3972 44.5418 14.752 44.0403 15.1364 43.5682C15.2546 43.4502 15.4616 43.3322 15.639 43.3322C21.079 43.3322 26.5191 43.3322 31.9886 43.3322C32.1365 43.3322 32.3139 43.3617 32.373 43.4502C32.7869 43.9812 33.1713 44.5123 33.6147 45.1024C27.0217 45.1024 20.5468 45.1024 13.9833 45.1024ZM16.4077 41.798C16.8216 41.2375 17.1764 40.7064 17.5607 40.2639C17.7086 40.0869 17.9747 39.9394 18.2112 39.9394C21.9364 39.9099 25.6617 39.9099 29.3869 39.9394C29.5347 39.9394 29.7417 39.9394 29.8008 40.0279C30.2443 40.5884 30.6878 41.1785 31.1608 41.8275C26.1938 41.798 21.3747 41.798 16.4077 41.798ZM28.6182 38.4052C25.366 38.4052 22.1729 38.4052 18.9503 38.4052C19.3938 37.8152 19.7486 37.3136 20.1625 36.812C20.2512 36.694 20.4286 36.635 20.5764 36.635C22.7347 36.635 24.8634 36.635 27.0217 36.635C27.1695 36.635 27.3469 36.7235 27.4356 36.812C27.8199 37.2841 28.2043 37.8152 28.6182 38.4052Z" fill="#ED6B02"/>
<path id="Vector_3" d="M6.29705 35.3373C7.39097 35.2487 7.71619 35.0422 7.71619 34.5407C7.71619 34.0391 7.4501 33.8916 6.29705 33.7736C6.20835 33.2131 6.44487 32.3575 5.46922 32.4165C4.61182 32.446 4.81878 33.2131 4.73008 33.8031C4.13877 33.8621 3.31095 33.6556 3.37008 34.5997C3.39964 35.4258 4.13877 35.2783 4.73008 35.3078C4.81878 35.8683 4.58226 36.6944 5.52835 36.6944C6.44488 36.6944 6.20835 35.8978 6.29705 35.3373Z" fill="#ED6B02"/>
<path id="Vector_4" d="M30.9263 4.32954C31.4881 4.24103 32.2863 4.44756 32.3159 3.56247C32.3455 2.61838 31.5176 2.8544 30.9263 2.76589C30.8672 2.17583 31.0446 1.43826 30.1576 1.37925C29.6846 1.34975 29.5072 1.67428 29.3889 2.79539C28.8568 2.8839 28.0289 2.61838 28.0289 3.56247C28.0585 4.44756 28.8272 4.27054 29.3889 4.32954C29.4776 4.9196 29.2707 5.71618 30.1872 5.71618C31.0446 5.68667 30.8376 4.8901 30.9263 4.32954Z" fill="#ED6B02"/>
<path id="Vector_5" d="M44.1402 23.1817C44.081 22.8867 43.9923 22.4736 43.9332 22.0901C43.9036 21.8836 43.9923 21.6475 44.1106 21.5C44.3471 21.2345 44.6428 20.9985 44.8793 20.7329C45.648 19.9364 45.2636 18.6973 44.1697 18.4612C43.8445 18.3727 43.4897 18.3137 43.1349 18.3137C42.7802 18.3137 42.6028 18.1367 42.4845 17.8417C42.3662 17.5466 42.2184 17.2221 42.0706 16.9566C41.5384 15.983 40.1488 15.924 39.7054 16.9271C39.2914 17.9302 38.7001 18.4022 37.5766 18.4907C36.4532 18.5792 36.0097 20.0249 36.8671 20.7329C37.7245 21.441 37.9019 22.1491 37.6358 23.1817C37.3697 24.1848 38.5819 25.1289 39.4688 24.5683C40.4445 23.9783 41.2132 23.9783 42.1888 24.5683C43.1054 25.0699 44.1697 24.3028 44.1402 23.1817ZM43.6376 19.8774C42.3958 20.6739 42.1002 21.736 42.6028 23.0932C41.4497 22.1491 40.3558 22.1786 39.2027 23.0637C39.7645 21.677 39.3506 20.6739 38.168 19.8479C39.7054 19.9954 40.4741 19.2283 40.9175 17.9007C41.2723 19.3168 42.1888 19.9069 43.6376 19.8774Z" fill="#ED6B02"/>
<path id="Vector_6" d="M46.1803 14.6848C46.0621 14.5373 45.9142 14.2423 45.7073 14.1833C45.4708 14.1243 45.0864 14.1538 44.909 14.3013C44.5542 14.5963 44.229 14.9504 44.0221 15.3634C43.9038 15.5699 43.9334 16.0125 44.1108 16.1895C44.2586 16.3665 44.7908 16.4845 44.909 16.3665C45.3525 15.9534 45.7368 15.4519 46.1212 14.9504C46.1508 14.9209 46.1508 14.8618 46.1803 14.6848Z" fill="#ED6B02"/>
<path id="Vector_7" d="M37.2524 16.5141C37.4003 16.3961 37.6959 16.2781 37.7846 16.0716C37.8733 15.865 37.8733 15.5405 37.7846 15.334C37.5481 14.9505 37.2524 14.5669 36.8977 14.2719C36.6907 14.1244 36.2768 14.0654 36.0698 14.1834C35.8629 14.3014 35.6263 14.8029 35.715 14.921C36.0403 15.452 36.4837 15.8946 36.8681 16.3666C36.9272 16.4551 37.0455 16.4551 37.2524 16.5141Z" fill="#ED6B02"/>
<path id="Vector_8" d="M41.6275 13.4163C41.6275 13.2098 41.6275 12.9738 41.6275 12.7673C41.5979 12.3542 41.3318 12.1182 40.9475 12.0887C40.5631 12.0592 40.2379 12.2657 40.1788 12.6493C40.1196 13.1508 40.1196 13.6524 40.1788 14.1834C40.2083 14.567 40.5335 14.7735 40.9179 14.744C41.3318 14.7145 41.5683 14.508 41.5979 14.0949C41.657 13.8589 41.6275 13.6229 41.6275 13.4163Z" fill="#ED6B02"/>
<path id="Vector_9" d="M5.79542 10.702C5.79542 13.3868 7.95369 15.5405 10.6441 15.5405C13.305 15.5405 15.4633 13.4163 15.4929 10.7316C15.5224 8.04679 13.3346 5.86358 10.6737 5.86358C8.01283 5.83407 5.79542 8.01728 5.79542 10.702ZM7.30326 10.702C7.30326 8.84337 8.84066 7.33872 10.6737 7.33872C12.5068 7.36822 14.0146 8.84337 14.0146 10.6726C14.0146 12.5312 12.5363 14.0359 10.6737 14.0359C8.78153 14.0359 7.27369 12.5607 7.30326 10.702Z" fill="#ED6B02"/>
</g>
</svg>
