<svg width="71" height="76" viewBox="0 0 71 76" fill="none" xmlns="http://www.w3.org/2000/svg">
<g id="Group">
<path id="Vector" d="M35.2597 38.0371C27.044 38.0371 20.4972 44.584 20.4972 52.7996C20.4972 61.0153 27.044 67.5621 35.2597 67.5621C43.4754 67.5621 50.0222 61.0153 50.0222 52.7996C50.0222 44.584 43.347 38.0371 35.2597 38.0371ZM35.2597 65.8934C27.9426 65.8934 22.166 60.1167 22.166 52.7996C22.166 45.4826 27.9426 39.7059 35.2597 39.7059C42.5768 39.7059 48.3534 45.4826 48.3534 52.7996C48.3534 59.9883 42.4484 65.8934 35.2597 65.8934Z" fill="#ED6A02"/>
<path id="Vector_2" d="M55.542 47.2794C57.0824 43.1716 54.515 38.5502 50.1505 37.78C50.0221 37.0098 49.7654 36.2396 49.3802 35.4694L56.6973 9.02518C56.8257 8.76844 56.6973 8.38336 56.4406 8.12662C46.2994 0.296067 47.0696 0.809522 46.8129 0.681152C46.6845 0.681152 46.6845 0.681152 46.5561 0.681152C22.4226 0.681152 23.963 0.681152 23.8347 0.681152H23.7063C23.7063 0.681152 23.5779 0.68116 23.5779 0.80953C23.3212 0.9379 24.7333 -0.0890425 14.0786 8.12662C13.8218 8.38336 13.6935 8.64007 13.8218 9.02518L21.2673 35.4694C20.8822 36.1112 20.6254 37.0098 20.4971 37.78C16.1325 38.4218 13.4367 43.0432 15.1055 47.2794C11.6395 50.1035 11.6395 55.495 15.1055 58.1908C13.5651 62.2986 16.1325 66.9199 20.4971 67.6902C21.2673 72.0547 25.7602 74.7505 29.9964 73.0817C32.8205 76.5476 38.2121 76.5476 40.9078 73.0817C45.0157 74.6221 49.637 72.0547 50.4072 67.6902C54.7718 66.9199 57.4675 62.427 55.7987 58.1908C59.008 55.3667 59.008 50.2319 55.542 47.2794ZM48.0965 33.9289C46.171 32.1317 43.3469 31.4899 40.6511 32.3885C40.1376 31.6183 39.3674 31.1048 38.5972 30.7197C39.1107 29.1792 46.4277 4.66064 46.9412 2.99183L55.0285 9.15356L48.0965 33.9289ZM33.4624 30.0778L28.456 13.6465H42.0632L37.1851 29.9495C35.9014 29.6927 34.6177 29.6927 33.4624 30.0778ZM42.4483 12.106H27.9425L25.1184 2.47832H45.4008L42.4483 12.106ZM23.5779 2.99183C24.0914 4.53227 31.4085 29.0509 31.922 30.7197C31.1517 31.1048 30.3815 31.7466 29.868 32.3885C27.3007 31.4899 24.4765 32.0034 22.4226 33.9289L15.619 9.15356L23.5779 2.99183ZM54.1299 57.2922C53.7448 57.5489 53.6165 57.934 53.8732 58.3191C54.6434 59.988 54.6434 61.7851 53.7448 63.4539C52.8462 64.9944 51.1774 66.0213 49.3802 66.1497C48.9951 66.1497 48.61 66.5348 48.61 66.9199C48.4817 68.7171 47.4547 70.3859 45.9143 71.2845C44.3738 72.1831 42.4483 72.1831 40.7795 71.4129C40.3944 71.2845 40.0093 71.4129 39.7525 71.6696C38.7256 73.2101 37.0568 74.1086 35.2596 74.1086C33.4624 74.1086 31.7936 73.2101 30.7666 71.6696C30.5099 71.2845 30.1248 71.1561 29.7397 71.4129C28.9695 71.798 28.1992 71.9263 27.3007 71.9263C24.4765 71.9263 22.1659 69.7441 21.9091 66.9199C21.9091 66.5348 21.524 66.1497 21.1389 66.1497C19.3417 66.0213 17.6729 64.9944 16.7743 63.4539C15.8758 61.9135 15.8758 59.988 16.646 58.3191C16.7743 57.934 16.646 57.5489 16.3892 57.2922C14.8488 56.2652 13.9502 54.5964 13.9502 52.7993C13.9502 51.0021 14.8488 49.3333 16.3892 48.3063C16.7743 48.0496 16.9027 47.6645 16.646 47.2794C15.8758 45.6106 15.8758 43.8134 16.7743 42.2729C17.6729 40.7325 19.3417 39.7056 21.1389 39.5772C21.524 39.5772 21.9091 39.1921 21.9091 38.807C22.0375 35.9828 24.4765 33.8006 27.3007 33.8006C28.0709 33.8006 28.9695 34.0573 29.7397 34.314C30.1248 34.4424 30.5099 34.314 30.7666 34.0573C31.7936 32.5168 33.4624 31.6183 35.2596 31.6183C37.0568 31.6183 38.7256 32.5168 39.7525 34.0573C40.0093 34.4424 40.3944 34.5708 40.7795 34.314C42.3199 33.5438 44.2455 33.5438 45.9143 34.4424C47.4547 35.341 48.4817 37.0098 48.61 38.807C48.61 39.1921 48.9951 39.5772 49.3802 39.5772C53.2313 39.8339 55.542 43.8134 53.8732 47.4077C53.7448 47.7928 53.8732 48.178 54.1299 48.4347C55.6704 49.4617 56.569 51.1305 56.569 52.9276C56.569 54.5964 55.6704 56.2652 54.1299 57.2922Z" fill="#ED6A02"/>
<path id="Vector_3" d="M63.6294 6.07275C64.2712 6.07275 64.7847 6.58622 64.7847 7.22807C64.7847 7.86992 64.2712 8.38339 63.6294 8.38339C62.9875 8.38339 62.474 7.86992 62.474 7.22807C62.474 6.71459 62.9875 6.07275 63.6294 6.07275Z" fill="#ED6A02"/>
<path id="Vector_4" d="M57.8527 28.4092C58.4946 28.4092 59.008 28.9227 59.008 29.5645C59.008 30.2063 58.4946 30.7198 57.8527 30.7198C57.2109 30.7198 56.6974 30.2063 56.6974 29.5645C56.6974 28.9227 57.2109 28.4092 57.8527 28.4092Z" fill="#ED6A02"/>
<path id="Vector_5" d="M2.0119 53.0557C2.65375 53.0557 3.16723 53.5691 3.16723 54.211C3.16723 54.8528 2.65375 55.3663 2.0119 55.3663C1.37005 55.3663 0.856567 54.8528 0.856567 54.211C0.856567 53.5691 1.37005 53.0557 2.0119 53.0557Z" fill="#ED6A02"/>
<path id="Vector_6" d="M14.207 70.8994C14.8489 70.8994 15.3624 71.4129 15.3624 72.0547C15.3624 72.6966 14.8489 73.2101 14.207 73.2101C13.5652 73.2101 13.0517 72.6966 13.0517 72.0547C13.0517 71.4129 13.5652 70.8994 14.207 70.8994Z" fill="#ED6A02"/>
<path id="Vector_7" d="M65.1697 57.1641C65.8116 57.1641 66.3251 57.6775 66.3251 58.3194C66.3251 58.9612 65.8116 59.4747 65.1697 59.4747C64.5279 59.4747 64.0144 58.9612 64.0144 58.3194C64.0144 57.6775 64.5279 57.1641 65.1697 57.1641Z" fill="#ED6A02"/>
<path id="Vector_8" d="M2.78224 8.64014C3.42409 8.64014 3.93757 9.15361 3.93757 9.79546C3.93757 10.4373 3.42409 10.9508 2.78224 10.9508C2.14039 10.9508 1.62691 10.4373 1.62691 9.79546C1.62691 9.15361 2.14039 8.64014 2.78224 8.64014Z" fill="#ED6A02"/>
<path id="Vector_9" d="M65.6832 15.7007C62.9875 15.7007 60.8052 17.883 60.8052 20.5787C60.8052 23.2745 62.9875 25.4568 65.6832 25.4568C68.379 25.4568 70.5613 23.2745 70.5613 20.5787C70.4329 17.883 68.2506 15.7007 65.6832 15.7007ZM65.6832 23.9163C63.8861 23.9163 62.474 22.5043 62.474 20.7071C62.474 18.9099 63.8861 17.4979 65.6832 17.4979C67.4804 17.4979 68.8925 18.9099 68.8925 20.7071C68.8925 22.5043 67.352 23.9163 65.6832 23.9163Z" fill="#ED6A02"/>
<path id="Vector_10" d="M5.43875 32.6812C2.63875 32.6812 0.438751 34.8812 0.438751 37.6812C0.438751 40.4812 2.63875 42.6812 5.43875 42.6812C8.23875 42.6812 10.4388 40.4812 10.4388 37.6812C10.4388 34.9812 8.23875 32.6812 5.43875 32.6812ZM5.43875 41.5811C3.33875 41.5811 1.63875 39.8812 1.63875 37.7812C1.63875 35.6812 3.33875 33.9811 5.43875 33.9811C7.53875 33.9811 9.23875 35.6812 9.23875 37.7812C9.23875 39.8812 7.53875 41.5811 5.43875 41.5811Z" fill="#ED6A02"/>
</g>
</svg>
