<svg width="95" height="76" viewBox="0 0 95 76" fill="none" xmlns="http://www.w3.org/2000/svg">
<g id="XMLID_44840_">
<path id="XMLID_44865_" d="M81.2642 36.2505H55.552V0.681152H18.6075V73.0079H0V75.6812H95V73.0079H81.2642V36.2505ZM53.0484 71.8198H21.0434V3.35442H53.0484V71.8198ZM78.7607 71.8198H55.8903V38.998H78.7607V71.8198Z" fill="#ED6A02"/>
<path id="XMLID_44862_" d="M35.3205 10.9287H27.4038V18.3545H35.3205V10.9287ZM34.1025 17.0178H28.6217V12.2653H34.1025V17.0178Z" fill="#ED6A02"/>
<path id="XMLID_44859_" d="M46.6884 10.9287H38.7717V18.3545H46.6884V10.9287ZM45.4704 17.0178H39.9897V12.2653H45.4704V17.0178Z" fill="#ED6A02"/>
<path id="XMLID_44856_" d="M46.6884 20.582H38.7717V28.0078H46.6884V20.582ZM45.4704 26.6711H39.9897V21.9187H45.4704V26.6711Z" fill="#ED6A02"/>
<path id="XMLID_44853_" d="M46.6884 37.7363H38.7717V45.1621H46.6884V37.7363ZM45.4704 43.8254H39.9897V39.073H45.4704V43.8254Z" fill="#ED6A02"/>
<path id="XMLID_44850_" d="M46.6884 54.7407H38.7717V62.1665H46.6884V54.7407ZM45.4704 60.8298H39.9897V56.0774H45.4704V60.8298Z" fill="#ED6A02"/>
<path id="XMLID_44847_" d="M35.3205 54.7407H27.4038V62.1665H35.3205V54.7407ZM34.1025 60.8298H28.6217V56.0774H34.1025V60.8298Z" fill="#ED6A02"/>
<path id="XMLID_44844_" d="M66.8517 41.894H58.9351V49.3198H66.8517V41.894ZM65.6338 47.9832H60.153V43.2307H65.6338V47.9832Z" fill="#ED6A02"/>
<path id="XMLID_44841_" d="M76.7983 53.9238H68.8816V61.3496H76.7983V53.9238ZM75.5803 60.0129H70.0995V55.2605H75.5803V60.0129Z" fill="#ED6A02"/>
</g>
</svg>
