<svg width="55" height="76" viewBox="0 0 55 76" fill="none" xmlns="http://www.w3.org/2000/svg">
<g id="XMLID_44652_">
<path id="XMLID_44664_" d="M28.544 9.64014C26.6747 9.64014 25.1069 11.1052 25.1069 12.852C25.1069 14.5988 26.6747 16.0639 28.544 16.0639C30.4735 16.0639 31.981 14.5988 31.981 12.852C31.981 11.1052 30.4735 9.64014 28.544 9.64014ZM28.544 14.0353C27.8807 14.0353 27.2777 13.5282 27.2777 12.852C27.2777 12.2322 27.8204 11.6687 28.544 11.6687C29.2072 11.6687 29.8102 12.1758 29.8102 12.852C29.8102 13.5282 29.2072 14.0353 28.544 14.0353Z" fill="#ED6A02"/>
<path id="XMLID_44661_" d="M42.8346 6.20329C42.8346 3.16048 40.1815 0.681152 36.9254 0.681152C33.6693 0.681152 31.0161 3.16048 31.0161 6.20329C31.0161 9.24611 33.6693 11.7254 36.9254 11.7254C40.1815 11.7254 42.8346 9.24611 42.8346 6.20329ZM36.9254 9.64055C34.8752 9.64055 33.1869 8.06279 33.1869 6.14694C33.1869 4.23109 34.8752 2.65335 36.9254 2.65335C38.9755 2.65335 40.6639 4.23109 40.6639 6.14694C40.6639 8.11913 38.9755 9.64055 36.9254 9.64055Z" fill="#ED6A02"/>
<path id="XMLID_44658_" d="M32.6443 15.6132C32.6443 17.6981 34.4533 19.3886 36.6843 19.3886C38.9153 19.3886 40.7243 17.6981 40.7243 15.6132C40.7243 13.5283 38.9153 11.8379 36.6843 11.8379C34.4533 11.8379 32.6443 13.5283 32.6443 15.6132ZM38.4933 15.6132C38.4933 16.5712 37.6491 17.3037 36.6843 17.3037C35.6592 17.3037 34.8753 16.5148 34.8753 15.6132C34.8753 14.6553 35.7195 13.9228 36.6843 13.9228C37.7094 13.9228 38.4933 14.6553 38.4933 15.6132Z" fill="#ED6A02"/>
<path id="XMLID_44653_" d="M0.62579 73.4272C1.53027 74.8359 3.03773 75.6811 4.84669 75.6811H50.7942C52.3016 75.6811 53.6885 74.9486 54.4121 73.7089C55.196 72.4693 55.196 71.0042 54.4121 69.7645L40.5434 47.2815C40.4831 47.1688 40.3625 47.0561 40.2419 46.9434C40.2419 46.718 40.1213 46.4926 39.9404 46.3236L33.5488 35.9555V27.2778C34.996 26.7707 36.021 25.4747 36.021 23.9533C36.021 21.9811 34.3327 20.4033 32.2222 20.4033H22.3936C20.2831 20.4033 18.5948 21.9811 18.5948 23.9533C18.5948 25.4747 19.6198 26.7707 21.067 27.2778V35.9555L14.6754 46.3236C14.4945 46.4926 14.3739 46.718 14.3739 46.9434C14.2533 46.9998 14.1327 47.1125 14.0724 47.2252L0.686093 68.863C-0.218385 70.328 -0.218389 72.0185 0.62579 73.4272ZM20.7052 24.0096C20.7052 23.1644 21.4288 22.4882 22.3333 22.4882H32.1619C33.0664 22.4882 33.79 23.1644 33.79 24.0096C33.79 24.8548 33.0664 25.531 32.1619 25.531H22.3333C21.4288 25.4747 20.7052 24.7985 20.7052 24.0096ZM23.0569 36.8007C23.1774 36.6317 23.1774 36.4626 23.1774 36.2936V27.5596H31.3177V36.2936C31.3177 36.4626 31.378 36.6317 31.4383 36.8007L37.5888 46.7744L16.8461 46.718L23.0569 36.8007ZM2.55535 69.9336L15.5798 48.8029L38.9757 48.8593L52.5428 70.8352C52.9046 71.3986 52.9046 72.1312 52.5428 72.6946C52.181 73.2581 51.5178 73.6526 50.7942 73.6526H4.84669C3.88191 73.6526 3.03774 73.2018 2.55535 72.4129C2.07296 71.624 2.07296 70.6661 2.55535 69.9336Z" fill="#ED6A02"/>
</g>
</svg>
