<svg width="51" height="56" viewBox="0 0 51 56" fill="none" xmlns="http://www.w3.org/2000/svg">
<g id="Group">
<path id="Vector" d="M24.1895 0.5C23.3678 0.663983 22.5133 0.795174 21.6916 1.05755C16.4988 2.73018 13.3765 6.27222 12.2919 11.6181C12.1933 12.1428 12.4563 12.5692 12.9164 12.6348C13.4094 12.7332 13.7709 12.438 13.8695 11.8804C14.4939 8.4368 16.3016 5.71466 19.2924 3.87805C26.523 -0.61509 36.0541 4.04204 37.0072 12.4708C37.3688 15.6849 36.58 18.6038 34.4766 21.0635C32.8004 23.0313 31.4857 25.1631 31.2557 27.8196C30.2368 27.8196 29.2508 27.8196 28.1991 27.8196C28.3306 27.1965 28.4949 26.6061 28.6264 26.0158C28.7579 25.5238 28.8893 25.0647 28.9879 24.5728C29.0865 24.048 28.8565 23.6544 28.3963 23.556C27.9691 23.4577 27.5747 23.72 27.4432 24.212C27.1146 25.4255 26.8516 26.6389 26.523 27.8852C25.8656 27.8852 25.1754 27.918 24.5181 27.8524C24.3867 27.8524 24.2552 27.6228 24.1895 27.4589C23.9265 26.4094 23.6636 25.3599 23.4007 24.2776C23.2692 23.72 22.8748 23.4249 22.4147 23.5233C21.9217 23.6544 21.6916 24.048 21.8231 24.6711C22.0532 25.5894 22.2832 26.475 22.4804 27.3605C22.5133 27.4917 22.5133 27.6228 22.5462 27.8196C21.5273 27.8196 20.5413 27.8196 19.5553 27.8196C19.4567 27.2621 19.391 26.7373 19.2595 26.2126C18.8651 24.6056 18.1421 23.1625 16.9918 21.949C15.3156 20.1452 14.231 18.079 13.8038 15.6193C13.7052 15.0617 13.3108 14.7994 12.8178 14.8977C12.3577 14.9961 12.1276 15.3897 12.2262 15.9472C12.6534 18.4398 13.6394 20.6699 15.3813 22.5394C17.1561 24.4416 18.0435 26.6389 17.912 29.2627C17.8792 30.1482 17.912 31.0009 17.912 31.8864C17.8792 33.0671 18.0435 34.215 18.7008 35.2972C18.2078 35.4612 17.7148 35.5924 17.2547 35.7564C15.8086 36.2156 14.3954 36.6747 12.9492 37.1339C12.6863 37.2323 12.4891 37.1995 12.2262 37.0355C11.6017 36.6419 10.9115 36.3139 10.2542 35.9532C10.8129 34.7069 10.6157 33.2639 10.55 31.8864C10.4843 30.6073 9.46544 29.7546 8.18365 29.7218C7.362 29.7218 6.54035 29.7218 5.7187 29.7218C4.43692 29.7546 3.45093 30.7057 3.41807 32.0176C3.3852 32.9031 3.3852 33.7558 3.41807 34.6413C3.45093 35.1005 3.58239 35.5596 3.71386 36.0844C3.61526 36.1172 3.51666 36.15 3.3852 36.1828C1.38036 36.7403 0.032856 38.4785 -7.62939e-06 40.5447C-7.62939e-06 41.2334 -7.62939e-06 41.8894 -7.62939e-06 42.5781C0.032856 43.89 0.985973 44.8411 2.30062 44.8411C5.4229 44.8411 8.57804 44.8411 11.7003 44.8411C13.015 44.8411 13.9681 43.89 13.9681 42.5781C13.9681 41.2662 14.1653 39.9216 13.5737 38.6097C14.1653 38.4129 14.724 38.249 15.2827 38.0522C16.696 37.593 18.0764 37.1667 19.4896 36.7403C19.6868 36.6747 19.9497 36.6747 20.0812 36.7731C21.1986 37.593 22.4804 37.8554 23.8279 37.8226C24.058 37.8226 24.2881 37.8226 24.551 37.8226C24.551 38.6753 24.551 39.4624 24.551 40.3152C24.3538 40.3152 24.1566 40.3479 23.9594 40.3479C22.842 40.4135 21.8888 41.299 21.8231 42.3813C21.7574 43.4308 21.7902 44.4803 21.8231 45.5298C21.8231 45.8906 22.0203 46.2513 22.1189 46.6449C22.0203 46.6777 21.9217 46.7433 21.7902 46.7761C19.7197 47.3664 18.4379 49.0063 18.3722 51.138C18.3393 51.8268 18.3393 52.4827 18.3722 53.1714C18.405 54.5489 19.391 55.4672 20.7385 55.5C23.8279 55.5 26.8845 55.5 29.9739 55.5C31.3543 55.5 32.3074 54.5817 32.3403 53.2042C32.3731 52.2859 32.406 51.3676 32.2745 50.4821C31.9787 48.6455 30.8613 47.432 29.0865 46.8417C28.9222 46.7761 28.7579 46.7433 28.5935 46.7105C29.1851 45.2674 29.0208 43.7588 28.8893 42.3157C28.7907 41.2007 27.8376 40.4791 26.6873 40.3807C26.523 40.3807 26.3586 40.3479 26.1943 40.3479C26.1943 39.528 26.1943 38.7409 26.1943 37.8882C26.5887 37.8882 26.9174 37.8882 27.2789 37.8882C28.4949 37.921 29.5795 37.593 30.5655 36.9043C30.697 36.8059 30.927 36.7403 31.0585 36.8059C32.9319 37.5274 34.8052 38.2817 36.58 38.9705C36.5471 40.2495 36.4814 41.4302 36.4814 42.6109C36.4814 43.9884 37.4345 44.9395 38.8149 44.9395C40.5897 44.9395 42.3973 44.9395 44.1721 44.9395C44.7965 44.9395 45.1581 44.6443 45.1581 44.1523C45.1581 43.6276 44.7965 43.3324 44.1063 43.3324C42.3973 43.3324 40.6883 43.3324 39.0121 43.3324C38.2233 43.3324 38.059 43.1684 38.059 42.3485C38.059 41.7582 38.059 41.1679 38.059 40.5775C38.0918 39.0361 39.2093 37.7898 40.7211 37.7242C42.5288 37.6586 44.3364 37.6586 46.144 37.7242C47.623 37.7898 48.7405 39.0033 48.8062 40.4791C48.8391 41.1679 48.8062 41.8566 48.8062 42.5781C48.8062 43.0045 48.609 43.2668 48.1489 43.3324C47.5573 43.4308 47.2615 43.7916 47.3272 44.2507C47.4258 44.7099 47.8202 44.9723 48.3789 44.9067C49.3978 44.8083 50.2852 43.9556 50.3838 42.9061C50.4495 41.955 50.4824 41.0039 50.3509 40.0856C50.088 38.085 48.9048 36.8059 46.9657 36.2156C46.9 36.1828 46.8342 36.1828 46.7685 36.15C46.7356 36.15 46.7028 36.1172 46.6699 36.0844C47.2286 34.7069 46.9986 33.2311 46.9657 31.8208C46.9328 30.7713 45.914 29.853 44.8623 29.8202C43.9091 29.7874 42.956 29.7874 42.0029 29.8202C40.9512 29.853 39.9981 30.6401 39.8995 31.6896C39.8009 32.8703 39.8666 34.0838 39.8995 35.2645C39.8995 35.5268 40.0638 35.7892 40.1624 36.1172C39.2093 36.3467 38.3219 36.7731 37.6317 37.4946C37.566 37.5602 37.3688 37.5602 37.2702 37.5274C35.4954 36.8387 33.7535 36.15 31.913 35.4284C32.8333 34.0838 32.7018 32.5751 32.7347 31.0665C32.7347 29.8858 32.7018 28.6723 32.8661 27.4916C33.0962 25.655 33.9836 24.1136 35.1996 22.7689C37.5331 20.178 38.6506 17.0951 38.6177 13.6187C38.5191 7.12493 33.3591 1.4511 26.8845 0.762369C26.753 0.762369 26.6216 0.69678 26.4572 0.663983C25.767 0.5 24.9782 0.5 24.1895 0.5ZM7.82212 37.593C8.54518 37.593 9.20251 37.5274 9.82697 37.593C11.2402 37.7242 12.3248 38.9049 12.3577 40.3152C12.3905 41.0039 12.3905 41.6926 12.3577 42.4141C12.3577 42.9389 12.1276 43.1684 11.6017 43.1684C8.51232 43.1684 5.45576 43.1684 2.36634 43.1684C1.84049 43.1684 1.61043 42.9061 1.61043 42.4141C1.61043 41.7254 1.57756 41.0039 1.61043 40.3152C1.67616 39.1017 2.43208 38.0194 3.61526 37.7242C4.43692 37.5274 5.29144 37.5602 6.21169 37.4618C6.21169 38.085 6.21169 38.5769 6.21169 39.0361C6.21169 39.6592 6.54035 40.02 7.03334 40.02C7.49347 40.02 7.82212 39.6264 7.82212 39.0689C7.82212 38.5769 7.82212 38.1178 7.82212 37.593ZM27.1803 48.1863C29.218 47.924 30.7298 49.1702 30.7956 51.1052C30.8284 51.7284 30.7956 52.3515 30.7956 52.9747C30.7956 53.5322 30.5655 53.7618 30.0068 53.7618C26.9502 53.7618 23.8937 53.7618 20.8371 53.7618C20.3113 53.7618 20.0483 53.5322 20.0483 52.9747C20.0483 52.3187 20.0155 51.6628 20.0483 51.0069C20.1469 49.1046 21.856 47.7928 23.6307 48.2191C23.5979 48.2847 23.565 48.3503 23.5321 48.3831C23.1377 48.9079 23.1706 49.3342 23.5321 49.6622C23.9265 49.9574 24.3867 49.859 24.7811 49.3998C24.9783 49.1374 25.2083 48.9079 25.4384 48.6455C25.7342 48.9735 25.9314 49.2686 26.1943 49.5638C26.523 49.8918 26.9831 49.9574 27.3117 49.695C27.6733 49.4326 27.739 49.0063 27.4761 48.6127C27.3775 48.4815 27.2789 48.3503 27.1803 48.1863ZM31.1571 32.3784C31.2557 34.2478 29.8753 35.986 28.1005 36.0844C26.2929 36.1828 24.4853 36.1828 22.6776 36.0844C20.87 35.986 19.4239 34.0838 19.6211 32.3784C23.4664 32.3784 27.3117 32.3784 31.1571 32.3784ZM23.4335 43.9228C23.4335 43.5292 23.4335 43.1357 23.4335 42.7421C23.4335 42.1517 23.6965 41.8894 24.2552 41.8566C25.0111 41.8566 25.7999 41.8566 26.5558 41.8566C27.0817 41.8566 27.3775 42.1518 27.3775 42.6437C27.4103 43.4308 27.4103 44.2507 27.3775 45.0707C27.3446 45.8906 26.7859 46.4481 25.9971 46.5137C24.4853 46.6449 23.6965 46.3169 23.4664 45.3986C23.4335 45.2346 23.4335 45.0707 23.4335 44.9067C23.4335 44.6115 23.4335 44.2507 23.4335 43.9228ZM45.4867 33.2639C45.4867 33.3623 45.4867 33.4934 45.4867 33.5918C45.651 35.8548 44.6322 36.0188 42.9889 35.9204C42.1344 35.8876 41.5756 35.3629 41.5099 34.5101C41.477 33.6902 41.477 32.8703 41.5099 32.0504C41.5099 31.5256 41.8057 31.2633 42.3316 31.2633C43.0875 31.2633 43.8763 31.2633 44.6322 31.2633C45.1909 31.2633 45.4538 31.5256 45.4538 32.0832C45.4867 32.4767 45.4867 32.8703 45.4867 33.2639ZM5.0285 33.2967C5.0285 32.8703 5.0285 32.4767 5.0285 32.0504C5.06137 31.5256 5.29143 31.2633 5.81729 31.2305C6.60608 31.2305 7.39487 31.2305 8.18365 31.2305C8.64378 31.2305 8.97244 31.4928 8.97244 31.9192C9.00531 32.8047 9.00531 33.6902 8.93958 34.6085C8.87384 35.3628 8.31512 35.822 7.52633 35.8876C6.08022 35.986 5.35717 35.6908 5.09424 34.8709C5.06137 34.7069 5.0285 34.5429 5.0285 34.4118C5.0285 34.051 5.0285 33.6902 5.0285 33.2967ZM19.6211 29.4594C23.4993 29.4594 27.3117 29.4594 31.1571 29.4594C31.1571 29.8858 31.1571 30.2794 31.1571 30.6729C27.2789 30.6729 23.4664 30.6729 19.6211 30.6729C19.6211 30.2466 19.6211 29.8858 19.6211 29.4594Z" fill="#ED6B02"/>
<path id="Vector_2" d="M25.898 12.4709C25.898 12.2413 25.9308 12.0118 25.898 11.7822C25.8322 11.323 25.5364 11.0935 25.1092 11.0607C24.6819 11.0279 24.3533 11.3886 24.3204 11.8478C24.2875 12.2413 24.2875 12.6677 24.3204 13.0941C24.3533 13.586 24.6819 13.914 25.1092 13.914C25.5364 13.914 25.8651 13.586 25.898 13.1269C25.898 12.8973 25.898 12.6677 25.898 12.4709Z" fill="#ED6B02"/>
<path id="Vector_3" d="M27.7054 15.8489C27.9026 15.8489 28.0998 15.8489 28.297 15.8489C28.7572 15.8161 29.0201 15.5538 29.053 15.1274C29.0858 14.6683 28.8229 14.3403 28.3956 14.3075C27.9026 14.2419 27.3768 14.2419 26.8838 14.3075C26.4565 14.3731 26.1936 14.7011 26.2265 15.1274C26.2593 15.5538 26.5223 15.849 26.9824 15.8818C27.2453 15.849 27.4754 15.8489 27.7054 15.8489Z" fill="#ED6B02"/>
<path id="Vector_4" d="M22.5139 15.849C22.7439 15.849 22.9411 15.849 23.1712 15.849C23.5985 15.8162 23.8614 15.5538 23.8942 15.1275C23.9271 14.6683 23.697 14.3404 23.2698 14.2748C22.7768 14.2092 22.2838 14.2092 21.7908 14.2748C21.3636 14.3076 21.1006 14.6355 21.1006 15.0947C21.1006 15.5211 21.4293 15.8162 21.9223 15.849C22.0866 15.849 22.3167 15.849 22.5139 15.849Z" fill="#ED6B02"/>
<path id="Vector_5" d="M24.2889 17.6198C24.2889 17.8166 24.2889 18.0134 24.2889 18.2102C24.3217 18.7021 24.6504 19.0301 25.0776 19.0301C25.5049 19.0301 25.8664 18.7349 25.8664 18.2429C25.8993 17.8166 25.8993 17.3902 25.8664 16.9639C25.8336 16.5047 25.5049 16.1768 25.0776 16.1768C24.6175 16.1768 24.2889 16.5047 24.2889 16.9967C24.2889 17.2263 24.2889 17.423 24.2889 17.6198Z" fill="#ED6B02"/>
<path id="Vector_6" d="M29.2507 9.38766C29.2507 9.81401 29.6451 10.1748 30.0724 10.142C30.4996 10.1092 30.8611 9.74844 30.8283 9.32208C30.7954 8.92852 30.4339 8.60055 30.0395 8.60055C29.6122 8.56775 29.2507 8.9613 29.2507 9.38766Z" fill="#ED6B02"/>
</g>
</svg>
