<svg width="55" height="76" viewBox="0 0 55 76" fill="none" xmlns="http://www.w3.org/2000/svg">
<g id="Group 1236">
<path id="Vector" d="M54.1383 57.6474C54.0664 57.2161 53.9226 56.8567 53.7789 56.4973C53.6351 56.1379 53.4913 55.7066 53.3476 55.3472C53.2038 54.9878 52.9882 54.6284 52.7725 54.269C50.688 50.5313 47.0941 48.2312 43.0688 47.0811C41.0562 46.5061 38.8279 46.2186 36.8872 45.4998C36.3121 44.3497 35.8809 43.2715 35.4496 42.0495C39.0436 39.1025 41.3437 36.2992 42.6375 31.7708C44.0032 31.6989 44.9377 31.3395 45.8721 30.2613C47.0222 28.9675 47.4535 27.0268 47.3097 25.3735C47.1659 23.7203 46.4471 22.2827 45.1533 21.2764C45.0096 21.1326 44.7939 20.9889 44.6502 20.917C44.6502 19.2638 44.5783 17.6105 44.5783 15.9573C44.5783 13.0102 45.0814 9.27252 42.7094 7.04426C41.3437 5.75043 39.4748 5.31912 37.6778 5.0316C36.3121 2.9471 33.7245 1.65329 31.3525 1.15013C29.1961 0.718858 26.4646 0.503202 24.3083 0.862599C20.1393 1.43764 15.6827 3.09088 13.0951 6.5411C10.0042 10.6382 10.6512 15.4541 10.6512 20.2701C10.6512 20.6295 10.7949 21.492 10.3636 21.6358C9.21357 22.2108 8.63853 22.8577 8.20726 24.0797C7.63222 25.8048 7.99162 27.9612 8.85417 29.6144C9.50109 30.7645 10.5074 31.7708 11.8012 32.1302C12.0887 32.2021 12.4481 32.2739 12.7357 32.3458C14.1014 36.5867 16.4015 39.8213 19.9955 42.4808C19.3486 43.4871 18.6298 44.4935 18.0548 45.5716C11.2262 47.9437 5.47584 47.2968 1.80999 54.8441C1.30683 55.8504 0.875553 57.0005 0.659914 58.0787C0.300517 60.5226 0.084879 73.1734 0.803674 75.3298C1.16307 75.6892 1.88186 75.6173 2.38502 75.6173H31.2806H45.8002C48.2441 75.6173 50.7599 75.761 53.2038 75.6173C53.707 75.6173 53.9945 75.6173 54.3539 75.3298C54.857 73.5328 54.7133 61.3851 54.282 59.085C54.3539 58.4381 54.2101 58.0787 54.1383 57.6474ZM43.0688 29.3988C43.3563 27.2424 43.1407 24.9422 43.5001 22.7858C43.8595 22.8577 44.2908 22.9296 44.5783 23.2171C45.2252 23.6484 45.5846 24.4391 45.6565 25.1579C45.8721 26.7392 45.2252 28.1049 44.2908 29.3269C44.0032 29.6144 43.6438 29.7582 43.2844 29.9738L43.0688 29.9019C43.0688 29.6863 43.0688 29.5425 43.0688 29.3988ZM12.2325 30.1894L11.5137 30.1176C10.4355 28.9675 9.78861 27.5299 9.78861 25.8766C9.86049 24.5109 10.2199 23.7922 11.2262 22.9296C11.4418 23.0015 11.5856 23.0015 11.7294 23.1452C12.2325 23.7922 12.3763 29.3269 12.2325 30.1894ZM12.8794 21.2045C12.7357 20.8451 12.6638 20.5576 12.6638 20.1982C12.0169 17.323 12.0888 12.8665 13.0951 10.0632C14.1733 7.18798 16.4015 5.24724 19.1329 3.95341C23.3738 2.01266 28.7648 1.79706 33.1494 3.45029L33.5088 3.59401C34.8745 4.38469 35.9527 5.67852 37.0309 6.82859C38.6842 6.82859 40.2655 6.97235 41.4875 8.26618C42.0625 8.91309 42.4219 9.70378 42.6375 10.5663C42.925 12.0039 42.9969 18.545 42.8532 20.1982C42.8532 20.6295 42.7094 20.917 42.4938 21.2045C42.0625 21.4201 41.4875 21.492 41.0562 21.2764C40.3374 20.9889 39.978 20.1982 39.6905 19.5513C38.8998 17.0355 39.1873 12.7227 36.7434 11.2133C36.0246 11.4289 35.2339 12.2915 34.7308 12.7946C32.79 14.5916 29.9867 15.0229 27.3991 14.951C23.7332 15.3823 20.283 15.0229 16.689 14.0884C16.3296 14.5197 15.9702 14.951 15.6827 15.3823C15.539 17.1074 15.4671 20.6295 14.1014 21.7076C13.9576 21.8514 13.8857 21.8514 13.742 21.9233C13.3107 21.8514 13.0951 21.6358 12.8794 21.2045ZM19.708 39.8213C14.6045 35.5085 14.2451 30.4051 13.742 24.1516C14.2451 23.9359 14.7483 23.7203 15.1796 23.3609C17.2641 21.5639 17.1922 18.6887 17.336 16.1729C22.2238 17.323 28.046 17.5386 32.9338 16.1011C34.3714 15.526 35.5215 14.8072 36.6715 13.729L36.7434 14.0165C37.606 17.1792 37.4622 21.7076 40.6249 23.5046C40.9124 23.6484 41.1999 23.864 41.5593 24.0078C41.5593 29.3988 40.6968 34.646 36.8153 38.6712C35.0183 40.5401 32.8619 41.8339 30.3461 42.5527C29.6273 42.7683 28.9804 42.9121 28.1898 42.984C25.0271 43.1996 22.08 41.8339 19.708 39.8213ZM30.2024 52.7596C30.2743 52.4002 30.5618 52.0408 30.7055 51.7533C31.4962 52.1845 32.2869 52.6158 33.1494 52.9034C32.3588 55.2754 31.4962 57.5755 30.6337 59.9475C30.418 60.5226 30.1305 61.0976 29.9149 61.6008C30.1305 59.2287 29.6992 54.7003 30.2024 52.7596ZM30.418 48.0156C30.418 47.9437 30.3461 47.9437 30.3461 47.8718C30.2743 47.7999 30.2743 47.728 30.2024 47.6562C29.6992 46.7217 28.8367 46.3623 28.2616 45.5716C28.046 45.2841 28.1179 45.4279 28.1898 45.0685C28.8367 44.5653 29.6992 44.4216 30.418 44.2778L33.5088 42.984L34.1558 44.6372L35.3058 47.0092C34.8027 48.5187 34.1558 49.8844 33.5807 51.322C32.5025 50.2438 31.4243 49.1656 30.418 48.0156ZM21.4331 43.559C22.7988 44.0622 24.0926 44.4216 25.5302 44.781C26.1053 44.8529 26.3928 44.781 26.824 45.1404C26.8959 45.8592 26.4646 46.5061 26.1052 47.0811C24.8833 48.4468 23.7332 49.8125 22.4394 51.1064C21.5768 49.5969 20.6424 48.1593 19.7799 46.578C20.2111 45.4998 20.858 44.4935 21.4331 43.559ZM25.0271 58.6537L24.7395 58.1506C24.0926 56.4973 23.3738 54.7722 22.9426 53.0471L24.5239 51.7533C24.7395 51.897 24.6677 51.8251 24.7395 52.1127C25.1708 53.2627 25.5302 57.6474 25.0271 58.6537ZM17.911 73.6046L3.31946 73.6765H3.24758H2.38502C2.38502 71.017 2.38502 68.3574 2.38502 65.6979C2.38502 61.5289 2.02562 57.4318 4.46953 53.7659C6.62591 50.5313 9.71673 49.0938 13.4545 48.375C14.4608 49.525 15.7546 50.5313 16.8328 51.5376C16.0421 52.6877 15.1077 53.694 14.1733 54.7003C18.9173 60.7382 22.655 67.2792 26.824 73.6765L17.911 73.6046ZM17.2641 55.7785C17.0484 55.491 16.8328 55.2754 16.689 54.916C16.6172 53.7659 18.2704 52.1845 18.8454 51.1782C17.8391 49.9563 16.5453 48.95 15.3233 47.8718C16.2578 47.5843 17.2641 47.3686 18.2704 47.2249C18.7735 48.3749 19.4205 49.3812 20.0674 50.4594C22.9426 55.2754 24.452 60.9538 25.9615 66.2729C26.4646 67.9262 27.0397 69.6513 27.2553 71.4483C24.2364 66.0573 21.0737 60.7382 17.2641 55.7785ZM27.9741 66.5605C27.6147 66.1292 27.6147 65.4104 27.471 64.9072C27.1116 63.4697 26.824 62.0321 26.7522 60.5945C26.5365 57.2161 26.9678 53.4784 25.5302 50.3876C26.249 49.525 26.9678 48.8062 27.7585 48.1593C28.6929 48.5187 29.4836 49.4532 30.1305 50.1719C29.9867 51.0345 29.1961 51.6814 29.0523 52.544C28.9085 53.4065 29.1242 54.5566 29.1242 55.4191C29.1242 59.2288 29.268 62.9665 28.046 66.5605H27.9741ZM30.7055 64.1884C32.6463 58.4381 34.6589 52.9034 37.1747 47.3686C38.3966 47.6561 39.4748 47.9437 40.6968 48.3031C39.8342 48.95 38.6842 49.6688 38.2529 50.747C37.7497 52.0408 38.6123 53.3346 39.1873 54.4847C36.2403 58.9412 33.1494 63.3259 30.418 67.9261L28.5492 70.8732C28.9804 68.5731 29.9867 66.4167 30.7055 64.1884ZM52.8444 73.6765C46.9503 73.6765 40.9843 73.8921 35.0902 73.6765C32.9338 73.7484 30.7055 73.6765 28.5492 73.6765C29.9867 71.4482 31.4962 69.2919 32.8619 66.9917C33.9401 65.2666 34.8745 63.3978 36.0246 61.6727C37.2466 59.8038 39.4748 57.2161 40.3374 55.2754C40.7687 54.2691 39.8342 52.4721 39.403 51.5376C40.0499 50.5313 40.9843 49.6688 41.8469 48.8062C42.4938 48.5187 43.2126 48.7343 43.8595 49.0219C47.3816 50.3157 50.2568 52.5439 51.7662 56.066C53.4913 60.0913 52.8444 68.9325 52.8444 73.6765Z" fill="#ED6A02"/>
<path id="Vector_2" d="M40.9126 65.2668L41.2001 65.0512C41.2001 64.548 41.272 64.548 40.9844 64.1886C39.3312 63.6136 37.1748 64.0449 35.4497 63.973C35.1622 64.3324 35.0184 64.4043 34.9466 64.8355C35.8091 65.6262 39.6187 65.2668 40.9126 65.2668Z" fill="#ED6A02"/>
<path id="Vector_3" d="M41.7033 67.2075C41.2001 66.7044 40.1219 66.8481 39.475 66.8481C37.8937 66.8481 36.2404 66.92 34.6591 66.8481C34.5153 67.2075 34.3716 67.3513 34.4435 67.7826C35.5216 68.2857 40.1938 67.9263 41.5595 67.9263C41.7033 67.6388 41.7033 67.6388 41.7033 67.2075Z" fill="#ED6A02"/>
<path id="Vector_4" d="M45.2254 70.514L45.7285 70.5859C46.3755 69.5077 46.5192 63.9729 46.2317 62.6791C46.1598 62.3916 46.0879 62.3197 45.8723 62.176C45.6567 62.1041 45.2973 62.1041 45.0816 62.0322C44.5066 63.2542 44.3628 68.717 44.7941 70.0108C44.866 70.2983 44.9379 70.2984 45.2254 70.514Z" fill="#ED6A02"/>
<path id="Vector_5" d="M9.28567 63.2544C9.07004 63.2544 8.78252 63.2544 8.495 63.2544C8.20748 64.4045 7.99185 71.5924 8.63876 72.455C8.8544 72.7425 9.28568 72.7425 9.57319 72.7425H9.86071C10.2201 71.0893 10.2201 65.4827 10.0045 63.6857C9.78883 63.3263 9.71695 63.2544 9.28567 63.2544Z" fill="#ED6A02"/>
<path id="Vector_6" d="M29.6994 36.3714C30.2744 36.2276 30.7057 35.9401 31.2089 35.5807C31.4245 35.1494 31.4964 34.79 31.5683 34.3588L31.4245 34.0712C30.0588 33.7118 28.9806 35.1494 27.6868 35.0776C26.6805 35.0057 26.1054 33.8556 24.9553 33.7837C24.5241 34.2868 24.4522 34.3587 24.3803 35.0057C24.5241 35.5088 24.8116 35.7963 25.3147 36.0838C26.4648 36.6589 28.3337 36.8027 29.6994 36.3714Z" fill="#ED6A02"/>
</g>
</svg>
