<svg width="75" height="76" viewBox="0 0 75 76" fill="none" xmlns="http://www.w3.org/2000/svg">
<g id="XMLID_44962_">
<path id="XMLID_44969_" d="M65.3399 34.3534C65.4857 34.2076 65.5586 34.0618 65.6315 33.8432L74.1594 8.25936C74.3052 7.89492 74.451 7.60335 74.5238 7.2389V7.16603C74.8883 5.34382 74.3052 3.5216 73.0661 2.2825C71.7541 0.970509 69.859 0.387402 68.0368 0.824732C67.9639 0.824732 67.891 0.824714 67.891 0.897603C67.6723 0.970491 67.4537 1.04337 67.235 1.11626L42.3072 9.35269C41.0681 9.64424 40.0476 10.1544 39.2459 10.9562L21.1695 29.0326L6.44607 26.7001C6.37318 26.7001 6.22738 26.7001 6.1545 26.7001C4.55095 26.4815 3.0203 26.9917 1.85408 28.085C-0.113904 30.053 -0.113908 33.1872 1.78119 35.1552C1.78119 35.2281 1.85408 35.2281 1.85408 35.3009L8.41404 41.8609L6.59183 43.6831C4.11362 46.1613 4.11362 50.2431 6.59183 52.7213L8.70559 54.835L8.48693 55.2724C8.19538 55.8555 8.26826 56.5844 8.77848 57.0946L18.1082 66.4243C18.6184 66.9345 19.3473 67.0074 19.9304 66.7158L20.3677 66.4972L22.5544 68.6838C23.7935 69.9229 25.397 70.579 27.0735 70.579C28.7499 70.579 30.4264 69.9229 31.5926 68.6838L32.9775 67.2261L39.6103 73.8589C39.6832 73.9318 39.7561 73.9318 39.7561 74.0047C39.829 74.0776 39.829 74.1505 39.9019 74.2234C40.8494 75.1709 42.0885 75.6812 43.4734 75.6812C44.8583 75.6812 46.0974 75.1709 47.0449 74.2234C48.3569 72.9114 48.8671 70.9434 48.284 69.1941C48.284 69.1212 48.284 69.0483 48.284 68.9754L45.9516 54.2519L64.1737 36.0298C64.6839 35.4467 65.0483 34.9365 65.3399 34.3534ZM3.31185 33.8432C3.31185 33.7703 3.23898 33.7703 3.16609 33.6974C3.16609 33.6245 3.09319 33.6245 3.0203 33.5516C1.92698 32.3854 1.92698 30.5632 3.0932 29.397C3.82208 28.6681 4.8425 28.3765 5.79005 28.5952C5.93583 28.5952 6.08161 28.5952 6.22739 28.5952L19.1286 30.6361L9.65315 40.1116L3.31185 33.8432ZM46.1703 68.8296C46.0974 69.0483 46.1702 69.2669 46.2431 69.4127C46.6805 70.5061 46.4618 71.7452 45.5871 72.6198C45.004 73.2029 44.2752 73.4945 43.4734 73.4945C42.6716 73.4945 41.9427 73.2029 41.3596 72.6198C41.2867 72.5469 41.2867 72.5469 41.2867 72.474L41.1409 72.3283C41.0681 72.1825 40.9223 72.1096 40.7765 72.0367L34.5081 65.7683L44.1294 56.147L46.1703 68.8296ZM62.643 32.677C62.4244 33.1143 62.2786 33.4058 61.987 33.6974L29.333 66.3514C28.7499 66.9345 27.8753 67.299 27.0006 67.299C26.6361 67.299 26.3446 67.2261 26.053 67.1532C25.7615 67.0803 25.4699 66.9345 25.1784 66.7158C25.0326 66.5701 24.814 66.4243 24.6682 66.2785L21.6797 63.2901C21.3882 62.9986 20.9509 62.8528 20.5864 62.8528C20.3678 62.8528 20.0762 62.9257 19.8575 62.9986L19.4202 63.2172L11.694 55.4911L11.9127 55.0537C12.2043 54.4706 12.1313 53.7417 11.6211 53.2315L8.70559 50.3159C7.3936 49.004 7.3936 46.9631 8.70559 45.6511L41.3596 12.9971C41.7241 12.6327 42.2343 12.3411 42.9632 12.1953C43.036 12.1953 43.036 12.1953 43.1089 12.1224L68.1097 3.88605C68.1825 3.88605 68.1826 3.88603 68.2554 3.81314C68.3283 3.74025 68.4741 3.74027 68.547 3.74027H68.6199C69.4217 3.5216 70.2234 3.74026 70.8065 4.32337C71.3168 4.83359 71.6083 5.63535 71.4625 6.36423C71.4625 6.36423 71.4625 6.36426 71.4625 6.43715C71.4625 6.58293 71.3897 6.80156 71.3168 6.94733C71.3168 7.02022 71.2439 7.02023 71.2439 7.09312L62.7888 32.3854C62.7159 32.5312 62.643 32.6041 62.643 32.677Z" fill="#ED6A02"/>
<path id="XMLID_44966_" d="M33.196 38.508C32.1027 37.4147 30.7178 36.8315 29.1872 36.8315C27.6565 36.8315 26.1987 37.4147 25.1783 38.508L18.181 45.5053C15.9215 47.6919 15.9943 51.3363 18.181 53.5959L21.461 56.8759C22.5543 57.9692 23.9392 58.5523 25.4698 58.5523C27.0005 58.5523 28.4583 57.9692 29.4787 56.8759L36.476 49.8786C37.5693 48.7853 38.1524 47.4004 38.1524 45.8697C38.1524 44.3391 37.5693 42.8813 36.476 41.8609L33.196 38.508ZM34.2893 47.6919L27.2921 54.6892C26.7818 55.1994 26.1987 55.4181 25.4698 55.4181C24.8138 55.4181 24.1579 55.1265 23.6476 54.6892L20.3677 51.4092C19.3472 50.3888 19.3472 48.7852 20.3677 47.7648L27.3649 40.7675C27.8752 40.2573 28.4583 40.0387 29.1872 40.0387C29.8432 40.0387 30.4991 40.3302 31.0094 40.7675L34.2893 44.0475C34.7996 44.5577 35.0182 45.2137 35.0182 45.8697C35.0182 46.5257 34.7996 47.1817 34.2893 47.6919Z" fill="#ED6A02"/>
<path id="XMLID_44963_" d="M50.3977 20.9418C49.0857 20.2858 47.628 19.9214 46.1702 19.9214C43.7649 19.9214 41.5053 20.8689 39.8289 22.5454C38.1525 24.2218 37.2049 26.4813 37.2049 28.8867C37.2049 31.292 38.1525 33.5515 39.8289 35.228C41.5053 36.9044 43.7649 37.8519 46.1702 37.8519C48.5755 37.8519 50.835 36.9044 52.5115 35.228C54.1879 33.5515 55.1355 31.292 55.1355 28.8867C55.1355 26.4813 54.1879 24.2218 52.5115 22.5454C51.9284 21.8165 51.1995 21.3062 50.3977 20.9418ZM50.3248 32.9684C49.2315 34.0617 47.7737 34.7177 46.1702 34.7177C44.6395 34.7177 43.1089 34.1346 42.0156 32.9684C40.9222 31.8751 40.2662 30.4173 40.2662 28.8137C40.2662 27.2102 40.8493 25.7525 42.0156 24.6591C43.1089 23.5658 44.5667 22.9098 46.1702 22.9098C47.7737 22.9098 49.2315 23.4929 50.3248 24.6591C51.4182 25.7525 52.0741 27.2102 52.0741 28.8137C52.0741 30.4173 51.4182 31.8751 50.3248 32.9684Z" fill="#ED6A02"/>
</g>
</svg>
