<svg width="57" height="56" viewBox="0 0 57 56" fill="none" xmlns="http://www.w3.org/2000/svg">
<g id="Group">
<path id="Vector" d="M0.166885 43.1977C0.500648 43.5974 0.767658 44.0637 1.1348 44.43C4.50578 47.8272 7.91014 51.2243 11.3145 54.6215C12.3825 55.6873 13.2503 55.6873 14.3184 54.6215C15.4198 53.5224 16.5212 52.4233 17.6226 51.3243C18.6239 50.3251 18.6906 49.659 17.923 48.5266C18.6239 47.6607 19.525 47.1611 20.6264 47.0611C21.6611 46.9945 22.5956 46.5616 23.3299 45.8622C24.2644 44.9629 25.199 44.0303 26.1001 43.1311C26.534 42.6981 26.534 42.2319 26.1669 41.8655C25.8331 41.5324 25.3325 41.5657 24.8986 41.9987C24.0642 42.8313 23.2298 43.6307 22.3954 44.4633C21.828 45.0295 21.1604 45.3626 20.3594 45.4292C18.8241 45.5957 18.3902 45.8289 16.7214 47.261C13.9178 44.4633 11.1142 41.699 8.27728 38.868C9.14506 38.0687 9.74583 37.0362 9.87933 35.8372C9.97946 34.9712 9.94609 34.1053 9.91271 33.2727C9.87933 32.107 10.2465 31.1744 11.1142 30.3751C12.2824 29.2427 13.4172 28.077 14.5854 26.9113C15.5199 25.9787 16.8883 25.8122 17.9563 26.5116C17.2221 27.211 16.5212 27.8439 15.8203 28.5433C15.5199 28.843 15.4865 29.2427 15.7201 29.6091C15.9538 29.9754 16.3209 30.042 16.6881 29.9088C16.8549 29.8422 17.0218 29.6757 17.1553 29.5424C17.8896 28.8097 18.6239 28.077 19.4916 27.2111C19.4916 27.5108 19.4916 27.6773 19.4916 27.8438C19.4916 29.4092 19.5584 31.0079 19.4916 32.5732C19.3915 34.9712 21.4275 36.3035 23.2965 35.6374C23.3299 35.6374 23.3633 35.6374 23.4634 35.6374C23.4634 36.1369 23.4634 36.6365 23.4634 37.1694C23.4634 39.5674 25.1322 40.7997 27.4685 40.1003C27.7689 41.1328 28.4364 41.8655 29.5045 42.2318C29.638 42.2652 29.7715 42.4317 29.8716 42.5649C30.9063 43.5974 31.9409 44.5965 32.9422 45.629C33.81 46.495 34.8447 47.0278 36.0796 47.1278C37.181 47.1944 38.0154 47.7606 38.6829 48.5932C37.9486 49.6923 37.982 50.3917 38.9165 51.3243C40.0847 52.4899 41.2529 53.6556 42.421 54.8213C43.3222 55.7206 44.2901 55.7206 45.1579 54.8547C47.4608 52.5566 49.7638 50.2585 52.0667 47.9271C52.1668 47.8272 52.267 47.7273 52.3671 47.5941C52.5674 47.2277 52.5674 46.8946 52.267 46.5949C51.9666 46.2951 51.6328 46.2618 51.2657 46.4617C51.0988 46.5616 50.9653 46.7281 50.7984 46.8613C48.4621 49.1594 46.1592 51.4908 43.8562 53.7889C42.5545 52.4567 41.2529 51.1577 39.9512 49.8588C43.5224 46.2951 47.1938 42.6648 50.8318 39.0345C52.0667 40.2668 53.3684 41.5657 54.7034 42.898C54.5032 43.0978 54.2695 43.3309 54.0359 43.5641C53.1014 44.4966 52.9345 44.9296 53.3684 45.3626C53.8357 45.8289 54.2362 45.6956 55.2041 44.6965C55.4377 44.4633 55.638 44.2635 55.8716 44.0304C56.5391 43.2976 56.5725 42.2985 55.8716 41.5991C54.5699 40.2668 53.2683 38.9679 51.9332 37.669C51.2323 36.9696 50.3645 37.0362 49.3966 37.7356C48.6624 37.1361 48.2285 36.3368 48.1951 35.4042C48.1617 34.5716 48.1951 33.7723 48.1951 32.9396C48.1951 31.6074 47.7278 30.4417 46.7599 29.4758C45.525 28.2435 44.3235 27.0445 43.1219 25.8122C42.3209 25.0129 41.353 24.5799 40.285 24.4467C40.9525 21.8156 40.5853 19.1844 40.5853 16.5866C40.5853 15.4875 40.0179 14.5549 39.2169 13.7889C38.6495 13.2227 38.0821 12.6898 37.5481 12.1236C36.8472 11.3909 36.5468 10.525 36.647 9.52579C38.1489 9.12613 38.4826 8.69317 38.4826 7.12781C38.4826 5.56245 38.4826 4.0304 38.4826 2.46504C38.4826 1.19942 37.7817 0.5 36.4801 0.5C31.4737 0.5 26.5006 0.5 21.4942 0.5C20.2259 0.5 19.525 1.19941 19.525 2.43172C19.525 4.1303 19.525 5.82888 19.525 7.52746C19.525 8.59324 19.9589 9.12613 20.9936 9.42588C21.1271 9.45919 21.294 9.65903 21.3273 9.79226C21.3941 10.7248 21.1604 11.5574 20.5597 12.2902C19.7253 13.256 19.3581 14.3884 19.3581 15.6873C19.3581 18.5849 19.3581 21.4825 19.3581 24.3801C19.3581 24.6798 19.1913 24.9463 19.0911 25.3126C17.9563 24.6132 16.8883 24.3135 15.7201 24.5466C14.7522 24.7131 13.9512 25.1461 13.2837 25.8122C12.0488 27.0445 10.8139 28.2768 9.57895 29.5091C8.71117 30.3418 8.27728 31.3742 8.14378 32.5732C7.30937 32.6065 6.90886 32.873 6.94223 33.4059C6.94223 33.9388 7.37613 34.2385 8.1104 34.2052C8.27728 35.5707 8.1104 36.803 6.94223 37.8022C6.74198 37.669 6.50835 37.5025 6.30809 37.4025C5.64057 37.1028 4.90629 37.236 4.3389 37.8022C3.07061 39.0678 1.80231 40.3334 0.534023 41.5991C0.300392 41.8322 0.166885 42.1319 3.8147e-06 42.3984C0.166885 42.5982 0.166885 42.898 0.166885 43.1977ZM37.1476 25.0462C37.1476 24.7797 37.1142 24.6132 37.1142 24.4134C37.1142 23.6474 37.1476 22.8813 37.1142 22.1153C37.0809 21.6157 36.7137 21.2827 36.2464 21.316C35.8126 21.3493 35.5122 21.649 35.4788 22.1486C35.4788 22.3151 35.4788 22.4817 35.4788 22.6482C35.4788 27.4442 35.4788 32.2402 35.4788 37.0362C35.4788 37.2693 35.4788 37.5025 35.412 37.7356C35.2785 38.3018 34.7779 38.6349 34.1771 38.6016C33.6097 38.5349 33.2092 38.1353 33.1425 37.5691C33.1091 37.3359 33.1425 37.1361 33.1425 36.903C33.1425 32.6065 33.1425 28.3101 33.1425 24.0137C33.1425 23.3143 32.8421 22.9479 32.3081 22.9146C31.774 22.9146 31.507 23.281 31.4737 23.9804C31.4737 24.1136 31.4737 24.2802 31.4737 24.4134C31.4737 29.276 31.4737 34.1053 31.4737 38.9679C31.4737 39.2344 31.4737 39.4675 31.4069 39.7339C31.2734 40.2668 30.8395 40.5999 30.2721 40.5666C29.7381 40.5666 29.3042 40.2002 29.1707 39.6673C29.1373 39.4342 29.1373 39.201 29.1373 38.9679C29.1373 35.3709 29.1707 31.8072 29.1707 28.2102C29.1707 26.7781 29.1707 25.3126 29.1707 23.8805C29.1707 23.281 28.8036 22.9479 28.3029 22.9479C27.8357 22.9479 27.5353 23.3143 27.5019 23.8805C27.4685 24.3801 27.5019 24.8797 27.5019 25.3792C27.5019 29.3759 27.5019 33.4059 27.5019 37.4025C27.5019 38.1353 27.068 38.6348 26.4005 38.6348C25.733 38.6682 25.2657 38.2019 25.199 37.4692C25.199 37.3026 25.199 37.1028 25.199 36.9363C25.199 32.7065 25.199 28.4767 25.199 24.2469C25.199 24.0137 25.199 23.8139 25.1656 23.5807C25.0988 23.1811 24.7984 22.9812 24.4313 22.9812C24.0308 22.9479 23.7304 23.1478 23.6303 23.5141C23.5635 23.7473 23.5635 23.9804 23.5635 24.2136C23.5635 26.9779 23.5635 29.7423 23.5635 32.5066C23.5635 32.7398 23.5635 32.9396 23.5302 33.1727C23.4634 33.7056 23.0629 34.072 22.5289 34.1053C21.9949 34.1719 21.4608 33.8722 21.3273 33.3726C21.2606 33.1061 21.2272 32.8064 21.2272 32.5066C21.2272 26.9446 21.2272 21.4159 21.2272 15.8538C21.2272 14.8547 21.4942 13.9888 22.1284 13.2227C22.8293 12.3901 23.1964 11.3909 23.1964 10.2918C23.1964 10.0254 23.1964 9.75894 23.1964 9.42588C23.4968 9.42588 23.697 9.42588 23.8973 9.42588C25.6662 9.42588 27.4685 9.42588 29.2375 9.42588C29.4711 9.42588 29.7381 9.45918 29.8716 9.35927C30.1052 9.15943 30.3723 8.8597 30.4056 8.55995C30.4724 8.16028 30.172 7.89384 29.7715 7.79392C29.5712 7.76062 29.371 7.76061 29.1707 7.76061C26.801 7.76061 24.4313 7.76061 22.0616 7.76061C21.8613 7.76061 21.6277 7.72731 21.4608 7.72731C21.4608 5.82889 21.4608 3.99709 21.4608 2.13198C26.6675 2.13198 31.8074 2.13198 37.0141 2.13198C37.0141 3.99709 37.0141 5.8622 37.0141 7.72731C36.7805 7.72731 36.5802 7.76061 36.4133 7.76061C35.5122 7.76061 34.611 7.76061 33.7099 7.76061C33.0757 7.76061 32.6752 8.09366 32.6752 8.59324C32.6752 9.09283 33.0757 9.39258 33.7099 9.42588C34.1771 9.42588 34.6444 9.42588 35.0449 9.42588C35.1117 9.5258 35.145 9.52581 35.145 9.55911C35.145 9.62572 35.1784 9.69234 35.1784 9.79226C35.1784 11.291 35.7792 12.5233 36.8472 13.5558C37.3479 14.0221 37.8151 14.5216 38.2824 14.9879C38.8164 15.5208 39.1502 16.1869 39.1502 16.9529C39.1502 18.8514 39.1835 20.7498 39.1502 22.6482C39.1168 23.714 38.3158 24.6798 37.1476 25.0462ZM38.7163 26.445C39.7843 25.7789 41.086 25.9454 42.0205 26.878C43.1887 28.0104 44.3235 29.2094 45.4916 30.3085C46.326 31.1078 46.7265 32.0404 46.6932 33.2061C46.6598 33.5724 46.7265 33.9388 46.6932 34.3051C46.593 36.0703 47.0269 37.6357 48.362 38.8347C45.525 41.6656 42.7214 44.43 39.8844 47.261C38.8498 46.0287 37.4814 45.4625 35.8459 45.296C35.412 45.2627 34.9448 45.0295 34.611 44.7298C33.6431 43.7972 32.7086 42.798 31.8408 41.8988C32.2747 41.2993 32.742 40.6665 33.2092 40.0337C33.3761 40.067 33.6431 40.1669 33.9101 40.2002C35.7124 40.4 37.1142 39.1344 37.1142 37.2693C37.1142 34.1053 37.1142 30.9746 37.1142 27.8105C37.1142 27.644 37.1142 27.4442 37.1142 27.1111C37.982 27.9771 38.7163 28.7431 39.4506 29.4758C39.9178 29.9421 40.4185 30.0087 40.7856 29.6424C41.1527 29.276 41.1194 28.8097 40.6187 28.3101C40.0179 27.7106 39.3838 27.0778 38.7163 26.445ZM16.6881 49.7589C15.3864 51.0578 14.0847 52.3567 12.8498 53.5891C9.21181 49.9921 5.54044 46.3617 1.9692 42.798C3.23749 41.5324 4.57253 40.2002 5.80745 38.9679C9.41207 42.5316 13.0501 46.1619 16.6881 49.7589Z" fill="#ED6B02"/>
<path id="Vector_2" d="M43.6551 50.8911C44.1557 50.8911 44.5229 50.4914 44.5229 50.0251C44.5229 49.5589 44.1224 49.1592 43.6551 49.1592C43.1878 49.1592 42.7873 49.5589 42.7873 50.0251C42.754 50.4914 43.1545 50.8911 43.6551 50.8911Z" fill="#ED6B02"/>
<path id="Vector_3" d="M10.5136 16.8532C10.5136 17.2862 10.8808 17.6525 11.3147 17.6858C11.7819 17.6858 12.1491 17.3195 12.1491 16.8532C12.1491 16.4202 11.8153 16.0539 11.348 16.0539C10.9142 16.0206 10.5136 16.3869 10.5136 16.8532Z" fill="#ED6B02"/>
<path id="Vector_4" d="M47.9289 19.1842C47.9289 19.6505 48.2627 20.0168 48.7299 20.0168C49.1638 20.0168 49.531 19.6505 49.5643 19.2175C49.5643 18.7845 49.1638 18.3516 48.7299 18.3516C48.296 18.3849 47.9289 18.7512 47.9289 19.1842Z" fill="#ED6B02"/>
<path id="Vector_5" d="M30.2386 50.0255C29.7713 50.0255 29.4042 50.4252 29.4376 50.8915C29.4709 51.3245 29.8381 51.6575 30.272 51.6575C30.7392 51.6575 31.1064 51.2578 31.073 50.7916C31.0396 50.3586 30.6725 49.9922 30.2386 50.0255Z" fill="#ED6B02"/>
<path id="Vector_6" d="M43.1884 11.624C43.155 11.1577 42.7211 10.8247 42.2873 10.8913C41.82 10.9246 41.4862 11.3576 41.553 11.7906C41.6197 12.2235 42.0202 12.5566 42.4208 12.5233C42.888 12.49 43.2218 12.057 43.1884 11.624Z" fill="#ED6B02"/>
<path id="Vector_7" d="M49.9966 21.4494C49.5627 21.4494 49.1956 21.8157 49.1956 22.282C49.1956 22.7483 49.5961 23.1146 50.03 23.1146C50.4972 23.1146 50.831 22.715 50.831 22.2487C50.7976 21.7824 50.4305 21.4161 49.9966 21.4494Z" fill="#ED6B02"/>
<path id="Vector_8" d="M9.61227 20.6497C10.0795 20.6497 10.4467 20.25 10.4133 19.7837C10.4133 19.3507 10.0462 18.9844 9.57889 18.9844C9.11163 18.9844 8.74449 19.384 8.77787 19.8503C8.81124 20.3166 9.17838 20.683 9.61227 20.6497Z" fill="#ED6B02"/>
<path id="Vector_9" d="M46.1921 16.3869C46.1921 16.8532 46.5926 17.2195 47.0599 17.2195C47.4938 17.1862 47.8609 16.8199 47.8609 16.3869C47.8609 15.9206 47.4604 15.5542 46.9931 15.5876C46.5259 15.5876 46.1587 15.9539 46.1921 16.3869Z" fill="#ED6B02"/>
<path id="Vector_10" d="M26.1331 50.7579C26.1331 51.2242 26.5337 51.5572 27.0009 51.5572C27.4348 51.5239 27.802 51.1576 27.7686 50.7246C27.7686 50.2916 27.4014 49.9253 26.9676 49.9253C26.5337 49.892 26.1331 50.2916 26.1331 50.7579Z" fill="#ED6B02"/>
<path id="Vector_11" d="M15.2529 11.8902C15.2529 12.3232 15.6201 12.6896 16.0873 12.6896C16.5546 12.6896 16.9217 12.3232 16.9217 11.8569C16.9217 11.424 16.5546 11.0576 16.1207 11.0576C15.6201 11.0243 15.2196 11.424 15.2529 11.8902Z" fill="#ED6B02"/>
<path id="Vector_12" d="M6.87601 26.4781C6.87601 26.9444 7.27652 27.2775 7.74379 27.2775C8.21105 27.2442 8.54481 26.8445 8.51143 26.4115C8.47806 25.9785 8.11092 25.6455 7.67703 25.6455C7.24314 25.6122 6.87601 26.0119 6.87601 26.4781Z" fill="#ED6B02"/>
<path id="Vector_13" d="M50.1313 32.0735C50.1313 32.5397 50.4651 32.8728 50.9323 32.8728C51.3996 32.8728 51.7667 32.5064 51.7667 32.0402C51.7667 31.6072 51.3996 31.2408 50.9657 31.2075C50.4984 31.2075 50.0979 31.6072 50.1313 32.0735Z" fill="#ED6B02"/>
<path id="Vector_14" d="M50.1982 34.4717C49.7643 34.4717 49.3972 34.838 49.3972 35.271C49.3972 35.7373 49.7977 36.1037 50.2316 36.1037C50.6988 36.1037 51.0326 35.704 51.0326 35.2377C51.0326 34.8047 50.6655 34.4717 50.1982 34.4717Z" fill="#ED6B02"/>
<path id="Vector_15" d="M7.57714 23.0812C7.57714 23.5475 7.97765 23.8805 8.44492 23.8805C8.91218 23.8472 9.21257 23.5142 9.21257 23.0479C9.21257 22.6149 8.84544 22.2485 8.41155 22.2485C7.94428 22.2485 7.54377 22.6482 7.57714 23.0812Z" fill="#ED6B02"/>
<path id="Vector_16" d="M20.6599 49.8923C21.0938 49.8923 21.4609 49.526 21.4609 49.0597C21.4609 48.5934 21.0938 48.2271 20.6265 48.2271C20.1926 48.2271 19.8255 48.6267 19.8255 49.0597C19.7921 49.4927 20.1926 49.8923 20.6599 49.8923Z" fill="#ED6B02"/>
<path id="Vector_17" d="M12.6837 14.2221C12.7171 14.655 13.0842 14.9881 13.5181 14.9881C13.9854 14.9881 14.3525 14.5551 14.3191 14.1222C14.2857 13.6892 13.8852 13.3228 13.4513 13.3561C13.0174 13.3561 12.6837 13.7558 12.6837 14.2221Z" fill="#ED6B02"/>
<path id="Vector_18" d="M22.9295 50.1588C22.9295 50.6251 23.3301 50.9915 23.7973 50.9582C24.2312 50.9248 24.5983 50.5585 24.565 50.1255C24.565 49.6592 24.1645 49.3262 23.6972 49.3262C23.2299 49.3595 22.8962 49.6925 22.9295 50.1588Z" fill="#ED6B02"/>
<path id="Vector_19" d="M50.7979 24.6465C50.3307 24.6465 49.9969 25.0461 49.9969 25.5124C50.0303 25.9787 50.364 26.2785 50.8313 26.2785C51.2652 26.2785 51.6323 25.9121 51.6323 25.4791C51.6323 25.0128 51.2318 24.6132 50.7979 24.6465Z" fill="#ED6B02"/>
<path id="Vector_20" d="M50.2976 28.7765C50.2976 29.2428 50.6981 29.6091 51.1654 29.5758C51.5993 29.5425 51.933 29.2094 51.933 28.7432C51.933 28.3102 51.5659 27.9438 51.132 27.9438C50.6647 27.9105 50.2976 28.3102 50.2976 28.7765Z" fill="#ED6B02"/>
<path id="Vector_21" d="M36.6811 48.7598C36.2138 48.7598 35.8467 49.1594 35.8801 49.5924C35.9134 50.0254 36.2806 50.3917 36.7145 50.3917C37.1817 50.3917 37.5489 49.9921 37.5155 49.5258C37.4821 49.0928 37.1484 48.7598 36.6811 48.7598Z" fill="#ED6B02"/>
<path id="Vector_22" d="M32.7088 50.4918C32.7088 50.9248 33.0759 51.2912 33.5098 51.2912C33.9771 51.2912 34.3442 50.8915 34.3442 50.4585C34.3442 50.0255 33.9771 49.6592 33.5432 49.6592C33.0426 49.6592 32.7088 49.9922 32.7088 50.4918Z" fill="#ED6B02"/>
<path id="Vector_23" d="M18.9583 10.7916C19.4256 10.7916 19.7927 10.4586 19.7927 9.99231C19.7927 9.55933 19.4256 9.19297 18.9917 9.15967C18.5578 9.15967 18.1573 9.52603 18.1573 9.99231C18.1573 10.4253 18.4911 10.7916 18.9583 10.7916Z" fill="#ED6B02"/>
<path id="Vector_24" d="M44.8911 13.0562C44.4238 13.0562 44.0901 13.3559 44.0567 13.8222C44.0233 14.2885 44.3904 14.6881 44.8577 14.6881C45.325 14.6881 45.6921 14.3218 45.6921 13.8555C45.6921 13.4225 45.325 13.0562 44.8911 13.0562Z" fill="#ED6B02"/>
<path id="Vector_25" d="M7.57663 30.7082C8.01052 30.7082 8.37766 30.3418 8.37766 29.9088C8.37766 29.4425 7.97714 29.0762 7.54325 29.0762C7.07599 29.0762 6.74223 29.4759 6.74223 29.9421C6.7756 30.3751 7.10937 30.7082 7.57663 30.7082Z" fill="#ED6B02"/>
<path id="Vector_26" d="M39.5508 10.7248C40.0181 10.7248 40.3852 10.3584 40.3852 9.89211C40.3852 9.45914 40.0515 9.09277 39.5842 9.09277C39.1169 9.09277 38.7832 9.42582 38.7498 9.8588C38.7498 10.3251 39.0836 10.7248 39.5508 10.7248Z" fill="#ED6B02"/>
<path id="Vector_27" d="M33.4102 4.89623C33.4102 5.36251 33.8107 5.79548 34.278 5.79548C34.7453 5.79548 35.1458 5.42911 35.1792 4.92953C35.1792 4.42994 34.812 4.06358 34.3448 4.03027C33.8441 4.06358 33.4436 4.42995 33.4102 4.89623Z" fill="#ED6B02"/>
<path id="Vector_28" d="M4.63963 42.4983C4.63963 42.9978 5.00676 43.3642 5.5074 43.3642C5.97467 43.3642 6.37518 42.9645 6.37518 42.4983C6.37518 42.032 6.00804 41.6323 5.5074 41.6323C5.00676 41.6323 4.63963 41.9987 4.63963 42.4983Z" fill="#ED6B02"/>
</g>
</svg>
