<svg width="83" height="76" viewBox="0 0 83 76" fill="none" xmlns="http://www.w3.org/2000/svg">
<g id="Group 1238">
<path id="Vector" d="M82.6951 47.0455C81.6063 49.6223 80.6627 50.2393 77.7774 50.2393C69.3574 50.2393 60.9375 50.2393 52.4993 50.2212C51.9186 50.2212 51.5013 50.3845 51.0839 50.7837C49.3418 52.4895 47.5635 54.159 45.8032 55.8647C43.6257 57.9697 41.0489 59.0041 38.0365 58.9496C36.4578 58.9315 34.879 58.9496 33.2821 58.9496C32.2478 58.9496 32.2115 58.9859 32.2115 60.0566C32.2115 63.7403 32.2115 67.4059 32.2115 71.0897C32.2115 74.1383 30.6872 75.6626 27.6749 75.6626C20.0352 75.6626 12.3773 75.6626 4.73766 75.6626C1.54387 75.6626 -0.125611 73.7391 0.400638 70.5816C1.23538 65.555 2.03383 60.5284 2.99559 55.5381C3.9755 50.4389 8.76619 46.4648 13.9561 46.4285C21.4143 46.356 28.8725 46.3923 36.3308 46.4104C37.1836 46.4104 37.8006 46.1563 38.3995 45.5575C39.5608 44.378 40.8311 43.2892 41.9743 42.0915C43.5349 40.4765 45.3314 39.424 47.7086 39.6417C48.5252 37.0831 49.3418 34.5607 50.1403 32.0383C50.975 29.4071 51.8097 26.7759 52.6808 24.1628C52.826 23.7454 53.1707 23.2554 53.5337 23.1103C53.8966 22.9651 54.4954 23.1284 54.8402 23.3462C55.3302 23.6547 55.3483 24.2172 55.1669 24.7979C54.314 27.4473 53.4611 30.0967 52.6263 32.7642C51.8823 35.087 51.1565 37.4097 50.3943 39.7325C50.2673 40.1136 50.1766 40.3676 50.6121 40.6761C52.9167 42.3274 53.7696 44.5776 53.2252 47.354C53.207 47.4085 53.2433 47.4629 53.2433 47.5718C56.673 47.5718 60.1209 47.5718 63.6594 47.5718C63.6594 46.2834 63.6594 45.0131 63.6594 43.7247C63.6594 41.1298 64.7845 40.0047 67.3795 40.0047C71.2447 40.0047 75.1099 40.0047 78.9751 40.0047C79.3017 40.0047 79.6102 40.0047 80.0457 40.0047C80.0457 39.6599 80.0457 39.3695 80.0457 39.0792C80.0457 27.7921 80.0457 16.4868 80.0457 5.19964C80.0457 3.72977 79.6465 3.33054 78.1948 3.33054C60.3568 3.33054 42.5187 3.33054 24.6807 3.33054C23.2471 3.33054 22.8479 3.71162 22.8479 5.12705C22.8479 8.39343 22.8479 11.6779 22.8479 14.9443C22.8479 15.271 22.8479 15.5976 22.7935 15.9061C22.6664 16.5412 22.2672 16.886 21.6139 16.9223C20.9425 16.9586 20.4888 16.6319 20.3074 15.9787C20.2348 15.7246 20.2348 15.4524 20.2348 15.1802C20.2348 11.805 20.2166 8.41157 20.2348 5.03632C20.2348 2.29619 21.8498 0.699299 24.6081 0.699299C42.3191 0.699299 60.0301 0.717445 77.723 0.681152C80.1546 0.681152 81.8785 1.4796 82.6407 3.87494C82.6951 18.2833 82.6951 32.6735 82.6951 47.0455ZM22.9023 73.0676C24.5718 73.0676 26.1506 73.0676 27.7112 73.0676C29.2536 73.0676 29.6165 72.7047 29.6165 71.1623C29.6165 67.3333 29.5984 63.4863 29.6165 59.6574C29.6347 57.625 30.8687 56.391 32.8829 56.391C34.5705 56.3728 36.2582 56.3547 37.9458 56.391C40.323 56.4273 42.3554 55.647 44.043 53.9775C45.8395 52.2173 47.6905 50.4934 49.487 48.7332C51.1383 47.1363 51.2472 44.8861 49.7955 43.3618C48.3256 41.8012 46.021 41.8375 44.3515 43.4344C42.918 44.8135 41.4662 46.1563 40.0689 47.5718C39.089 48.5517 37.9458 49.0053 36.5304 49.0053C29.1992 48.9872 21.8861 48.9691 14.5549 49.0053C10.0002 49.0235 6.22567 52.054 5.42723 56.4454C4.5199 61.4176 3.72145 66.426 2.86857 71.4163C2.72339 72.3055 3.1952 73.0132 4.08438 73.0313C5.88089 73.0858 7.67739 73.0495 9.51019 73.0495C9.58278 72.6503 9.65537 72.2873 9.70981 71.9244C10.3268 68.2588 10.9438 64.5751 11.5789 60.9095C11.7422 59.9659 12.3411 59.5122 13.1032 59.6392C13.8835 59.7662 14.2646 60.4558 14.1194 61.4357C13.9198 62.6334 13.7202 63.8492 13.5206 65.1376C15.4804 65.1376 17.3313 65.1376 19.1641 65.1376C21.7047 65.1376 22.8297 66.2627 22.8297 68.8214C22.9023 70.1823 22.9023 71.5796 22.9023 73.0676ZM80.082 42.6359C79.084 42.6359 78.1585 42.6359 77.233 42.6359C73.9122 42.6359 70.5733 42.6359 67.2524 42.6359C66.8532 42.6359 66.3633 42.5633 66.3451 43.1622C66.3088 44.632 66.327 46.0838 66.327 47.481C66.454 47.5718 66.4721 47.6081 66.4903 47.6081C70.5914 47.6262 74.6925 47.6444 78.7936 47.6262C79.4832 47.6262 80.0095 47.1907 80.0457 46.5011C80.1365 45.249 80.082 43.9969 80.082 42.6359ZM20.2711 73.0132C20.2711 71.3982 20.2892 69.8194 20.2348 68.2407C20.2348 68.0592 19.8356 67.7326 19.6178 67.7326C17.6035 67.6963 15.6074 67.6963 13.5932 67.7326C13.4117 67.7326 13.0851 67.9685 13.0669 68.1499C12.7584 69.7468 12.5225 71.3437 12.2322 73.0313C14.9179 73.0132 17.5128 73.0132 20.2711 73.0132Z" fill="#ED6A02"/>
<path id="Vector_2" d="M20.9969 18.4831C27.6023 18.4468 32.9736 23.7819 32.9918 30.4054C33.0099 37.0288 27.693 42.3821 21.0695 42.4002C14.4279 42.4184 9.11094 37.1196 9.07465 30.4779C9.03835 23.8726 14.3553 18.5194 20.9969 18.4831ZM21.0876 21.0962C15.8977 21.078 11.7059 25.2336 11.6877 30.4054C11.6696 35.5953 15.8252 39.8053 20.9969 39.8234C26.1687 39.8416 30.3968 35.6679 30.3968 30.5142C30.3968 25.3062 26.2594 21.1325 21.0876 21.0962Z" fill="#ED6A02"/>
<path id="Vector_3" d="M50.8661 65.1016C50.8661 62.2163 50.8661 59.3128 50.8661 56.4275C50.8661 56.1009 50.8661 55.7743 50.9569 55.4839C51.1383 54.8669 51.592 54.5766 52.2453 54.6129C52.8441 54.6492 53.2615 54.9577 53.4067 55.5384C53.4792 55.8468 53.4792 56.1735 53.4792 56.5001C53.4792 62.2344 53.4792 67.9687 53.4792 73.703C53.4792 75.0459 53.0256 75.6991 52.1364 75.681C51.2654 75.6629 50.848 75.0277 50.848 73.7212C50.8661 70.8359 50.8661 67.9687 50.8661 65.1016Z" fill="#ED6A02"/>
<path id="Vector_4" d="M39.706 12.1134C36.7663 12.1134 33.8084 12.1134 30.8687 12.1134C29.8343 12.1134 29.2355 11.4783 29.3988 10.571C29.5077 9.89955 30.0158 9.53662 30.8868 9.53662C33.8265 9.53662 36.7844 9.53662 39.7242 9.53662C42.6095 9.53662 45.5129 9.53662 48.3982 9.53662C49.4326 9.53662 50.0314 10.1717 49.8681 11.0609C49.7411 11.7323 49.2329 12.1134 48.3801 12.1134C45.4948 12.1316 42.6095 12.1134 39.706 12.1134Z" fill="#ED6A02"/>
<path id="Vector_5" d="M66.1274 32.147C68.1598 32.147 70.2103 32.147 72.2428 32.147C72.5149 32.147 72.7871 32.147 73.0412 32.2014C73.7126 32.3103 74.0937 32.7821 74.0937 33.4354C74.1118 34.0887 73.7489 34.5605 73.0956 34.7056C72.8053 34.7782 72.5149 34.7782 72.2246 34.7782C68.1416 34.7782 64.0768 34.7782 59.9938 34.7782C59.8305 34.7782 59.6672 34.7782 59.5039 34.7782C58.6329 34.7238 58.0703 34.1794 58.0703 33.4535C58.0703 32.7277 58.651 32.1833 59.522 32.1651C61.7359 32.147 63.9316 32.147 66.1274 32.147Z" fill="#ED6A02"/>
<path id="Vector_6" d="M68.0872 22.965C69.8293 22.965 71.5713 22.965 73.3134 22.965C74.003 22.965 74.6018 23.219 74.7107 23.9268C74.7651 24.3623 74.5474 24.9067 74.2752 25.2696C74.0937 25.5055 73.6038 25.5781 73.2408 25.5962C69.7748 25.6144 66.327 25.6144 62.861 25.5962C61.8811 25.5962 61.2641 25.0337 61.3004 24.2534C61.3186 23.4912 61.9174 22.9831 62.861 22.9831C64.6031 22.9468 66.3451 22.965 68.0872 22.965Z" fill="#ED6A02"/>
<path id="Vector_7" d="M42.8454 22.9651C44.1338 22.9651 45.4222 22.9469 46.7106 22.9651C47.7268 22.9832 48.3075 23.4551 48.3075 24.2716C48.3075 25.0882 47.7449 25.5782 46.7287 25.5963C44.0975 25.6145 41.4662 25.6145 38.8531 25.5963C37.8188 25.5963 37.2744 25.1064 37.2563 24.2898C37.2563 23.4732 37.8188 22.9832 38.835 22.9832C40.1778 22.9469 41.5025 22.9651 42.8454 22.9651Z" fill="#ED6A02"/>
</g>
</svg>
