<svg width="1440" height="372" viewBox="0 0 1440 372" fill="none" xmlns="http://www.w3.org/2000/svg">
<path d="M-193 104.2C-119.867 194 22.1833 275.6 192.897 322.2C362.978 370 561.511 382.7 732.646 362.3C904.624 342.6 1048.99 289.7 1129.71 222.3C1212.75 155.1 1231.72 73.4 1206.01 1" stroke="#CECCCA" stroke-opacity="0.4" stroke-width="0.25"/>
<path d="M-191.735 111.5C-107.854 201.9 40.0977 279.5 211.443 323.2C382.368 367.9 576.686 378.5 743.817 358C911.79 338.1 1052.58 287 1133.93 221.5C1217.18 156.2 1240.78 76.6002 1218.02 3.7002" stroke="#CECCCA" stroke-opacity="0.4" stroke-width="0.25"/>
<path d="M-190.26 118.8C-95.4193 209.6 58.2228 283.3 230.201 324C401.968 365.5 591.861 374.2 755.198 353.6C919.167 333.5 1056.37 284.2 1138.35 220.7C1221.81 157.3 1249.85 79.8002 1230.24 6.2002" stroke="#CECCCA" stroke-opacity="0.4" stroke-width="0.25"/>
<path d="M-188.574 126.1C-82.7739 217.2 76.5587 286.8 248.958 324.6C421.358 363 606.824 369.6 766.157 349.1C926.122 328.9 1059.95 281.4 1142.57 219.9C1226.24 158.5 1258.91 82.8998 1242.68 8.7998" stroke="#CECCCA" stroke-opacity="0.4" stroke-width="0.25"/>
<path d="M-186.888 133.5C45.9989 320.3 470.043 386.5 776.695 344.2C1091.36 305.9 1288.62 159.3 1254.9 11.2002" stroke="#CECCCA" stroke-opacity="0.4" stroke-width="0.25"/>
<path d="M-185.202 141C74.0296 325.5 486.693 381.2 787.233 339.6C1094.31 300.2 1289.26 163.6 1267.55 13.6001" stroke="#CECCCA" stroke-opacity="0.4" stroke-width="0.25"/>
<path d="M-183.305 148.5C102.482 330.4 503.553 375.7 797.771 334.9C1097.47 294.5 1290.31 168 1280.19 15.8999" stroke="#CECCCA" stroke-opacity="0.4" stroke-width="0.25"/>
<path d="M-181.198 156.1C-29.663 246.6 149.481 299.1 322.513 325C496.388 350.8 663.94 350.1 808.309 329.9C1095.57 289.7 1296 171.3 1292.84 18.1001" stroke="#CECCCA" stroke-opacity="0.4" stroke-width="0.25"/>
<path d="M-178.879 163.7C-15.753 253.6 168.027 301.6 340.848 324.6C514.723 347.2 677.85 344.8 818.846 324.9C1096.41 284.9 1299.79 174.7 1305.91 20.3999" stroke="#CECCCA" stroke-opacity="0.4" stroke-width="0.25"/>
<path d="M-176.561 171.4C-1.63225 260.6 186.363 304.1 358.974 324.1C532.638 343.5 691.338 339.5 828.331 319.9C965.323 300 1080.61 264.6 1168.07 214.7C1254.69 164.8 1313.7 100.4 1318.76 22.6001" stroke="#CECCCA" stroke-opacity="0.4" stroke-width="0.25"/>
<path d="M-174.032 179.2C12.9099 267.4 204.699 306.3 377.099 323.4C550.552 339.6 704.616 334 838.025 314.7C971.435 295 1083.77 261.8 1172.29 213.8C1259.54 165.8 1322.77 103.1 1332.04 24.7998" stroke="#CECCCA" stroke-opacity="0.4" stroke-width="0.25"/>
<path d="M-171.503 187C27.4522 274.1 223.035 308.4 395.013 322.5C568.045 335.6 717.683 328.4 847.509 309.5C977.125 290.1 1087.14 259 1176.5 213C1264.6 167 1332.04 105.9 1345.11 26.8999" stroke="#CECCCA" stroke-opacity="0.4" stroke-width="0.25"/>
<path d="M-168.763 194.9C42.2053 280.7 241.16 310.3 412.928 321.4C585.538 331.3 730.539 322.6 856.993 304.1C983.026 285 1090.51 256.2 1180.93 212.1C1269.66 168 1341.31 108.6 1358.6 28.8999" stroke="#CECCCA" stroke-opacity="0.4" stroke-width="0.25"/>
<path d="M-165.812 202.8C57.3798 287.2 259.707 312 430.631 320.1C602.609 326.8 743.184 316.7 866.056 298.7C988.717 280 1093.67 253.4 1185.14 211.2C1274.71 169 1350.59 111.2 1372.08 30.8999" stroke="#CECCCA" stroke-opacity="0.4" stroke-width="0.25"/>
<path d="M-162.651 210.8C72.7651 293.6 278.043 313.6 448.335 318.7C619.47 322.2 755.408 310.7 875.119 293.2C994.196 274.9 1097.05 250.6 1189.57 210.3C1279.98 170 1359.86 113.8 1385.78 32.7998" stroke="#CECCCA" stroke-opacity="0.4" stroke-width="0.25"/>
<path d="M-159.49 218.8C88.1504 299.8 296.379 314.9 465.617 317C635.909 317.3 767.211 304.5 883.76 287.6C999.465 269.8 1100.21 247.8 1193.57 209.4C1284.83 171.1 1368.92 116.4 1399.27 34.6001" stroke="#CECCCA" stroke-opacity="0.4" stroke-width="0.25"/>
<path d="M-156.117 226.9C103.957 305.9 314.504 316.1 482.899 315.2C652.137 312.3 779.013 298.2 892.19 281.9C1004.52 264.6 1103.16 245 1197.79 208.5C1289.89 172.1 1378.2 118.9 1412.97 36.3999" stroke="#CECCCA" stroke-opacity="0.4" stroke-width="0.25"/>
<path d="M-152.535 235.1C119.975 312 332.84 317.2 500.181 313.3C668.155 307.2 790.605 291.9 900.62 276.2C1009.79 259.4 1106.53 242.2 1202.21 207.6C1295.37 173.2 1387.68 121.4 1427.09 38.1001" stroke="#CECCCA" stroke-opacity="0.4" stroke-width="0.25"/>
<path d="M-148.952 243.2C135.992 317.8 350.965 318 517.042 311.1C683.751 301.8 801.564 285.4 908.418 270.3C1014.22 254.1 1109.27 239.3 1206.22 206.6C1300.43 174.3 1396.53 123.9 1441 39.8999" stroke="#CECCCA" stroke-opacity="0.4" stroke-width="0.25"/>
<path d="M-145.158 251.5C152.431 323.7 369.09 318.8 533.902 308.9C699.136 296.4 812.524 278.9 916.427 264.6C1019.07 249 1112.43 236.7 1210.64 205.9C1305.91 175.3 1406.02 126.4 1455.12 41.6001" stroke="#CECCCA" stroke-opacity="0.4" stroke-width="0.25"/>
<path d="M-141.154 259.8C169.081 329.3 387.215 319.3 550.552 306.5C714.311 290.8 823.061 272.2 924.014 258.7C1023.7 243.8 1115.38 233.9 1214.86 205.1C1311.18 176.5 1415.29 128.9 1469.45 43.2002" stroke="#CECCCA" stroke-opacity="0.4" stroke-width="0.25"/>
<path d="M-136.939 268.1C183.624 338.3 405.762 318.9 567.623 303.1C730.117 283.4 832.124 267.2 930.759 253.5C1026.65 240.2 1119.39 229.5 1219.5 203.4C1317.08 176.7 1422.03 134.6 1483.58 44.7002" stroke="#CECCCA" stroke-opacity="0.4" stroke-width="0.25"/>
<path d="M-132.513 276.5C200.695 344.2 423.887 319 583.852 300.2C744.449 277.2 842.03 260.5 937.924 247.5C1031.08 235.1 1122.34 226.4 1223.71 202.3C1322.35 177.5 1431.31 137.4 1498.12 46" stroke="#CECCCA" stroke-opacity="0.4" stroke-width="0.25"/>
<path d="M-128.087 284.9C217.977 349.9 441.591 318.9 599.869 297.2C758.57 270.9 851.725 253.8 944.879 241.5C1035.08 230 1125.08 223.4 1227.93 201.3C1327.83 178.5 1440.58 140.2 1512.66 47.3999" stroke="#CECCCA" stroke-opacity="0.4" stroke-width="0.25"/>
<path d="M-123.239 293.3C56.326 325.4 201.959 330.5 322.302 326C442.644 321.3 537.696 307.1 615.887 293.7C694.078 280 755.408 267 808.519 257.6C861.63 248 906.311 242 951.623 235.3C1039.09 224.8 1127.82 220.2 1231.93 200.2C1333.31 179.3 1449.85 142.9 1526.99 48.7002" stroke="#CECCCA" stroke-opacity="0.4" stroke-width="0.25"/>
<path d="M-118.392 301.8C66.8639 334 216.291 335.5 338.32 328.5C460.348 321 554.767 305 631.905 290.4C785.125 259.4 871.536 238.1 958.368 229.2C1043.09 219.7 1130.77 217.2 1236.36 199.2C1339 180.2 1459.34 145.8 1542.17 50" stroke="#CECCCA" stroke-opacity="0.4" stroke-width="0.25"/>
<path d="M-113.334 310.4C78.6663 341.3 231.044 340.3 354.126 331C477.209 321.2 571.206 303 647.29 286.9C798.192 252.8 880.177 231 964.69 223C1046.89 214.5 1133.51 214.1 1240.57 198.1C1344.69 181.1 1468.82 148.5 1556.92 51.1001" stroke="#CECCCA" stroke-opacity="0.4" stroke-width="0.25"/>
<path d="M-108.065 319C90.6795 348.5 246.008 345 370.144 333.4C494.491 321.2 587.856 300.9 662.464 283.3C810.838 246.1 888.607 223.8 970.592 216.9C1050.26 209.5 1136.04 211.1 1244.58 197.2C1349.96 182.1 1478.1 151.4 1571.67 52.3999" stroke="#CECCCA" stroke-opacity="0.4" stroke-width="0.25"/>
<path d="M-102.585 327.6C102.903 355.6 260.971 349.5 386.372 335.6C511.773 321 604.295 298.5 677.85 279.4C823.694 239.1 897.037 216.4 976.704 210.5C1054.05 204.2 1138.99 207.9 1249 196.1C1355.86 182.9 1488 154.2 1587.06 53.3999" stroke="#CECCCA" stroke-opacity="0.4" stroke-width="0.25"/>
<path d="M-97.1053 336.3C115.127 362.8 275.935 354.1 402.179 337.7C528.423 320.7 620.102 296.1 692.392 275.4C835.496 232 904.625 209 982.183 204.1C1057.21 199 1141.31 204.7 1253.01 194.9C1361.55 183.7 1497.27 156.9 1602.02 54.2998" stroke="#CECCCA" stroke-opacity="0.4" stroke-width="0.25"/>
<path d="M-91.2042 345C127.984 369.9 291.321 358.5 418.407 339.7C545.494 320.2 636.331 293.4 707.145 271.3C847.299 224.8 912.212 201.5 987.663 197.8C1060.37 193.9 1144.05 201.7 1257.22 193.9C1367.24 184.6 1506.97 159.7 1617.41 55.2998" stroke="#CECCCA" stroke-opacity="0.4" stroke-width="0.25"/>
<path d="M-85.303 353.7C140.629 376.9 306.495 362.7 434.636 341.5C562.355 319.5 652.137 290.6 721.687 266.9C858.89 217.4 919.588 193.8 992.932 191.2C1063.54 188.5 1146.57 198.4 1261.44 192.7C1373.14 185.3 1516.66 162.4 1632.79 56" stroke="#CECCCA" stroke-opacity="0.4" stroke-width="0.25"/>
</svg>
