<svg width="51" height="50" viewBox="0 0 51 50" fill="none" xmlns="http://www.w3.org/2000/svg">
<g id="Group 1219">
<path id="Vector" d="M49.4406 23.0544C35.8323 23.0544 22.3158 23.0544 8.73809 23.0544C8.73809 22.2915 8.73809 21.5286 8.73809 20.7963C8.73809 20.369 8.64635 20.0334 8.15707 20.0028C7.75953 19.9723 7.54546 20.247 7.54546 20.7657C7.54546 21.6812 7.54546 22.5662 7.54546 23.4816C7.54546 24.092 7.72894 24.275 8.34055 24.275C9.1968 24.275 10.053 24.275 10.9399 24.275C10.9399 24.6718 10.9399 25.0074 10.9399 25.3431C10.9399 26.045 11.0316 26.167 11.735 26.3196C11.735 32.0871 11.735 37.8851 11.735 43.683C11.3374 43.7746 10.9399 43.8967 10.9399 44.4459C10.9399 44.8426 10.9399 45.2699 10.9399 45.7276C10.6035 45.7276 10.2977 45.7276 9.99189 45.7276C9.47202 45.7276 9.25796 45.9412 9.25796 46.4295C9.25796 47.3754 9.25796 48.3519 9.25796 49.2979C9.25796 49.8167 9.47202 49.9998 9.99189 49.9998C10.1142 49.9998 10.2365 49.9998 10.3589 49.9998C22.8356 49.9998 35.2819 49.9998 47.7586 49.9998C48.7372 49.9998 48.829 49.9082 48.829 48.9623C48.829 48.1383 48.829 47.3144 48.829 46.4905C48.829 45.8802 48.6455 45.6971 48.0339 45.6971C47.7586 45.6971 47.4834 45.6971 47.2694 45.6971C46.933 45.0257 47.6975 43.9882 46.4743 43.683C46.4743 37.9156 46.4743 32.1176 46.4743 26.3196C47.6669 26.0144 46.933 25.0074 47.2694 24.275C47.9727 24.275 48.7372 24.275 49.5017 24.275C50.5109 24.275 50.6026 24.1835 50.6026 23.146C50.6026 22.3831 50.572 21.6202 50.6026 20.8573C50.6332 20.369 50.4497 20.0944 49.991 19.9113C44.089 17.2564 38.1564 14.571 32.2544 11.9162C31.337 11.5195 30.4502 11.0617 29.5327 10.6956C29.2575 10.5735 28.86 10.5735 28.5848 10.6956C27.3615 11.2143 26.1383 11.7636 24.9457 12.3129C24.5787 12.496 24.2729 12.7096 24.4564 13.1673C24.6093 13.5335 24.9457 13.5945 25.4044 13.4115C26.5053 12.9232 27.5756 12.4044 28.6765 11.9467C28.8906 11.8551 29.1964 11.8551 29.3798 11.9467C35.924 14.8762 42.4377 17.8362 48.9819 20.7657C49.2877 20.9183 49.41 21.0709 49.3794 21.4066C49.41 21.9559 49.4406 22.4746 49.4406 23.0544ZM17.7593 26.2891C18.9825 25.9839 18.1874 24.9159 18.5238 24.3056C25.5879 24.3056 32.6214 24.3056 39.6243 24.3056C39.9606 25.0074 39.135 26.106 40.4805 26.2891C40.4805 32.0871 40.4805 37.8851 40.4805 43.6525C39.7466 43.8661 39.716 43.9272 39.6854 44.6901C39.6854 44.9952 39.6854 45.3309 39.6854 45.6666C32.5908 45.6666 25.5267 45.6666 18.5238 45.6666C18.218 44.9952 18.9825 43.9272 17.7593 43.6525C17.7593 37.8851 17.7593 32.1176 17.7593 26.2891ZM47.6363 48.7792C35.2207 48.7792 22.8968 48.7792 10.5118 48.7792C10.5118 48.1689 10.5118 47.5585 10.5118 46.9482C22.8968 46.9482 35.2513 46.9482 47.6363 46.9482C47.6363 47.5585 47.6363 48.1383 47.6363 48.7792ZM41.7343 43.7136C41.7343 37.8545 41.7343 32.0566 41.7343 26.2891C42.9269 26.2891 44.089 26.2891 45.2205 26.2891C45.2205 32.1176 45.2205 37.9156 45.2205 43.7136C44.0584 43.7136 42.9269 43.7136 41.7343 43.7136ZM16.5055 26.2586C16.5055 32.0871 16.5055 37.8851 16.5055 43.683C15.3129 43.683 14.1508 43.683 12.9888 43.683C12.9888 37.8545 12.9888 32.0566 12.9888 26.2586C14.1814 26.2586 15.3129 26.2586 16.5055 26.2586ZM45.985 45.6666C44.3031 45.6666 42.6517 45.6666 40.9698 45.6666C40.9698 45.4224 40.9698 45.1783 40.9698 44.9342C42.6517 44.9342 44.3031 44.9342 45.985 44.9342C45.985 45.2088 45.985 45.4224 45.985 45.6666ZM17.2394 45.6666C15.5575 45.6666 13.9062 45.6666 12.2243 45.6666C12.2243 45.4224 12.2243 45.1783 12.2243 44.9342C13.9062 44.9342 15.5575 44.9342 17.2394 44.9342C17.2394 45.2088 17.2394 45.4224 17.2394 45.6666ZM45.985 25.0074C44.3031 25.0074 42.6517 25.0074 40.9698 25.0074C40.9698 24.7328 40.9698 24.5192 40.9698 24.3056C42.6517 24.3056 44.3031 24.3056 45.985 24.3056C45.985 24.5497 45.985 24.7633 45.985 25.0074ZM17.2394 25.0074C15.5575 25.0074 13.8756 25.0074 12.2243 25.0074C12.2243 24.7328 12.2243 24.5192 12.2243 24.3056C13.9062 24.3056 15.5575 24.3056 17.2394 24.3056C17.2394 24.5497 17.2394 24.7633 17.2394 25.0074Z" fill="#ED6B02"/>
<path id="Vector_2" d="M3.72382 8.28502C5.00819 8.86482 6.20082 9.38358 7.36288 9.96338C7.4852 10.0244 7.54636 10.2991 7.54636 10.4821C7.54636 12.4352 7.54636 14.3576 7.54636 16.3107C7.54636 18.4773 8.80016 19.6979 10.9408 19.6979C13.9988 19.6979 17.0569 19.6979 20.1149 19.6979C22.2555 19.6979 23.5093 18.4467 23.5093 16.2801C23.5093 14.3576 23.5093 12.4352 23.5093 10.4821C23.5093 10.116 23.6011 9.93287 23.9374 9.78029C25.7417 8.98688 27.5153 8.19347 29.289 7.33903C29.5031 7.24748 29.7783 6.97284 29.7477 6.78975C29.7477 6.57614 29.5031 6.27098 29.289 6.14892C24.8854 4.13488 20.4513 2.15136 16.0477 0.137321C15.6502 -0.0457736 15.3444 -0.0457736 14.9468 0.137321C10.5432 2.15136 6.17024 4.13488 1.76667 6.14892C1.55261 6.24046 1.30797 6.54562 1.30797 6.72872C1.30797 6.94233 1.55261 7.278 1.76667 7.33903C2.3477 7.55264 2.5006 7.88831 2.5006 8.46811C2.47002 11.2145 2.47002 13.9609 2.47002 16.7074C2.47002 16.8904 2.47002 17.0735 2.47002 17.2872C2.28654 17.3482 2.10306 17.4092 1.95016 17.4702C0.574039 18.0195 -0.221048 19.4843 0.0541744 20.9185C0.329397 22.3528 1.64435 23.4208 3.11221 23.3903C4.54949 23.3598 5.80328 22.3222 6.0785 20.949C6.35373 19.4843 5.58922 17.989 4.18252 17.5008C3.7544 17.3482 3.66266 17.1346 3.66266 16.7379C3.66266 14.1135 3.66266 11.4892 3.66266 8.86482C3.72382 8.74275 3.72382 8.55966 3.72382 8.28502ZM27.7906 6.82026C25.8334 7.70522 23.9986 8.52914 22.1332 9.38358C20.0537 10.3296 18.0048 11.2756 15.9254 12.191C15.7113 12.2826 15.3444 12.2826 15.1303 12.191C11.3995 10.5127 7.66868 8.80378 3.93788 7.12542C3.78498 7.06439 3.63207 6.97284 3.44859 6.88129C3.54033 6.82026 3.57091 6.78975 3.60149 6.75923C7.4852 4.98932 11.3689 3.21941 15.2526 1.48001C15.4361 1.38847 15.7113 1.4495 15.9254 1.54104C18.4024 2.63961 20.8794 3.76869 23.3564 4.89777C24.7937 5.47757 26.2615 6.1184 27.7906 6.82026ZM8.73899 10.6042C8.95306 10.6958 9.10596 10.7263 9.25886 10.8178C11.1548 11.6723 13.0508 12.5267 14.9468 13.4117C15.3749 13.5948 15.7113 13.6253 16.1394 13.4117C18.0048 12.5267 19.9008 11.7028 21.7662 10.8483C21.9497 10.7568 22.1332 10.6958 22.3473 10.6042C22.3473 12.7098 22.3778 14.7238 22.3473 16.7074C22.3167 17.7754 21.4604 18.5078 20.329 18.5383C17.1486 18.5383 13.9682 18.5383 10.7879 18.5383C9.53408 18.5383 8.73899 17.7449 8.73899 16.4937C8.73899 15.6393 8.73899 14.7543 8.73899 13.8999C8.73899 12.8013 8.73899 11.7333 8.73899 10.6042ZM3.14279 22.2612C2.10306 22.2612 1.27739 21.4373 1.27739 20.4303C1.27739 19.4233 2.10306 18.5688 3.11221 18.5688C4.18252 18.5688 5.00819 19.3927 5.00819 20.4303C5.00819 21.4373 4.18252 22.2612 3.14279 22.2612Z" fill="#ED6B02"/>
<path id="Vector_3" d="M25.7725 18.0806C25.7419 19.881 27.2404 21.3763 29.0446 21.4068C30.8489 21.4373 32.3779 19.9115 32.3779 18.1111C32.3779 16.3107 30.8794 14.8154 29.0752 14.8154C27.3015 14.7849 25.8031 16.2802 25.7725 18.0806ZM29.1058 20.2167C27.9437 20.2167 26.9957 19.2707 26.9957 18.1111C26.9957 16.9515 27.9131 16.036 29.0752 16.036C30.2373 16.036 31.2158 16.9515 31.2158 18.1111C31.2158 19.2707 30.2678 20.2167 29.1058 20.2167Z" fill="#ED6B02"/>
<path id="Vector_4" d="M35.4051 30.8363C35.4051 30.3786 35.4051 29.9818 35.4051 29.5546C35.4051 29.0053 35.2217 28.8223 34.6712 28.8223C32.6529 28.7612 30.7569 29.0969 29.075 30.348C27.4543 29.1579 25.5889 28.7917 23.6011 28.8223C22.9284 28.8528 22.7755 29.0053 22.7449 29.6767C22.7449 30.0734 22.7449 30.4396 22.7449 30.8973C22.4697 30.8973 22.2556 30.8973 22.0415 30.8973C21.1547 30.9278 20.5431 31.5076 20.5125 32.3926C20.4819 35.2 20.4819 37.977 20.5125 40.7844C20.5125 41.6999 21.1853 42.2492 22.1944 42.2797C25.7418 42.2797 29.2585 42.2797 32.8058 42.2797C33.8456 42.2797 34.8853 42.2797 35.925 42.2797C36.9953 42.2797 37.6069 41.6694 37.6069 40.6013C37.6069 37.977 37.6069 35.3831 37.6069 32.7588C37.6069 31.4771 37.0565 30.9278 35.7721 30.9278C35.6804 30.8668 35.5886 30.8363 35.4051 30.8363ZM23.9681 29.9819C25.4665 30.0124 26.8426 30.287 28.0659 31.0804C28.3717 31.2635 28.494 31.5076 28.494 31.8738C28.4634 34.3761 28.494 36.8479 28.494 39.3502C28.494 39.5028 28.4634 39.6248 28.4634 39.8384C27.0567 38.923 25.5583 38.6788 23.9681 38.6788C23.9681 35.7493 23.9681 32.8808 23.9681 29.9819ZM29.7172 39.8079C29.6866 39.6858 29.656 39.6553 29.656 39.5943C29.656 36.9394 29.656 34.3151 29.656 31.6602C29.656 31.5076 29.7172 31.3245 29.8089 31.2635C31.0933 30.2565 32.5918 29.9819 34.1819 29.9819C34.1819 32.9114 34.1819 35.7493 34.1819 38.6483C32.5918 38.6788 31.0933 38.8924 29.7172 39.8079ZM30.3288 41.0285C30.3288 40.9675 30.2982 40.937 30.2982 40.876C30.604 40.7234 30.8793 40.5403 31.1851 40.3877C32.2554 39.8995 33.3868 39.8384 34.5489 39.8689C35.2522 39.8995 35.4357 39.7469 35.4357 39.045C35.4357 36.9089 35.4357 34.7728 35.4357 32.6367C35.4357 32.4536 35.4357 32.2705 35.4357 32.0874C36.4449 31.9654 36.4755 31.9959 36.4755 32.8808C36.4755 35.3526 36.4755 37.7939 36.4755 40.2656C36.4755 40.998 36.4755 40.998 35.711 40.998C34.8547 40.998 33.9985 40.998 33.1422 40.998C32.1942 41.0285 31.2462 41.0285 30.3288 41.0285ZM22.7755 32.0569C22.7755 32.3316 22.7755 32.5147 22.7755 32.6977C22.7755 34.8338 22.7755 36.9699 22.7755 39.106C22.7755 39.7469 22.9589 39.8995 23.6011 39.8995C24.2739 39.8995 24.9772 39.8995 25.65 39.991C26.4757 40.1131 27.2402 40.3572 28.0047 41.0285C25.9558 41.0285 24.0293 41.0285 22.1027 40.998C21.9804 40.998 21.7663 40.7234 21.7663 40.5708C21.7357 37.8854 21.7663 35.2 21.7357 32.5452C21.7357 32.2095 21.8886 32.0874 22.1944 32.0874C22.3779 32.0569 22.5308 32.0569 22.7755 32.0569Z" fill="#ED6B02"/>
</g>
</svg>
