<svg width="60" height="60" viewBox="0 0 60 60" fill="none" xmlns="http://www.w3.org/2000/svg">
<g id="user 1">
<g id="Group">
<g id="Group_2">
<g id="Group_3">
<path id="Vector" d="M30 58.8281C45.9213 58.8281 58.8281 45.9213 58.8281 30C58.8281 14.0787 45.9213 1.17188 30 1.17188C14.0787 1.17188 1.17188 14.0787 1.17188 30C1.17188 45.9213 14.0787 58.8281 30 58.8281Z" fill="#A5BAED"/>
</g>
<g id="Group_4">
<path id="Vector_2" d="M30.0004 53.4375C41.2125 53.4375 50.3016 48.1908 50.3016 41.7188C50.3016 35.2467 41.2125 30 30.0004 30C18.7884 30 9.69922 35.2467 9.69922 41.7188C9.69922 48.1908 18.7884 53.4375 30.0004 53.4375Z" fill="#EDEFF1"/>
</g>
<g id="Group_5">
<path id="Vector_3" d="M30 30C36.4721 30 41.7188 24.7533 41.7188 18.2812C41.7188 11.8092 36.4721 6.5625 30 6.5625C23.5279 6.5625 18.2812 11.8092 18.2812 18.2812C18.2812 24.7533 23.5279 30 30 30Z" fill="#EDEFF1"/>
</g>
</g>
<g id="Group_6">
<path id="Vector_4" d="M29.9997 44.0625L39.4584 31.9876C36.5654 30.7099 33.3655 30 29.9997 30C26.6338 30 23.434 30.7099 20.541 31.9876L29.9997 44.0625Z" fill="#D3D3D3"/>
</g>
</g>
</g>
</svg>
