<svg width="36" height="36" viewBox="0 0 36 36" fill="none" xmlns="http://www.w3.org/2000/svg">
<g id="Group 1231">
<g id="Group">
<path id="XMLID_21_" d="M35.5 18.1802C35.5 8.50399 27.6762 0.680176 18 0.680176C8.32382 0.680176 0.5 8.50399 0.5 18.1802C0.5 27.8564 8.32382 35.6802 18 35.6802C27.6762 35.6802 35.5 27.832 35.5 18.1802Z" fill="#0199DC"/>
</g>
<g id="Group_2">
<path id="Vector" d="M9.16366 21.0168C9.95772 21.0168 10.6225 21.0168 11.3058 21.0168C11.712 21.0168 12.1183 21.0168 12.543 21.0168C13.134 21.0352 13.3925 21.2938 13.3925 21.8108C13.3925 22.3279 13.1155 22.5864 12.543 22.5864C11.4535 22.5864 10.364 22.6049 9.29293 22.6049C8.8128 22.6049 8.31419 22.6049 7.83406 22.5864C7.44627 22.5864 7.0954 22.4756 6.91074 22.1063C6.70761 21.7 6.79995 21.3307 7.05848 20.9798C7.72327 20.1304 8.38807 19.2809 9.05286 18.4499C9.53299 17.8405 10.0131 17.2311 10.4933 16.6217C10.5856 16.5109 10.641 16.3632 10.7149 16.2339C10.5671 16.197 10.4009 16.1416 10.2532 16.1416C9.49606 16.1231 8.72046 16.1416 7.96333 16.1231C7.29854 16.1231 6.94767 15.8462 6.94767 15.366C6.94767 14.8859 7.28007 14.6089 7.96333 14.6089C9.38526 14.6089 10.8072 14.6089 12.2106 14.6089C12.3399 14.6089 12.4692 14.6274 12.5984 14.6458C13.134 14.7751 13.3925 15.2368 13.134 15.7354C12.9493 16.1047 12.7277 16.474 12.4692 16.8064C11.472 18.0806 10.4748 19.3363 9.45913 20.6105C9.34833 20.7398 9.29292 20.8321 9.16366 21.0168Z" fill="white"/>
<path id="Vector_2" d="M17.7875 17.0654C18.0276 16.8992 18.2307 16.7146 18.4708 16.6407C19.0432 16.456 19.5603 16.7884 19.5603 17.3794C19.5788 18.9121 19.5603 20.4264 19.5603 21.9591C19.5603 22.2915 19.3572 22.5131 19.0432 22.6239C18.7108 22.7531 18.36 22.7347 18.1199 22.4577C17.8798 22.1622 17.6952 22.2361 17.4366 22.4207C16.2917 23.2333 14.482 22.7162 13.8172 21.3866C13.3925 20.5372 13.2817 19.6138 13.4848 18.672C13.7433 17.5086 14.8698 16.5484 16.0517 16.4376C16.6056 16.3822 17.1043 16.5853 17.5474 16.8808C17.6398 16.9731 17.7321 17.0285 17.7875 17.0654ZM17.8983 19.6138C17.7506 19.263 17.6767 18.8936 17.4736 18.5982C17.0119 17.9334 16.0332 17.9334 15.5346 18.5612C15.0545 19.1522 15.036 20.1494 15.4977 20.7218C15.8301 21.1466 16.4025 21.3127 16.9011 21.1281C17.4736 20.9249 17.8244 20.334 17.8983 19.6138Z" fill="white"/>
<path id="Vector_3" d="M29.1997 19.6502C29.1997 21.0536 28.5165 22.1247 27.3346 22.5864C26.0604 23.085 24.657 22.8264 23.789 21.8846C22.9026 20.9059 22.8288 19.724 23.1981 18.5237C23.5305 17.4342 24.3061 16.7325 25.4326 16.5478C27.6116 16.1969 29.2182 17.5635 29.1997 19.6502ZM27.4823 19.6317C27.39 19.3547 27.3531 19.0408 27.2238 18.7823C26.8175 17.9697 25.7096 17.822 25.1556 18.5422C24.9524 18.8192 24.8232 19.2254 24.7862 19.5763C24.6939 20.315 25.1925 21.0167 25.8204 21.146C26.6698 21.3491 27.4269 20.6474 27.4823 19.6317Z" fill="white"/>
<path id="Vector_4" d="M22.2564 18.3394C22.2564 19.4289 22.2564 20.5369 22.2564 21.6264C22.2564 22.0512 22.1456 22.4205 21.7393 22.6236C21.1853 22.9006 20.5759 22.5682 20.5205 21.9404C20.5205 21.885 20.5205 21.8296 20.5205 21.7742C20.5205 19.4658 20.5205 17.176 20.5205 14.8677C20.5205 14.2583 20.8529 13.9628 21.4623 13.9813C21.887 13.9997 22.201 14.2213 22.2194 14.6645C22.2748 15.3847 22.2564 16.1234 22.2748 16.8436C22.2748 17.3422 22.2748 17.8408 22.2564 18.3394C22.2748 18.3394 22.2748 18.3394 22.2564 18.3394Z" fill="white"/>
</g>
</g>
</svg>
